<svg width="18" height="26" viewBox="0 0 18 26" fill="none" xmlns="http://www.w3.org/2000/svg">
<path d="M1.76915 2.92947C1.64426 2.74857 1.57545 2.55062 1.57545 2.33366C1.57545 0.491525 6.48255 0 9.38206 0C12.2817 0 17.1891 0.491525 17.1891 2.33366C17.1891 2.55062 17.1202 2.74857 16.9954 2.92947C17.4784 3.39384 18 4.03232 18 4.62473V21.6822C18 22.1259 17.728 22.5192 17.1891 22.8593V23.6667C17.1891 25.5086 12.2817 26 9.38198 26C6.48247 26 1.57536 25.5086 1.57536 23.6667V22.8594C1.03649 22.5192 0.764467 22.1259 0.764467 21.6822V4.62473C0.764553 4.03232 1.28611 3.39384 1.76915 2.92947ZM16.9818 21.6822V4.62473C16.9818 4.50705 16.7834 4.11539 16.1975 3.57618C14.6127 4.41091 11.4747 4.66698 9.38206 4.66698C7.28963 4.66698 4.15177 4.41091 2.56715 3.57618C1.98119 4.11539 1.78281 4.50713 1.78281 4.62473V21.6822C1.78281 21.7699 2.1368 22.2128 3.77208 22.6216C5.26422 22.9946 7.25653 23.1999 9.38206 23.1999C11.5076 23.1999 13.5 22.9945 14.9924 22.6216C16.6278 22.2128 16.9818 21.7699 16.9818 21.6822ZM14.2564 1.49808C12.9363 1.18864 11.2052 1.01818 9.38206 1.01818C7.55893 1.01818 5.82786 1.18864 4.50788 1.49808C3.07276 1.8345 2.64258 2.21428 2.59558 2.33366C2.61 2.37015 2.66057 2.43115 2.76451 2.50769C2.83705 2.55775 2.76451 2.50769 2.83705 2.55775C3.09906 2.72812 3.60416 2.95713 4.50814 3.16899C5.82812 3.47835 7.55902 3.64872 9.38206 3.64872C11.205 3.64872 12.9361 3.47835 14.2562 3.16899C15.1606 2.95704 15.6657 2.72795 15.9277 2.55758C16 2.50769 15.9277 2.55758 16 2.50769C16.104 2.43115 16.1546 2.37015 16.169 2.33358C16.122 2.21428 15.6916 1.8345 14.2564 1.49808ZM2.59277 23.6586C2.62281 23.768 3.03908 24.1578 4.50805 24.502C5.82803 24.8114 7.55893 24.9817 9.38198 24.9817C11.2049 24.9817 12.936 24.8114 14.2561 24.502C15.7253 24.1577 16.1417 23.768 16.1708 23.6666V23.3329C15.8919 23.4316 15.5812 23.5237 15.239 23.6092C13.6683 24.0018 11.5882 24.2181 9.3819 24.2181C7.17559 24.2181 5.09554 24.0018 3.525 23.6092C3.18272 23.5237 2.87201 23.4315 2.59294 23.3327L2.59277 23.6586Z" fill="#708F85"/>
</svg>
