<svg width="8" height="26" viewBox="0 0 8 26" fill="none" xmlns="http://www.w3.org/2000/svg">
<path d="M1.3 26C0.955218 26 0.624559 25.863 0.380761 25.6192C0.136964 25.3754 0 25.0448 0 24.7V11.7C0 9.1 1.3 6.825 2.6 6.5V0.65C2.6 0.477609 2.66848 0.312279 2.79038 0.190381C2.91228 0.0684821 3.07761 0 3.25 0H4.55C4.72239 0 4.88772 0.0684821 5.00962 0.190381C5.13152 0.312279 5.2 0.477609 5.2 0.65V6.5C6.5 6.825 7.8 9.1 7.8 11.7V24.7C7.8 25.0448 7.66304 25.3754 7.41924 25.6192C7.17544 25.863 6.84478 26 6.5 26H1.3Z" fill="#708F85"/>
</svg>
