<svg width="28" height="26" viewBox="0 0 28 26" fill="none" xmlns="http://www.w3.org/2000/svg">
<path d="M24.4228 8.83483L24.3658 8.91899L24.4228 9.00315L27.4118 13.413C27.528 13.5844 27.5571 13.8003 27.4904 13.9964L27.4904 13.9964C27.4239 14.1924 27.2693 14.3459 27.0727 14.4111L24.3311 15.3199L24.2283 15.354V15.4623V21.946C24.2283 22.2304 24.0463 22.4829 23.7764 22.5729L14.0494 25.8152L14.0491 25.8153C13.9066 25.8631 13.7588 25.86 13.626 25.8151L13.6254 25.8149L3.89913 22.5729C3.62929 22.4829 3.44731 22.2304 3.44731 21.946V15.4623V15.354L3.34451 15.3199L0.602962 14.4111C0.602959 14.4111 0.602956 14.4111 0.602953 14.4111C0.406427 14.346 0.2518 14.1925 0.18519 13.9964C0.118582 13.8004 0.147697 13.5845 0.263873 13.4131L3.25278 9.00315L3.30982 8.91899L3.25278 8.83483L0.263821 4.42491C0.147643 4.25348 0.118527 4.03758 0.185136 3.84154C0.251747 3.6455 0.406378 3.49201 0.602908 3.42685L10.3866 0.183629C10.3866 0.183627 10.3866 0.183625 10.3866 0.183623C10.6692 0.0900081 10.9794 0.196722 11.1444 0.444333L11.2692 0.361133L11.1444 0.444337L13.713 4.29729L13.8378 4.48451L13.9626 4.2973L16.5313 0.444393L16.5313 0.444372C16.6963 0.196781 17.0064 0.0900604 17.289 0.183677C17.289 0.183679 17.289 0.183681 17.289 0.183683L27.0727 3.42691C27.2692 3.49206 27.4238 3.64553 27.4904 3.84159L27.4904 3.84162C27.5571 4.03765 27.528 4.25354 27.4118 4.4249L27.536 4.50906L27.4118 4.4249L24.4228 8.83483ZM17.46 1.63275L17.3514 1.59676L17.288 1.69192L14.9765 5.1591L14.8675 5.3225L15.0538 5.38461L23.1936 8.09784L23.3014 8.13378L23.3652 8.0397L25.7164 4.57073L25.8277 4.40659L25.6395 4.3442L17.46 1.63275ZM2.03617 4.34414L1.84795 4.40654L1.95921 4.57068L4.31044 8.03964L4.37421 8.13373L4.48204 8.09778L12.6217 5.38455L12.808 5.32245L12.6991 5.15904L10.3877 1.69187L10.3242 1.5967L10.2157 1.63269L2.03617 4.34414ZM1.95926 13.2672L1.84801 13.4314L2.03622 13.4938L10.2157 16.2052L10.3243 16.2412L10.3877 16.1461L12.6992 12.6789L12.8081 12.5155L12.6218 12.4534L4.48204 9.74014L4.37421 9.7042L4.31044 9.79829L1.95926 13.2672ZM12.9796 24.2065L13.177 24.2723V24.0642V14.8402V14.3447L12.9022 14.757L11.1444 17.3936L11.2692 17.4768L11.1444 17.3936C10.9783 17.6427 10.6674 17.7474 10.3866 17.6543L4.96613 15.8574L4.76893 15.7921V15.9998V21.3615V21.4697L4.8715 21.5038L12.9796 24.2065ZM13.7904 11.4498L13.8378 11.4656L13.8852 11.4498L21.0509 9.06124L21.4779 8.91894L21.0509 8.77664L13.8852 6.3881L13.8378 6.37229L13.7904 6.3881L6.62468 8.77664L6.19777 8.91894L6.62468 9.06124L13.7904 11.4498ZM22.8041 21.5038L22.9067 21.4697V21.3615V15.9998V15.7921L22.7095 15.8574L17.289 17.6543C17.0084 17.7473 16.6974 17.6429 16.5313 17.3936L16.4065 17.4768L16.5313 17.3936L14.7734 14.7569L14.4986 14.3447V14.8401V24.0642V24.2723L14.6961 24.2065L22.8041 21.5038ZM17.288 16.1461L17.3516 16.2415L17.4603 16.2052C17.7012 16.1247 25.4998 13.5401 25.6394 13.4939L25.8277 13.4316L25.7164 13.2674L23.3652 9.79834L23.3014 9.70426L23.1936 9.7402L15.0538 12.4534L14.8675 12.5155L14.9765 12.6789L17.288 16.1461Z" fill="#708F85" stroke="#F0F4F3" stroke-width="0.3"/>
</svg>
