<svg width="16" height="28" viewBox="0 0 16 28" fill="none" xmlns="http://www.w3.org/2000/svg">
<path d="M5.10486 5.10526H10.5785V2.36842C10.5785 2.00549 10.4344 1.65743 10.1777 1.4008C9.92111 1.14417 9.57305 1 9.21012 1H6.47328C6.11035 1 5.76229 1.14417 5.50566 1.4008C5.24903 1.65743 5.10486 2.00549 5.10486 2.36842V5.10526Z" stroke="#708F85" stroke-linecap="round" stroke-linejoin="round"/>
<path d="M10.5789 3.05241C10.5789 5.27746 11.2727 7.44777 12.5632 9.26093L12.6316 9.35672C13.9669 11.2324 14.6844 13.4777 14.6842 15.7801V24.2629C14.6842 24.9888 14.3959 25.6849 13.8826 26.1982C13.3693 26.7114 12.6732 26.9998 11.9474 26.9998H3.73684C3.01099 26.9998 2.31486 26.7114 1.8016 26.1982C1.28834 25.6849 1 24.9888 1 24.2629V15.7787C1 13.477 1.71705 11.2328 3.05263 9.35672L3.12105 9.26093C4.41171 7.44798 5.10527 5.27785 5.10526 3.05241" stroke="#708F85" stroke-linecap="round" stroke-linejoin="round"/>
<path d="M1.00427 18.5199C1.55015 18.2839 2.02169 17.9041 2.36859 17.421C2.67945 16.9879 3.09108 16.637 3.56791 16.3986C4.04473 16.1602 4.57244 16.0414 5.10543 16.0526C5.63842 16.0414 6.16613 16.1602 6.64296 16.3986C7.11978 16.637 7.53141 16.9879 7.84227 17.421C8.15314 17.8541 8.56476 18.205 9.04159 18.4434C9.51842 18.6819 10.0461 18.8006 10.5791 18.7894C11.1121 18.8006 11.6398 18.6819 12.1166 18.4434C12.5935 18.205 13.0051 17.8541 13.316 17.421C13.6636 16.9364 14.1367 16.5556 14.6844 16.3194" stroke="#708F85" stroke-linecap="round" stroke-linejoin="round"/>
</svg>
