<svg width="18" height="18" viewBox="0 0 18 18" fill="none" xmlns="http://www.w3.org/2000/svg">
<path d="M8.5 13.1V14.2C8.5 14.8868 8.78279 15.5291 9.25101 15.9584C9.72699 16.3947 10.3972 16.6086 11.1116 16.4048C12.3602 16.0487 13.5102 15.3792 14.4447 14.4447C15.8888 13.0007 16.7 11.0422 16.7 9C16.7 6.95783 15.8888 4.99931 14.4447 3.55528C13.5102 2.62076 12.3602 1.95127 11.1116 1.59517C10.3972 1.39143 9.72699 1.60527 9.25101 2.04163C8.78279 2.47087 8.5 3.1132 8.5 3.8V4.9V4.93059C7.59689 5.04153 6.75096 5.45077 6.10086 6.10086C5.33196 6.86976 4.9 7.91261 4.9 9C4.9 10.0874 5.33196 11.1302 6.10086 11.8991C6.75096 12.5492 7.59689 12.9585 8.5 13.0694V13.1ZM9.5 12.0594V5.94057C10.1368 6.04465 10.7299 6.34581 11.192 6.80797C11.7734 7.38933 12.1 8.17783 12.1 9C12.1 9.82217 11.7734 10.6107 11.192 11.192C10.7299 11.6542 10.1368 11.9554 9.5 12.0594ZM0.5 9C0.5 4.30544 4.30544 0.5 9 0.5C13.6946 0.5 17.5 4.30544 17.5 9C17.5 13.6946 13.6946 17.5 9 17.5C4.30544 17.5 0.5 13.6946 0.5 9Z" fill="#222B28" stroke="#222B28"/>
</svg>
