<svg width="156" height="123" viewBox="0 0 156 123" fill="none" xmlns="http://www.w3.org/2000/svg">
<path fill-rule="evenodd" clip-rule="evenodd" d="M117.12 68.0892C116.234 74.734 115.348 81.3789 114.462 88.0237L113.747 93.3897C113.657 94.0668 113.742 95.4024 113.398 96.0086C113.276 96.2224 112.957 96.324 112.722 96.45C111.914 96.8841 111.105 97.3181 110.297 97.7522C103.458 101.424 96.6194 105.095 89.7812 108.767C83.2181 112.29 76.655 115.814 70.0921 119.337C69.413 119.702 68.3144 120.654 67.5813 120.403C66.8844 120.165 66.1721 119.577 65.5394 119.206C64.3248 118.495 63.1103 117.783 61.8957 117.071C54.5463 112.764 47.197 108.457 39.8476 104.15C36.8153 102.373 33.7832 100.596 30.7509 98.8186C29.9214 98.3324 29.0916 97.8463 28.2619 97.3599C27.828 97.1057 27.7716 97.1146 27.6008 96.683C26.9623 95.0694 26.6666 93.2209 26.2148 91.5466C25.7169 89.7015 25.2189 87.8564 24.721 86.0113C24.4991 85.188 24.6032 85.0818 24.9654 84.287C25.6819 82.7139 26.3985 81.141 27.115 79.5681C28.7055 76.0769 30.2957 72.5857 31.8864 69.0946C32.5295 67.6828 34.0787 66.6894 35.194 65.651L52.5113 49.5282C52.9511 49.1186 53.391 48.7092 53.8308 48.2996C53.9033 50.7609 54.3896 53.407 53.6763 55.7847C52.5055 59.6868 51.3349 63.5889 50.1643 67.491C49.5985 69.3772 49.0328 71.2632 48.4669 73.1492C48.3618 73.4996 47.7218 74.8892 47.8928 75.1974C47.9877 75.3682 48.7961 75.5411 48.9712 75.6076C49.7234 75.8938 50.4756 76.18 51.228 76.4662C53.3238 77.2636 55.4196 78.0609 57.5154 78.8581C59.4005 79.5754 61.2856 80.2925 63.1706 81.0096C63.8099 81.2529 64.5606 81.7032 65.2357 81.6656C65.8396 81.632 66.5263 81.3331 67.1106 81.1827C68.138 80.9181 69.1656 80.6534 70.193 80.3886C72.2111 79.8689 74.2295 79.3491 76.2477 78.8292C78.5182 78.2443 80.4358 76.5265 82.3776 75.2551C85.7153 73.0697 89.053 70.8842 92.3906 68.6989C93.1547 68.1986 93.1575 67.9131 93.462 66.9996C94.1463 64.9468 94.8307 62.8939 95.5149 60.841C95.8803 59.7449 96.3297 58.6441 96.6056 57.5219C97.0608 55.6699 97.3307 53.7527 97.6912 51.8802C97.7999 51.3152 97.9087 50.7501 98.0174 50.1852C99.4152 50.7524 100.813 51.3197 102.211 51.8871C102.413 51.9692 103.401 52.2144 103.488 52.4158C103.544 52.5431 103.25 53.1209 103.208 53.2451C102.049 56.6779 100.89 60.1104 99.7312 63.543C99.3666 64.6228 99.0022 65.7025 98.6376 66.7823C99.5087 65.4133 100.38 64.0441 101.251 62.6751C101.936 64.9776 102.62 67.2803 103.305 69.5828C104.923 67.7158 106.541 65.8489 108.159 63.9819C108.719 65.8489 109.279 67.7158 109.839 69.5828C111.582 67.2803 113.324 64.9776 115.067 62.6751C115.274 63.8766 115.481 65.0782 115.688 66.2798C115.751 66.6425 115.738 67.683 115.98 67.9701C116.178 68.2064 116.751 68.0892 117.12 68.0892Z" fill="#189A46"/>
<path fill-rule="evenodd" clip-rule="evenodd" d="M6.79601 82.4527C6.89401 85.5806 6.82607 89.641 8.53786 92.3912C8.81418 92.835 9.75008 94.2177 9.85461 93.0014C9.95711 91.8073 9.66325 90.6247 9.95432 89.4168C10.11 88.7705 10.6337 87.3587 11.5289 87.9425C11.985 88.2401 12.1052 88.9747 12.2837 89.4385C12.5477 90.1246 12.8434 90.7999 13.1214 91.4807C14.0922 93.8576 15.0981 96.694 17.2561 98.2669C16.9737 96.2174 16.2039 94.0289 16.7214 91.9572C16.8977 91.2511 17.432 89.9618 18.3519 90.3755C19.2484 90.7786 19.8293 92.5772 20.2524 93.3781C21.5352 95.8064 22.8471 98.189 24.2912 100.527C25.0176 101.702 25.8021 102.777 26.7525 103.783C27.3468 104.412 28.0878 105.475 29.0244 105.569C29.0244 103.776 28.4345 102.044 27.8959 100.356C27.3166 98.5402 26.7884 96.7093 26.2197 94.8905C25.7265 93.3128 25.3215 91.7471 24.9931 90.1293C24.857 89.4601 24.7495 88.7673 24.1791 88.3351C23.6665 87.9468 22.8566 87.762 22.2849 87.4765C20.7839 86.7266 19.2401 85.9174 17.8457 84.9853C17.2731 84.6025 16.7802 84.1082 16.1808 83.7648C15.4977 83.3737 14.8599 83.0446 14.2279 82.5679C11.5011 80.5111 9.04288 77.981 7.38652 74.9693C7.11768 76.1792 6.76146 77.3616 6.72208 78.6089C6.68193 79.8877 6.75586 81.1746 6.79601 82.4527ZM29.2384 96.8299C29.6745 96.0934 30.339 96.3951 30.9244 96.7502C31.8329 97.3011 32.7438 97.8481 33.6569 98.3922C35.5151 99.4993 37.3389 100.664 39.1543 101.84C42.8499 104.232 46.6744 106.19 50.5705 108.215C54.3361 110.171 57.953 112.5 61.4811 114.854C62.3291 115.419 63.1711 115.998 63.9853 116.612C64.708 117.156 65.286 117.921 66.0467 118.406C66.8391 118.911 67.3837 118.501 68.1415 118.129C69.0891 117.663 70.0767 117.273 71.0455 116.853C74.9547 115.158 78.8751 113.399 82.6779 111.476C86.4577 109.564 90.0391 107.361 93.6608 105.173C95.3856 104.131 97.081 103.023 98.7824 101.943C100.593 100.793 102.468 99.9322 104.367 98.9549C105.207 98.5223 105.951 97.9351 106.815 97.542C107.722 97.1288 108.68 96.8323 109.493 96.2362C109.857 95.9689 110.164 95.6494 110.581 95.4603C110.923 95.3052 111.311 95.279 111.648 95.1142C112.335 94.7789 112.531 94.0984 112.664 93.3906C113.519 88.847 113.974 84.1776 114.47 79.5834C114.748 76.9999 115.059 74.4265 115.444 71.8567C115.618 70.6981 115.269 69.8004 115.085 68.6734C114.871 67.357 114.787 66.013 114.643 64.6876C113.967 65.9411 113.382 67.2565 112.521 68.4004C111.886 69.2433 110.802 70.4387 109.634 70.4106C107.818 70.3667 107.901 67.2517 107.828 66.0152C107 66.7536 106.749 67.9565 106.063 68.8141C105.436 69.5971 104.583 70.5687 103.62 70.9193C101.593 71.6577 101.788 67.8948 101.899 66.8277C101.955 66.2924 102.257 65.4456 101.54 65.6896C100.88 65.9144 100.237 66.8462 99.6824 67.2735C98.723 68.0125 97.6706 68.6265 96.6863 69.3318C95.4652 70.2071 94.1475 70.8396 92.9024 71.6547C92.1237 72.1646 91.2742 72.279 90.4253 72.6539C89.1816 73.2033 88.0829 74.0222 86.899 74.6808C84.5547 75.9845 81.9541 77.1536 79.3898 77.9396C78.5601 78.1939 77.4545 78.9108 76.8252 78.1741C76.4376 77.7208 76.183 77.0283 75.854 76.5201C75.4379 75.8768 74.9959 75.2504 74.5371 74.6368C72.9057 72.456 71.0953 70.3967 69.0848 68.5574C66.7457 66.4177 64.188 64.4921 61.4522 62.8884C60.2768 62.1993 55.3686 59.1109 54.2896 61.2845C55.1763 61.2293 55.9447 61.5536 56.7029 61.9596C56.8879 62.0588 57.8421 62.7402 57.6188 62.1396C57.896 62.1915 58.1391 62.5529 58.349 62.7137C58.7117 62.9915 59.2619 63.3122 59.682 63.5422C60.0972 63.7694 60.6102 63.8251 60.9886 64.1006C61.1268 64.2013 61.2106 64.3644 61.3424 64.4733L61.7203 64.4763C61.7768 64.6856 61.8334 64.8947 61.89 65.1039C62.1036 64.4193 62.4082 65.3097 62.765 65.5989C62.9795 65.7727 63.3191 65.9517 63.5717 66.0639C63.7605 66.1478 63.7896 65.9528 63.9729 66.1011C64.1357 66.2327 64.2395 66.5226 64.4146 66.6877C64.6295 66.8897 64.9045 67.0467 65.1441 67.2192C65.603 67.5496 66.0884 67.8092 66.5532 68.1224C67.1787 68.544 67.5067 69.2689 68.1138 69.7097C68.4015 69.9184 68.8483 69.9429 69.004 70.0766C69.3944 70.4122 69.2657 70.9208 69.9938 70.9432C69.9276 71.0492 69.8878 71.1642 69.8742 71.2884C70.0476 71.2585 70.2018 71.1866 70.3368 71.0726C70.3066 71.7988 71.0207 72.0581 71.4488 72.5053C71.6956 72.7629 72.0031 73.1253 72.177 73.4354C72.206 73.4873 72.2613 73.9012 72.2732 73.9068C72.3393 73.9385 72.7416 73.5851 72.7035 73.6146C72.8157 74.2856 73.4651 74.92 73.7494 75.5411C73.8991 75.8684 74.0513 76.3945 74.3464 76.6247C74.4267 76.6872 74.6737 76.6219 74.8778 76.8394C75.0275 76.9988 75.2002 77.2936 75.2611 77.5051C75.3016 77.6465 75.2528 78.012 75.3111 78.0968C75.4179 78.2517 75.584 78.096 75.7513 78.2107C76.0605 78.4224 76.0683 78.7532 76.5207 78.7967C76.2089 79.5543 74.3263 79.7879 73.642 80.0033C71.7069 80.6123 69.6768 81.2206 67.868 82.1533C67.4001 82.3945 66.9574 82.5933 66.8745 83.1491C66.759 83.9224 67.1531 84.9507 67.2283 85.7318C67.432 87.8413 67.4736 90.0129 67.4311 92.1314C67.3908 94.138 67.3258 96.1634 67.2323 98.1676C67.1456 100.026 66.7709 101.847 66.5687 103.692C66.5133 104.199 66.5503 106.482 65.6795 106.367C64.9525 106.271 65.4116 104.712 65.4252 104.264C65.4557 103.275 65.2473 102.264 65.2561 101.266C65.2602 100.786 65.0503 100.372 65.0302 99.9132C65.0102 99.4593 65.2357 99.1007 65.1682 98.6302C65.1032 98.1788 63.7687 95.5822 65.0504 95.8864C64.9753 95.5152 64.9096 95.1409 64.8104 94.7752C64.6734 94.8984 64.5629 95.0423 64.4796 95.2066C64.3656 94.409 64.4036 93.613 64.3329 92.815C64.3011 92.4534 64.1546 92.0574 64.2046 91.693C64.1951 91.542 64.2143 91.3937 64.2621 91.2485C64.3409 91.165 64.4386 91.1212 64.5545 91.1169C64.6155 90.9173 64.6312 90.8624 64.5229 90.6666C64.4765 90.5338 64.3842 90.4509 64.2463 90.4181C63.9834 90.3869 63.9533 90.2359 64.1563 89.965C64.0504 89.4303 64.0368 89.0927 64.1131 88.5591C64.1774 88.1109 63.9412 87.243 64.1818 86.8438C64.4628 86.3772 64.6025 86.8298 64.6547 86.1831C64.6659 86.0462 64.6749 85.761 64.6198 85.6245C64.5595 85.4759 64.3783 85.5367 64.3551 85.4839C64.1977 85.1245 64.1873 84.417 64.7442 84.4784C64.7223 84.2217 64.7005 83.965 64.6788 83.7083C64.2765 84.1714 64.4171 83.7794 64.1889 83.5219C63.8816 83.1751 63.5811 83.1153 63.1418 82.9781C61.971 82.6129 60.843 82.0635 59.6989 81.6177C57.2764 80.6735 54.8088 79.8306 52.4572 78.7149C47.5111 76.368 42.6632 73.8209 37.6869 71.5359C38.0424 70.8762 37.8213 70.8441 37.5614 70.2246C37.2146 70.4654 37.2876 70.2974 37.0407 70.2827C37.0631 70.076 36.9989 70.0136 36.8481 70.0956C36.728 70.1324 36.605 70.1454 36.4788 70.1346C36.1707 70.1875 35.9191 70.357 35.639 70.4214C35.5472 70.4892 35.4462 70.5399 35.336 70.5741C35.2371 70.5515 35.1527 70.5026 35.0829 70.4272C34.6296 70.5112 34.4769 70.8526 34.4569 71.347C34.4535 71.4331 34.7168 71.5212 34.6413 71.6368C34.5097 71.8388 34.1554 71.7906 33.9526 71.8164C33.9971 72.0262 34.0415 72.2359 34.0857 72.4455C33.1961 72.035 33.4282 73.32 33.1584 73.7421C33.0832 73.8599 32.9157 73.7658 32.8285 73.9023C32.715 74.0804 32.7492 74.3326 32.6523 74.51C32.4333 74.9112 32.2141 74.8625 31.9959 75.3219C30.8553 77.7208 29.3381 79.9557 28.2433 82.4061C27.7221 83.5723 27.252 84.7586 26.7077 85.9146C26.207 86.9786 25.9208 87.8831 26.2778 89.0449C27.1056 91.7402 27.9909 94.4846 29.0758 97.0881C29.1299 97.002 29.1841 96.916 29.2384 96.8299ZM86.9818 116.949C87.0594 117.081 87.1371 117.213 87.2147 117.345C87.3873 116.353 86.9276 116.813 86.9818 116.949ZM90.6331 115.091C90.882 115.016 90.7745 114.61 90.7664 114.436C90.609 114.632 90.4547 114.832 90.3236 115.047C90.4268 115.062 90.5301 115.076 90.6331 115.091ZM100.641 111.276C100.379 111.129 100.191 111.024 99.8949 110.858C100.196 111.445 100.196 111.445 100.641 111.276ZM116.384 59.5733C116.784 60.5534 115.566 66.6053 116.7 66.8029C116.862 66.2717 116.883 64.8092 117.556 64.6346C118.391 64.4178 118.308 65.9235 118.422 66.3892C120.137 65.1964 120.898 62.8929 121.717 61.0674C122.761 58.7406 123.583 56.3205 124.367 53.8961C125.038 51.8232 125.593 49.7138 126.271 47.6442C126.697 46.3445 127.156 45.0415 127.442 43.7018C127.504 43.4108 127.749 42.6728 127.541 42.3961C127.239 41.9937 126.151 42.4545 125.8 42.5602C123.526 43.2446 121.166 43.5392 118.829 43.9369C116.233 44.3784 113.642 44.8349 111.03 45.1773C110.378 45.2628 109.725 45.3438 109.071 45.4226C108.647 45.4737 108.006 45.4226 107.603 45.6126C106.789 45.997 106.615 47.4682 106.312 48.2314C105.184 51.0789 103.855 53.8364 102.666 56.6581C101.595 59.1999 100.784 61.9042 99.2442 64.2186C100.392 63.7097 101.847 61.0191 103.13 62.5699C103.681 63.2368 103.542 64.1154 103.498 64.9135C103.434 66.0673 103.414 67.2296 103.414 68.3853C104.67 68.0591 105.513 66.6341 106.172 65.6246C107.073 64.2459 107.64 62.9467 108.038 61.3661C108.211 60.6817 108.669 60.6647 109.075 60.2551C109.337 59.9919 109.468 59.6371 109.843 60.0201C110.314 60.5014 110.001 61.8342 109.919 62.4025C109.726 63.7547 109.092 65.8358 109.708 67.1064C110.54 68.8212 112.768 64.5065 113.029 63.8833C113.162 63.5661 115.533 57.4827 116.384 59.5733ZM117.941 30.1857C117.801 30.2072 117.66 30.2286 117.52 30.2501C117.633 30.35 117.869 30.7002 118.061 30.6076C118.021 30.467 117.981 30.3264 117.941 30.1857ZM110.505 28.59C110.549 28.6384 110.593 28.6865 110.637 28.7349C110.838 28.4832 110.767 28.1164 110.767 27.8253C110.501 27.986 110.436 28.3075 110.505 28.59ZM109.904 31.3822V32.2048C110.461 31.9632 110.472 31.8385 109.904 31.3822ZM109.227 32.4281C109.618 32.3209 109.664 32.2345 109.609 31.6342C109.447 31.9705 109.341 32.1921 109.227 32.4281ZM106.979 38.5199C107.143 38.9411 108.099 37.9374 108.064 37.637C108.031 37.3505 107.884 37.265 107.681 37.4492C107.614 37.5103 107.714 37.7308 107.671 37.8073C107.516 38.0844 107.205 38.311 106.979 38.5199ZM106.968 41.0575C107.208 41.656 107.635 40.7134 107.009 40.6876C106.968 40.8081 106.954 40.9313 106.968 41.0575ZM107.433 40.1137C107.526 39.99 107.616 39.8645 107.704 39.7368C107.381 39.802 107.125 40.272 106.785 39.9584C106.825 40.4367 107.165 40.45 107.433 40.1137ZM128.295 32.339C128.814 31.7728 125.431 31.3753 125.023 31.278C122.061 30.5718 119.265 29.5498 116.496 28.2958C115.175 27.6976 113.86 27.0921 112.57 26.429C112.013 26.1428 111.25 25.9001 110.784 25.4703C110.452 25.1636 110.466 24.9315 110.034 24.7488C109.667 24.594 109.649 24.7402 109.481 24.4601C109.38 24.2921 109.266 23.6764 109.325 23.4942C109.486 22.997 109.724 23.4001 110.057 23.0575C110.298 22.8105 110.239 22.1081 110.174 21.8173C110.089 21.9558 110.04 22.1063 110.027 22.2683C109.665 22.0899 109.811 21.4769 109.415 21.3765C108.998 21.2708 109.041 21.5959 108.932 21.9282C108.617 21.4652 108.869 21.0703 109.04 20.6181C108.172 20.4557 107.24 20.2983 106.38 20.587C105.758 20.7955 105.226 21.3083 104.57 21.4075C103.927 21.5044 103.803 21.1995 103.329 20.8902C102.944 20.639 102.614 20.9348 102.416 20.7451C102.538 21.3855 103.588 21.2979 103.458 22.0981C103.4 22.4582 102.959 22.7817 102.758 23.062C102.506 23.4137 102.305 23.8026 102.133 24.1989C101.465 25.7407 101.179 27.5298 100.899 29.1785C100.207 33.248 100.119 37.3979 99.4683 41.4805C99.1582 43.4251 98.8473 45.3709 98.6862 47.3345C98.6459 47.8255 98.3461 48.9392 98.5914 49.4115C98.7988 49.8103 99.2603 49.8114 99.6654 49.9079C100.458 50.0963 101.202 50.3523 101.963 50.6358C102.645 50.8899 102.843 51.0458 103.28 50.4045C103.703 49.784 103.913 49.0443 104.216 48.364C104.601 47.4971 105.067 46.6607 105.515 45.8245C104.636 45.8245 104.13 45.3501 104.153 44.4572C104.179 43.4681 104.992 43.2334 105.327 42.4205C105.654 42.8441 105.681 42.8561 105.914 42.454C106.179 41.9941 106.359 41.1527 106.521 40.6311C106.405 40.7552 106.289 40.8794 106.172 41.0033C105.879 40.5997 106.339 39.9634 106.492 39.5833C106.729 38.9964 106.771 38.3618 106.996 37.7765C107.119 37.4571 107.403 37.2056 107.473 36.8723C107.519 36.6492 107.333 36.437 107.377 36.2105C107.454 35.8162 107.9 35.3932 108.039 34.9921C108.252 34.3753 108.484 33.8322 108.748 33.2312C109.107 32.4178 109.023 31.5642 109.089 30.6985C109.157 29.8009 109.444 28.9421 109.546 28.0484C109.616 27.431 109.397 26.6536 109.864 26.159C109.918 26.9811 109.683 26.9684 110.455 27.1162C111.334 27.2844 111.972 27.9396 112.804 28.135C112.975 28.1754 113.1 27.4267 113.033 28.4479C113.432 28.1535 114.283 28.5191 113.965 28.6938C114.206 28.9513 114.68 28.7731 114.759 29.1589C115.577 28.3637 116.889 31.0702 117.863 29.6585C118.023 30.6153 118.716 31.181 119.646 31.3075C120.114 31.371 120.402 31.5269 120.817 31.6671C120.901 31.6953 120.932 31.8165 121.032 31.8491C121.184 31.8988 121.408 31.7489 121.518 31.778C121.741 31.8374 121.99 32.1314 122.302 32.1898C122.659 32.2569 123.05 32.2261 123.408 32.1846C123.855 32.1327 124.052 32.0797 124.491 32.2272C124.885 32.3599 125.307 32.7316 125.673 32.3269C126.248 33.3214 127.619 33.0783 128.295 32.339ZM101.721 20.3377C102.156 20.2856 101.853 19.9115 101.652 19.7991C101.105 19.494 101.251 20.3941 101.721 20.3377ZM125.808 23.9066C123.255 20.2231 118.888 17.6923 115.045 15.5628C112.946 14.3997 110.804 13.2723 108.6 12.3203C107.504 11.8472 106.396 11.3924 105.277 10.9768C104.68 10.7549 104.075 10.5531 103.47 10.3522C103.303 10.2967 102.998 10.1265 102.823 10.1431C102.853 10.1401 102.388 10.2667 102.479 10.3064C102.18 10.1759 102.037 9.83558 101.685 9.69948C101.288 9.54639 100.784 9.4831 100.359 9.46929C99.9839 9.45697 99.6589 9.61211 99.3012 9.62424C99.0661 9.63209 98.8664 9.52044 98.6362 9.50401C98.5184 9.4958 98.5288 9.67204 98.4579 9.68231C98.4271 9.68679 98.1134 9.56898 98.1104 9.57104C97.9962 9.64441 97.895 9.9308 97.7918 10.0426C97.4957 10.3634 97.061 10.5868 96.6662 10.7556C96.1856 10.961 95.0134 11.1675 95.5566 11.9273C95.1707 11.8719 94.9911 12.2206 95.4743 12.3089C95.7361 12.3569 95.8479 12.1172 96.0422 11.9536C96.4912 11.5765 97.5812 11.0396 98.2279 11.0638C98.5917 11.0775 98.8729 11.3536 99.2084 11.4539C99.5387 11.5524 99.7022 11.3995 99.992 11.4238C100.331 11.452 100.549 11.7386 100.871 11.7895C101.174 11.8373 101.342 11.6312 101.612 11.6456C101.933 11.6626 102.244 11.9415 102.551 12.0352C103.039 12.1842 103.397 12.2858 103.873 12.5328C104.795 13.0116 105.826 13.1935 106.777 13.6057C107.537 13.9352 108.399 14.1087 109.102 14.4731C109.885 14.878 110.67 15.2815 111.436 15.7215C111.99 16.0394 113.115 16.1489 113.725 16.068C113.734 17.1915 114.287 16.4039 114.844 16.896C114.712 17.0123 114.562 17.0978 114.395 17.1525C114.999 17.3937 115.557 17.6939 116.143 17.9712C116.747 18.2579 117.392 18.321 117.79 18.8634C118.156 19.3632 118.032 19.1054 118.578 19.3021C118.828 19.3925 119.046 19.668 119.227 19.8531C119.537 20.1712 119.606 20.6529 119.783 19.9991C119.835 20.0788 120.038 20.5864 120.078 20.5993C120.3 20.3637 120.332 20.643 120.456 20.7428C120.39 20.96 120.484 21.1022 120.736 21.1696C120.863 21.2645 120.992 21.3574 121.123 21.4484C121.596 21.7768 122.199 22.0585 122.533 22.5478C122.778 22.4028 122.87 22.1524 122.72 21.8968C123.19 22.3299 123.75 22.7748 123.877 23.4415C123.936 23.3851 124.004 23.3444 124.081 23.3194C124.272 23.4482 124.024 23.8321 123.903 23.9185C123.375 23.7135 124.034 23.7878 123.68 23.8209C123.579 23.8302 123.475 23.9058 123.364 23.9071C123.037 23.9114 122.73 23.8958 122.406 23.8459C121.691 23.7358 120.989 23.5306 120.297 23.3248C119.543 23.1008 118.789 22.8771 118.053 22.6023C117.446 22.3761 116.849 22.1238 116.253 21.8725C116.014 21.7721 115.776 21.6703 115.538 21.5707C115.085 21.3813 114.846 21.0703 114.909 21.6031C114.548 21.5432 114.235 21.0332 113.958 20.825C113.569 20.5324 113.13 20.3142 112.668 20.1648C112.481 20.1044 112.344 20.0274 112.15 20.0269C112.056 20.0267 111.999 20.294 111.939 20.2795C111.525 20.179 111.714 19.9494 111.527 19.6186C111.12 18.8955 110.022 18.4956 109.348 18.0849C108.92 17.8241 108.616 17.4733 108.221 17.1844C108.036 17.0495 107.902 16.9897 107.708 16.9326C107.56 16.8887 107.378 17.2293 107.282 16.887C107.627 16.7461 107.911 16.5723 108.243 16.4694C108.478 16.3964 108.196 16.1468 108.568 16.2954C108.718 16.3551 108.769 16.6442 108.824 16.7651C109.239 16.3942 110.407 16.7786 110.9 16.9339C110.934 16.9445 111.086 16.8643 111.158 16.8691C111.442 16.8882 111.64 17.2711 111.828 17.4361C112.326 17.8747 112.866 18.058 113.479 18.3083C113.316 17.4169 112.116 17.0517 111.417 16.7102C110.393 16.211 109.441 15.5738 108.321 15.3054C107.575 15.1263 106.586 14.9824 106.264 15.8498C106.071 16.3697 106.047 17.6615 106.699 17.9014C106.768 17.6587 106.548 17.4512 106.481 17.2406C107.131 17.4886 107.238 18.2688 107.731 18.676C108.008 18.9047 108.107 18.978 108.241 19.1991C108.374 19.4186 108.438 19.6234 108.75 19.857C109.26 18.774 109.174 20.2574 109.432 20.4436C109.328 20.3687 109.854 20.5873 109.791 20.5642C109.815 20.5731 110.044 20.2024 110.193 20.2102C110.463 20.2244 110.411 20.5218 110.541 20.6715C110.982 21.1782 111.552 21.5105 112.262 21.4308C112.279 21.7913 112.167 22.222 112.66 22.2549L112.724 21.4556C112.992 21.7267 113.345 21.9842 113.563 22.298C113.811 22.6552 113.785 22.8751 114.196 23.1131C114.626 23.362 115.542 23.8523 116.053 23.8946C115.927 23.715 115.949 23.5528 116.12 23.4083C116.378 23.6738 116.758 23.6999 117.032 23.9396C116.081 24.3371 117.763 24.3166 117.976 24.3616C118.119 24.3918 118.244 24.5219 118.388 24.5512C118.581 24.5903 118.605 24.3883 118.771 24.4523C119.013 24.546 118.915 24.8106 119.168 24.9435C119.35 25.0391 119.658 25.0378 119.863 25.1285C120.352 25.3451 121.394 25.8247 121.724 25.2429C121.892 26.241 123.602 25.6335 124.235 25.5663C125.102 25.4743 126.612 25.0673 125.808 23.9066ZM122.166 13.6947C122.044 13.59 121.921 13.5977 121.798 13.7179C121.969 12.8147 120.646 12.3761 120.069 11.9921C119.304 11.4828 118.403 10.4946 117.401 10.5728C117.572 10.6994 117.742 10.826 117.913 10.9526C117.669 10.9841 117.426 11.0157 117.183 11.0472C117.32 11.2489 117.457 11.4503 117.595 11.6517C117.82 10.4128 118.992 11.977 119.332 12.2049C119.674 12.4344 120.015 12.6054 120.318 12.8852C120.619 13.1625 120.891 13.6617 121.388 13.4123C121.434 14.1199 122.003 13.9279 122.396 14.3198C122.412 14.0739 122.272 13.9001 122.166 13.6947ZM116.97 10.1627C115.759 9.70919 114.705 8.87074 113.564 8.27183C112.474 7.69968 111.363 7.1859 110.255 6.65214C109.693 6.38125 108.663 5.68077 108.021 6.03773C107.154 6.51977 108.347 6.67529 108.657 6.84219C108.772 6.0999 109.174 6.77237 108.934 7.18534C109.595 6.8997 111.038 8.01725 111.669 8.32541C111.812 8.39523 111.748 8.43556 111.91 8.5177C111.95 8.53787 112.364 8.63215 112.483 8.67192C113.077 8.87075 113.468 8.7128 113.724 9.4299C113.778 9.26112 113.831 9.09216 113.885 8.92321C114.257 9.75829 115.387 10.1238 116.11 10.6176C116.296 10.745 116.828 11.2388 117.065 11.1367C117.394 10.9944 117.262 10.2719 116.97 10.1627ZM95.1289 12.6804C94.6178 12.7142 95.1106 12.9526 94.9702 13.1102C94.9861 13.0925 94.6624 13.3686 94.7048 13.2928C94.6476 13.3947 94.5104 13.391 94.4402 13.5982C94.1984 14.3108 95.2542 15.0472 95.6102 15.4515C96.3025 16.2381 96.7026 17.2341 97.424 17.9954C97.7497 18.3393 98.0738 18.5768 98.5255 18.7051C98.8415 18.7949 99.1759 18.6987 99.4664 19.0027C99.7003 19.2474 99.6473 19.3865 99.9059 19.5166C100.361 19.7461 100.562 19.5448 101.005 20.0407C101.387 19.0038 100.291 19.0055 99.719 18.426C98.9297 17.626 98.0647 16.8189 97.3245 15.9631C96.6669 15.2027 96.4035 14.536 96.0913 13.6122C95.993 13.321 95.8858 12.6965 95.6145 12.5137C95.192 12.2292 95.4456 12.6593 95.1289 12.6804ZM92.6153 39.6168C91.2746 38.1172 89.6115 36.7708 87.8088 35.8675C87.1645 35.5446 86.2473 35.1208 85.5795 35.6179C84.9246 36.1052 85.0655 37.0773 85.3295 37.7386C85.5825 37.6393 85.3437 36.7099 85.4749 36.4803C85.7613 35.9792 86.3793 36.2452 86.7997 36.4133C87.2922 36.61 87.7317 36.8273 88.1217 37.1845C88.28 37.3292 88.583 37.4589 88.6844 37.5584C88.8368 37.4952 88.9266 37.5413 88.9534 37.6966C88.9221 37.7918 88.9258 37.8855 88.9648 37.9778C88.987 38.0071 89.1851 37.8868 89.2133 37.9109C89.3418 38.0209 89.462 38.1503 89.5884 38.2524C89.8421 38.4576 90.0579 38.5546 90.2915 38.8407C90.7425 39.3935 91.3392 39.7174 91.7923 40.244C91.8946 40.3632 92.0173 40.6684 92.0402 40.6951C92.2693 40.9624 92.6089 41.174 92.8673 41.457C93.3141 41.946 93.7911 42.2742 94.3065 42.6935C94.5285 42.8738 94.7875 43.0682 94.9351 43.3191C95.0023 43.4335 95.0402 44.0608 95.0427 44.0634C95.5482 44.6176 95.4499 43.5037 95.4118 43.3641C95.0012 41.8614 93.6131 40.7332 92.6153 39.6168ZM95.3748 49.778C95.3119 50.014 95.2602 50.2091 95.1963 50.4486C95.5972 50.1198 95.5972 50.1198 95.3748 49.778ZM95.8077 50.5509C95.955 50.6993 96.1031 50.8468 96.2523 50.9934C96.5803 50.6467 95.7476 50.4915 95.8077 50.5509ZM96.0159 44.5838C96.1727 45.2182 96.7468 45.9871 97.1415 46.4879C97.098 46.4326 97.4783 46.5437 97.5216 46.5689C97.6622 46.6503 97.3256 47.1779 97.8127 46.9421C97.9855 47.0399 97.6452 47.4383 97.8801 47.6166C98.5589 46.0699 96.7054 44.7298 95.9877 43.5816C95.6367 43.9038 95.9278 44.2281 96.0159 44.5838ZM100.425 52.9466C99.9302 53.0739 99.6727 52.9938 99.3385 52.5077C99.1376 52.2157 99.0643 51.6985 98.6048 52.1354L98.5238 51.5736C97.8679 51.8426 97.923 52.8149 97.6364 53.3537C97.497 52.7442 97.1667 51.0413 96.1554 51.3145C95.0201 51.6212 96.9096 53.5737 97.0851 54.052C97.471 53.4531 97.3192 54.0102 97.6136 54.0946C97.8662 54.1672 98.2609 53.9812 98.5678 53.998C99.5017 54.0488 100.322 54.4689 101.175 54.8245C101.391 54.2422 101.607 53.6599 101.823 53.0776C101.321 53.1163 100.282 51.7795 100.135 52.7511C100.507 52.6863 100.612 52.7027 100.794 53.0418C100.678 52.983 100.555 52.9512 100.425 52.9466ZM98.3289 60.5471C98.3304 60.5424 97.3629 60.6022 97.2767 60.5706C96.6146 60.3288 96.8594 59.578 96.724 59.0472C96.4511 59.2981 96.5958 59.7561 96.5116 60.0807C96.4128 60.4623 96.1268 60.7876 96.1003 61.1957C96.04 62.1178 96.7967 61.9131 97.3702 62.2115C97.8603 62.4665 97.9146 62.7873 98.3285 62.1C98.4405 61.9141 98.6814 61.4296 98.6567 61.1918C98.6324 60.9561 98.2592 60.7603 98.3289 60.5471ZM97.5492 64.5371L97.8168 64.2375C97.0196 64.4815 97.4897 64.1146 97.3063 63.613C96.6945 64.0204 96.1955 64.4391 95.7114 63.6235L94.875 66.997C95.4368 67.1292 96.1615 66.2613 96.5469 65.9631C96.7694 65.7908 98.0044 65.1271 97.2628 64.9337C97.3584 64.8015 97.4538 64.6693 97.5492 64.5371ZM92.0895 53.9437C92.5538 54.3852 93.0215 54.6324 93.5271 54.9795C93.9705 55.2842 93.8178 55.6339 94.2022 55.9736C94.4574 56.1995 95.0557 56.4295 95.3711 56.6019C95.9328 56.9088 96.436 56.9672 97.0138 56.6237C96.8566 57.8897 97.7236 57.9888 98.8029 58.2396C99.3176 58.3592 99.6223 58.542 99.9933 58.0706C100.247 57.748 100.347 57.1638 100.031 56.8686C99.5288 56.3997 98.1913 56.5615 97.5472 56.2666C97.0584 56.0429 96.5605 54.7825 95.9575 55.2412C96.2687 54.7456 95.9063 54.6121 95.6358 54.2587C95.3395 53.8713 95.1575 53.4184 94.8509 53.0341C94.2684 52.3038 93.3742 51.5691 92.5469 51.1287C91.819 50.7413 91.4369 51.0156 91.3278 51.8292C91.2729 52.2383 91.275 52.8476 91.5041 53.2106C91.5771 53.3263 91.8181 53.3276 91.8911 53.4363C92.0182 53.6261 91.9015 53.7649 92.0895 53.9437ZM83.5477 44.1249C82.9669 44.5744 83.0235 45.5191 82.932 46.1625C82.803 47.0692 82.8965 47.9467 82.9103 48.8703C82.9249 49.8379 83.3996 50.4682 83.6231 51.3752C83.8714 52.3841 84.192 52.9184 84.7491 53.765C84.1449 53.8601 85.0441 55.6643 85.1923 55.8978C85.3532 56.1514 86.6509 57.3197 86.0946 57.3197C86.4015 57.7245 86.7357 58.1399 87.0415 58.5334C87.1619 58.6884 87.3731 58.7492 87.4679 58.8586C87.6611 59.081 87.6729 59.2793 87.8112 59.5388C88.0213 59.9325 88.0903 59.8274 88.3665 60.113C88.5571 60.3104 88.6822 60.5708 88.8694 60.7599C89.4728 61.3691 89.5497 60.8701 89.8871 60.4009C89.9388 60.5266 90.0307 60.6053 90.1627 60.6373C90.2683 60.1063 89.541 59.5699 89.2352 59.2473C88.7343 58.7186 88.2765 58.1361 87.8336 57.5579C86.8852 56.319 86.033 55.0028 85.3605 53.5929C84.6451 52.0924 84.0736 50.4686 83.7768 48.8316C83.5505 47.584 83.3354 45.4437 85.0026 45.1263C86.2152 44.8955 87.5519 45.6322 88.5515 46.2287C89.1607 46.592 89.7732 46.9533 90.3535 47.362C90.9834 47.8052 91.5278 48.4325 92.2114 48.7881C91.8375 48.5936 93.0714 49.1791 92.8824 49.0144C92.9709 49.0913 92.8946 49.3264 92.953 49.4324C93.0292 49.5704 93.2939 49.7067 93.4126 49.7959C93.7263 50.0315 94.2274 50.2725 94.37 50.6616C96.3594 49.2424 92.4032 46.7227 91.3891 46.0811C89.3774 44.8084 85.8771 42.3216 83.5477 44.1249ZM78.1813 30.322C78.2004 29.3 77.3681 27.9048 76.806 27.0714C76.531 26.6635 76.0917 26.6797 75.9305 26.1986C75.8376 25.9216 75.9595 25.6311 75.9319 25.3529C75.8945 24.9767 75.7313 24.675 75.5432 24.3517C73.8418 21.4286 71.7747 18.8414 69.573 16.2911C68.4874 15.0339 67.4582 13.7284 66.2874 12.5473C65.7982 12.0541 64.4837 10.2809 63.7317 10.4582C63.3335 10.5521 63.1018 11.1598 62.922 11.4699C62.6248 11.9828 62.2979 12.4631 61.9367 12.9347C60.9832 14.1798 59.8834 15.2727 58.5846 16.1552C57.7736 16.7067 56.9542 17.2427 56.1611 17.8205C55.5082 18.296 54.5211 18.8397 54.055 19.5073C53.5886 20.1751 54.2734 20.7406 54.6477 21.2951C55.2295 22.1574 55.7645 23.051 56.3487 23.9124C56.5808 23.7455 56.5208 23.4064 56.6799 23.1927C56.821 23.0032 57.0206 22.9261 57.2155 22.809C57.5891 22.5852 57.9558 22.3115 58.2931 22.6865C58.8836 23.3429 58.0717 24.8946 57.1965 24.7243C57.0934 25.3721 58.8411 26.4391 59.2791 26.7957C60.6233 27.8893 62.0098 28.8402 63.7855 28.9391C64.5041 28.9791 65.2518 28.9246 65.9345 28.6841C66.2616 28.5689 66.6233 28.4108 66.874 28.1597C67.1742 27.8591 67.2507 27.4118 67.542 27.1142C67.7946 26.856 68.1415 26.8162 68.3939 26.5571C68.6467 26.2978 68.7715 25.8882 68.874 25.5523C69.0746 24.8961 69.1125 24.204 69.3051 23.5463C69.4211 23.1507 69.5163 22.6217 69.8943 23.0019C70.4434 23.5541 70.1677 25.2905 70.0271 25.9522C69.826 26.8961 69.3546 27.6571 68.8608 28.4692C68.3253 29.3502 68.1276 30.1674 68.0317 31.1867C67.8521 33.0949 67.3045 34.926 66.4524 36.6429C66.0938 37.3658 65.6642 38.0455 65.277 38.7518C65.0961 39.0813 64.6908 40.2056 64.1988 40.1996C63.4128 40.1899 64.5325 37.8979 64.6878 37.5131C65.5488 35.382 66.3712 33.142 66.5557 30.8344C65.3214 31.1524 63.9761 31.4541 62.698 31.2526C63.523 33.0976 62.6612 34.9344 62.7667 36.8335C62.8194 37.7858 62.8574 38.6644 62.8378 39.6139C62.8205 40.4466 63.1965 41.2789 63.5215 42.0318C64.1671 43.5271 64.9798 45.3716 66.1787 46.517C67.1811 47.4745 68.5219 47.5494 69.8316 47.3289C72.8109 46.8271 74.7684 44.5369 76.0187 41.9359C76.822 40.265 77.4361 38.4813 77.8173 36.6666C78.2586 34.5665 78.1421 32.4522 78.1813 30.322ZM74.3123 16.1685C77.0925 14.1568 73.0525 11.8724 70.996 12.1835C70.5136 12.2563 69.6261 12.4557 69.6712 13.0852C69.7082 13.5997 70.5664 14.1732 70.896 14.4908C71.8356 15.397 72.7918 17.2683 74.3123 16.1685ZM54.0869 60.8663C54.1823 60.7808 54.9604 60.9907 54.6522 60.5303C54.3961 60.1478 53.6859 60.6272 53.4279 60.7256C53.6405 60.8725 53.8255 61.1001 54.0869 60.8663ZM65.6636 85.1962C65.9026 85.2257 66.1524 84.5812 65.291 85.0627C65.4152 85.1072 65.5395 85.1518 65.6636 85.1962ZM65.6883 95.6999C65.6586 95.9887 65.5703 96.1791 65.7755 96.3891C65.9489 96.1754 65.9713 95.8739 65.6883 95.6999ZM65.3386 100.04C65.364 100.197 65.3894 100.354 65.4144 100.511C65.6134 100.411 65.8121 100.31 66.0111 100.209C65.787 100.153 65.5626 100.096 65.3386 100.04ZM65.0952 96.3802C64.7987 96.4911 64.9367 96.1365 64.7214 96.0867C64.6443 96.4558 64.7393 96.7718 64.9512 97.0763C64.9714 97.0043 65.08 96.3856 65.0952 96.3802ZM57.5183 70.1916C57.9343 70.1385 57.9972 70.578 58.3073 70.7485C58.5074 70.8586 59.1168 70.7759 59.2305 70.9867C59.0804 71.03 58.9301 71.0735 58.78 71.1168C59.1237 71.302 59.4674 71.4874 59.8111 71.6726C58.9845 71.6726 58.1231 71.2778 57.302 71.3937C56.9549 71.4428 56.7004 71.56 56.4828 71.8423C56.3506 72.0137 56.2344 72.2895 56.2132 72.4993C56.1902 72.7263 56.3672 72.8831 56.3358 72.9914C55.9658 73.0015 56.0095 73.6084 56.0926 73.8558C56.2727 74.3922 56.9883 75.2321 57.6296 74.892C57.3613 75.2726 57.4297 75.49 57.8264 75.7108C57.7904 75.585 57.7639 75.3649 57.9666 75.3867C58.0187 75.5977 57.9987 75.9322 58.171 76.0913C58.3639 76.2692 58.536 76.0612 58.7205 76.177C58.9391 76.3144 58.8734 76.53 59.0453 76.679C59.2727 76.8758 59.3052 76.736 59.577 76.7742C59.9887 76.8325 59.726 76.5767 60.0557 76.9101C60.1698 77.0252 60.1506 77.3244 60.3354 77.4928C60.6905 77.816 61.6379 78.1528 61.9781 77.7383C62.796 79.0345 65.2475 79.3456 66.3886 78.3223C68.2085 76.6904 64.8151 73.3715 63.6948 72.3197C62.5703 71.2641 61.3213 70.3523 60.0576 69.4722C59.3395 68.9723 58.6027 68.5184 57.8503 68.0729C57.3862 67.7979 56.8033 67.2959 56.233 67.3441C55.7214 67.3874 55.2844 67.7843 54.7457 67.8629C54.3563 67.9197 53.5996 68.0134 54.091 68.5417C54.3208 68.7886 55.2233 69.1877 55.5306 69.2478C55.7111 69.2831 55.9014 69.2155 56.0802 69.2521C56.3831 69.3143 56.591 69.5699 56.9205 69.5374C56.8162 70.0263 57.0066 70.2565 57.5183 70.1916ZM52.1324 52.0392C52.1322 52.4218 52.8304 52.3264 52.9762 52.1964C53.2163 51.9827 53.2247 51.3434 53.3138 51.0527C52.9079 51.1549 52.1328 51.5286 52.1324 52.0392ZM57.7571 39.419C56.2905 38.2136 54.7484 37.1083 53.1181 36.1349C52.5343 35.7863 51.7101 35.0832 50.985 35.171C50.6808 35.208 50.052 35.5573 50.2811 35.9424C50.3239 36.0145 50.6624 36.0434 50.7669 36.0957C50.8855 36.1549 50.9784 36.318 51.0884 36.3987C51.8501 36.9575 52.7653 37.3008 53.5294 37.873C54.1575 38.3429 54.7431 38.8687 55.4192 39.2719C56.0677 39.6586 56.7454 39.9033 57.3611 40.3316C57.349 40.323 58.1621 40.6154 58.0026 40.6686C58.7164 40.4298 57.9625 39.588 57.7571 39.419ZM47.9784 38.97C47.1071 38.6228 46.2547 38.2014 45.3425 37.9681C44.8873 37.8516 44.42 37.764 43.9488 37.8165C43.8687 37.6762 43.7621 37.6453 43.6288 37.7235C43.5248 37.8833 43.3878 38.006 43.2175 38.0916C42.9576 38.2914 42.0008 38.5526 42.192 38.9938C42.3184 39.2856 43.2778 39.3098 43.5411 39.3754C44.3347 39.5731 45.0748 40.0178 45.8923 40.127C45.969 40.1373 46.2196 40.0443 46.2224 40.0448C46.5414 40.1145 46.8069 40.4455 47.081 40.6042C47.671 40.9456 48.5185 41.003 48.9422 41.5924C47.5703 42.5223 46.3801 41.6 45.1741 40.8979C44.4516 40.4774 43.676 40.174 42.8865 39.9044C42.4739 39.7637 42.0576 39.6173 41.6394 39.4937C41.4663 39.4306 41.2884 39.3853 41.1058 39.3574C40.9359 39.3236 40.8144 39.3854 40.741 39.543C40.2355 39.5262 40.1921 39.209 39.8878 39.8006C39.4588 40.6348 40.1152 40.5924 40.7321 40.6949C41.5875 40.8368 42.4575 41.1564 43.3004 41.3683C43.4948 41.4172 45.1995 41.8125 45.2015 41.8265C45.2788 42.3645 40.3863 41.8662 39.9662 41.7856C39.2251 41.643 38.4301 41.238 37.6628 41.3357C37.0736 41.4105 35.7314 42.2749 36.6713 42.8492C36.8563 41.9635 37.4914 42.695 37.823 42.9939C38.2647 43.3917 38.8976 43.3535 39.5034 43.5093C40.332 43.7222 42.453 44.5208 43.0415 43.5026C42.8553 44.395 46.2364 43.9415 46.7013 43.912C47.1544 43.8831 47.7393 43.9794 48.1773 43.8502C48.4629 43.766 48.6218 43.5803 48.8906 43.5385C48.9565 43.6094 49.0355 43.6578 49.1274 43.6833C49.2636 43.6144 49.3867 43.5267 49.4964 43.4205C50.4019 43.0043 51.8029 42.7743 51.2997 41.4486C50.8251 40.1983 49.1294 39.4289 47.9784 38.97ZM39.4915 39.7428C39.4689 39.6649 39.4463 39.5871 39.4239 39.509C39.4211 39.7478 38.8517 39.8497 38.9174 40.1591C39.0632 40.8441 39.7204 39.8148 39.7767 39.7026C39.6815 39.7161 39.5867 39.7293 39.4915 39.7428ZM36.0148 40.8809C35.9489 41.1615 35.1917 41.7589 35.3793 41.8967C35.6779 41.4908 36.503 41.6751 36.0148 40.8809ZM48.7879 66.4842C48.5107 65.9344 47.6726 66.8706 47.7611 65.9319C47.3054 65.9732 47.5899 66.3199 47.0438 66.1675C46.8392 66.1104 46.7009 65.8836 46.4515 65.8313C46.385 65.8173 46.0977 65.8401 45.9985 65.8371C45.6701 65.827 44.3831 65.7904 45.2689 65.3597C44.7731 65.0319 44.712 65.1982 44.2645 65.4986C44.3793 64.8777 43.7209 65.2301 43.4143 65.3076C43.6329 64.9535 43.0904 64.5767 42.9143 64.3374C42.9774 64.7061 42.9442 65.1189 42.4106 64.8831C42.2777 64.8245 42.3076 64.5638 42.2021 64.5213C42.0091 64.4434 41.9011 64.5851 41.8319 64.5771C41.7637 64.5694 41.6202 64.6077 41.477 64.5538C41.2908 64.4837 41.3806 64.2339 41.1447 64.1968C40.991 64.1727 40.8788 64.3986 40.6912 64.4005C40.5948 64.4014 40.4341 64.3036 40.3609 64.3088C40.348 64.3097 40.2564 64.0887 40.1438 64.0833C39.9791 64.0753 39.9121 64.5164 39.852 64.6021C39.5637 65.011 39.1804 65.2776 38.7383 65.4956C39.5381 66.229 41.1516 66.1513 42.1573 66.3985C42.7021 66.5325 43.1667 66.7258 43.6652 66.9748C43.7855 67.053 43.8891 67.149 43.9757 67.2627C44.0463 67.2158 44.117 67.169 44.1876 67.1221C44.4607 67.1389 44.7191 67.0037 45.0266 67.0556C45.9763 67.2158 46.7199 67.9273 47.6851 68.0858C48.1188 68.1572 48.4752 68.2567 48.7577 67.8807C49.0056 67.5509 48.9646 66.8348 48.7879 66.4842ZM50.0901 62.1019C49.8749 62.2839 50.1338 62.8765 49.7171 62.8121C49.4214 62.7663 49.4804 62.3076 49.2481 62.2104C48.9431 62.0829 48.759 62.3855 48.4722 62.3575C47.9377 62.3048 47.9684 61.8381 48.42 61.6331C47.9504 61.5091 47.7999 62.0644 47.3842 62.0593C46.8381 62.0528 46.9684 61.4085 46.5037 61.3017C46.3025 61.2554 46.3697 61.551 46.2392 61.5877C45.9778 61.6611 45.7958 61.5351 45.5647 61.4242C45.3578 61.3251 45.2105 61.1335 44.9844 61.0685C44.8815 61.0388 44.6202 61.0932 44.5447 61.0381C44.3926 60.9272 44.2563 60.4952 44.1066 60.4381C44.1372 60.4496 43.6462 60.6957 43.5758 60.7189C43.6189 60.9013 43.7188 60.9229 43.8756 60.784C43.8756 61.1957 42.7316 61.3239 42.9662 60.8152C42.3475 61.0713 42.8083 61.2031 42.8701 61.5607C42.8947 61.7044 42.9784 61.7005 42.9535 61.8525C42.9422 61.9225 42.6179 61.8622 42.622 61.9576C42.6492 62.572 44.6075 62.7609 44.9784 62.8151C45.7465 62.9273 46.4733 63.116 47.2137 63.3484C47.765 63.5215 48.7153 64.0172 49.3019 63.9864C50.1456 63.9421 50.2555 62.8414 50.0901 62.1019ZM51.9752 55.8323C52.1809 55.1488 51.521 53.737 50.6614 53.9135C50.4501 53.9568 50.398 54.1319 50.2341 54.2096C50.0052 54.3182 49.6329 54.2611 49.4345 54.3733C48.9896 54.6251 49.2138 55.2668 48.768 55.4987C49.4718 55.6693 51.6483 56.9187 51.9752 55.8323ZM51.1606 58.4879C50.8575 58.3249 50.3659 58.304 50.1592 57.9905C50.0562 58.0618 49.8614 58.4948 49.6768 58.4285C49.5905 58.3977 49.5015 58.163 49.5077 58.1632C49.3432 58.1585 49.3105 57.9358 49.059 57.9608C48.8283 57.984 48.5699 58.2614 48.3643 58.3648C48.3996 57.677 48.2234 57.6113 47.6657 57.2432C47.5434 57.1625 47.4413 56.8597 47.3285 56.7372C47.4365 57.459 47.1644 57.4629 46.5881 57.5714C45.8656 57.7073 45.4155 58.0952 45.1259 58.7933C45.7416 58.6732 46.5358 58.8177 46.7785 59.4796C47.2699 58.5818 49.0558 59.8207 49.6337 60.0744C50.0625 60.2628 50.5614 60.5159 50.9209 60.077C51.1741 59.7678 51.029 59.3959 51.0236 59.1213C51.0221 59.0351 50.9331 59.03 50.9413 58.9016C50.9517 58.7377 51.1651 58.6721 51.1606 58.4879ZM44.5871 72.6059C44.7497 72.6675 45.5867 72.702 45.5921 72.4248C45.5966 72.1799 44.115 72.4267 44.5871 72.6059ZM45.9466 71.709C46.5799 72.0994 47.2884 70.7238 47.5212 70.3277C46.857 70.4126 46.5327 69.857 46.1414 69.4347C45.7691 70.2504 45.2038 69.8193 44.6092 69.5469C43.9079 69.2256 43.1395 69.2232 42.4211 68.9653C42.1969 68.8849 41.9902 68.7652 41.7714 68.6732C41.5952 68.6073 41.4195 68.5397 41.2445 68.4704C41.1204 68.3584 41.0761 68.2204 41.1124 68.0569C41.1712 67.9195 41.131 67.8327 40.9919 67.7968C40.8265 67.8461 40.6578 67.8749 40.4852 67.8825C40.2084 67.8276 39.8105 67.5665 40.1447 67.2849C39.7866 66.9597 39.428 67.283 39.0832 67.4255C39.1651 67.1919 39.2467 66.9584 39.3287 66.7248C39.1577 66.7975 38.6499 67.5069 38.5981 67.503C38.2699 67.4783 38.3041 67.0379 38.1155 66.8602C38.0067 66.9944 37.9755 67.9953 37.5476 67.6581C37.3646 67.514 37.7586 67.023 37.8557 66.9111C37.3661 67.0217 36.9388 67.606 36.8064 68.0597C37.0389 68.0933 37.2538 68.0466 37.4511 67.9193C37.5773 68.5511 36.4078 68.2951 36.2185 68.6252C35.8477 69.2713 38.2595 69.7202 38.5737 69.7801C39.2025 69.8999 39.9446 69.9446 40.5209 70.2233C41.0732 70.4901 41.2038 70.5664 41.8491 70.6165C42.5856 70.6736 43.3042 70.9163 44.0166 71.1052C44.6351 71.2692 45.3983 71.3711 45.9466 71.709ZM32.4859 48.5792C31.9044 48.3699 29.9456 47.2839 29.4469 47.7669C29.4996 47.7158 29.0874 48.5675 29.0917 48.5139C29.0562 48.9569 29.067 49.1352 29.6123 49.3475C30.0029 49.4994 30.3431 49.1765 30.6944 49.3047C31.0803 49.4457 30.8104 49.6951 31.009 49.8693C31.2267 50.0603 31.6464 50.1428 31.9173 50.2264C32.5804 50.4312 33.2488 50.6024 33.9087 50.8231C35.2516 51.2721 36.6737 51.6899 38.0537 52.0075C39.085 52.2448 40.8355 52.8346 41.7858 52.138C41.8785 52.534 42.1052 52.4798 42.42 52.5375C42.667 52.5827 43.1135 52.705 43.3331 52.7113C43.6985 52.722 44.7143 52.6262 44.5744 52.1137C44.6129 52.2549 43.7843 51.7717 43.9277 51.7416C43.5758 51.8158 43.6899 51.6386 43.4016 51.54C43.025 51.4114 42.6315 51.4183 42.2471 51.282C41.278 50.9385 40.4651 50.4927 39.4422 50.2774C37.1057 49.7858 34.7401 49.3904 32.4859 48.5792ZM126.15 101.524C126.339 101.529 126.487 100.992 125.911 101.376C125.99 101.425 126.07 101.475 126.15 101.524ZM130.7 100.828C130.957 100.894 131.06 100.75 131.008 100.397C130.649 100.256 130.546 100.399 130.7 100.828ZM134.212 100.108C134.278 99.7931 134.045 99.7222 133.833 99.5808C133.855 99.9979 133.855 99.9979 134.212 100.108ZM143.05 97.5177C143.406 97.4395 143.881 97.0913 143.962 97.6758C144.022 97.5405 144.326 96.9038 144.195 96.7565C144.127 96.6794 143.869 97.036 143.896 97.0007C143.585 96.3704 143.048 97.131 142.747 97.356C142.848 97.41 142.949 97.4639 143.05 97.5177ZM50.4839 27.8626C50.361 27.6028 50.216 27.5202 50.0494 27.6153C50.3112 28.2231 51.1976 28.5527 50.4839 27.8626ZM44.3248 22.1565C44.1053 22.5682 44.4355 22.7422 44.6713 23.0844C44.5333 22.7153 44.4378 22.4595 44.3248 22.1565ZM17.5567 62.3414C16.7648 62.3412 15.0778 61.9232 14.6002 62.8285C14.2841 62.2133 13.9249 63.3669 13.6507 63.5519C13.6199 63.5729 13.4224 63.4218 13.3305 63.4775C13.192 63.5613 13.0725 63.7896 12.9931 63.9253C12.754 64.3346 12.6511 64.8211 12.5186 65.2714C13.9018 65.2714 15.3201 64.9494 16.7022 64.8323C17.6094 64.7554 18.4988 64.7531 19.4072 64.8021C19.5878 64.8118 19.9462 64.7522 20.1006 64.7862C20.2574 64.8207 20.5418 65.1402 20.7147 65.0888C20.446 65.5931 17.0054 66.8139 16.7429 66.2555C17.0539 66.0673 17.7447 65.9228 17.7442 65.468C17.7436 64.9585 17.0961 64.9594 16.753 64.9744C16.0025 65.0072 14.7457 65.257 14.438 66.0374C14.3062 66.372 14.2657 67.2143 14.4105 67.5373C14.5041 67.7459 14.6624 67.9966 14.9133 68.039C15.0162 68.0563 15.1644 67.9195 15.1801 67.9229C15.695 68.0321 16.6481 68.4456 17.2096 67.8625C17.6146 68.3866 19.5652 67.8142 20.1624 67.6165C21.2068 67.2707 22.6449 66.796 23.2793 65.8214C24.0526 64.6337 22.4804 63.6298 21.5777 63.147C20.3439 62.4872 18.9341 62.342 17.5567 62.3414ZM12.2861 65.0877C12.0432 65.1562 11.8005 65.2249 11.5578 65.2934C11.6228 65.7191 12.5806 65.3823 12.2861 65.0877ZM4.94736 80.5604C4.87268 78.8549 5.36574 77.353 5.65044 75.7035C5.72101 75.2947 5.64896 74.5798 5.95961 74.2436C6.25627 73.9221 6.91847 74.1835 6.94479 73.6152C7.23697 73.9574 7.20747 74.0289 7.56761 73.6353C7.50189 73.8041 7.49239 73.9757 7.53905 74.1504C7.76253 74.0224 8.5724 73.5971 8.50426 74.1786C9.1702 74.0313 8.97734 73.6148 9.35727 73.2969C9.41122 73.2517 9.62798 73.412 9.71254 73.3437C9.86526 73.2199 9.94087 73.1075 10.0697 72.9481C10.2334 73.146 10.4563 73.289 10.6565 73.4455C10.7728 73.1921 10.9992 73.0062 11.2714 72.9446C11.017 73.477 10.3878 74.1667 11.2507 74.4697C11.7658 74.6504 12.6095 74.4288 13.155 74.471C15.1769 74.6278 17.3915 74.187 19.3464 73.7053C21.3546 73.2106 23.3855 72.5122 25.1916 71.4913C25.5766 71.2736 25.8191 71.016 26.1506 70.746C26.4729 70.4836 26.7072 70.4421 27.0946 70.2743C27.7919 69.9722 28.4296 69.4877 28.96 68.9478C30.1005 67.7867 31.1602 66.2684 30.8427 64.5685C30.526 62.8742 29.3614 61.5502 28.1152 60.4345C26.6435 59.1168 24.9818 58.0166 23.2182 57.1297C22.4296 56.7333 20.4126 55.2439 19.6335 56.1153C19.1356 56.6721 19.4156 57.3824 20.0959 57.5062C20.2638 57.5368 20.4391 57.4243 20.6088 57.5014C20.8534 57.6126 20.7673 57.7441 20.8683 57.8368C21.0436 57.998 21.2299 58.2493 21.4919 58.3889C22.4061 58.8764 23.2899 59.2626 24.1638 59.8563C24.5667 60.1298 24.9545 60.2475 25.3096 60.4862C25.6628 60.7235 25.7431 61.1163 26.218 60.874C26.0489 61.5648 27.0645 62.3045 27.4626 62.7277C28.0792 63.383 28.8185 64.2194 28.5308 65.1889C27.9676 67.0868 25.4227 68.5283 23.7942 69.3626C21.7618 70.4036 19.5206 71.2324 17.2576 71.5753C16.1326 71.7458 14.9699 71.8511 13.8364 71.9592C12.9539 72.0434 11.5997 71.7352 10.9647 72.5299C10.9451 71.6032 8.05058 71.6849 7.43449 71.5664C8.66966 67.3443 11.095 63.5904 13.6878 60.0832C14.9604 58.3615 16.2101 56.5909 17.6605 55.0125C19.2486 53.2847 21.0628 51.7405 22.7866 50.1506C26.1676 47.0323 29.9915 44.2492 33.8826 41.7975C37.7647 39.3516 41.7852 36.9444 46.0383 35.2005C50.8959 33.2088 56.01 31.8988 61.1298 30.7831C60.4353 29.8982 59.3056 29.4665 58.4164 28.8191C58.1049 28.5924 57.6841 28.0484 57.2798 27.9741C56.8418 27.8934 56.4969 28.3647 56.1852 28.6012C55.2903 29.28 54.6714 28.9918 53.6465 28.9509C53.0332 28.9264 51.5809 29.2679 51.3223 28.4384C50.9784 28.8962 51.4771 29.2632 51.7323 29.5989C51.5465 29.858 51.3968 29.5892 51.2133 29.5487C51.1567 29.5018 51.1003 29.4548 51.0438 29.4079C50.9527 29.2761 50.8705 29.2754 50.7975 29.4053C50.6881 29.57 50.578 29.5336 50.4671 29.2959C50.4366 29.2769 50.4064 29.2576 50.376 29.2386C50.2434 29.168 50.1155 29.0564 49.9923 28.9684C49.0609 28.3029 48.2308 27.7359 47.2027 27.2456C46.3392 26.8341 46.8036 26.0468 46.2343 25.4909C46.1055 25.365 45.8888 25.4281 45.751 25.3215C45.6162 25.2168 45.5958 25.0981 45.4975 24.9859C45.2609 24.7161 45.5424 24.403 44.939 24.7333L45.1567 23.5084C43.9736 24.6562 43.9783 21.3532 43.8166 20.8644C43.8379 20.929 43.7104 20.4288 43.7106 20.4331C43.6759 19.442 43.5405 18.7236 44.7014 18.6661C44.2619 18.3896 44.1275 18.9295 43.9245 18.3705C43.823 18.0905 44.1402 17.6092 43.6346 17.7897C43.528 17.1945 43.6333 16.7129 43.7659 16.1345C43.9018 15.5425 43.8219 15.1474 43.8157 14.5554C43.8088 13.8839 44.1232 13.209 44.2238 12.5477C44.3026 12.0298 44.2214 11.213 44.8909 11.4033C44.985 11.256 44.6543 10.8028 44.6678 10.5788C44.6887 10.2308 45.0664 9.87722 45.1733 9.54303C45.3307 9.70546 45.5525 9.7596 45.7667 9.68623C45.5656 9.23219 45.7543 9.07966 45.9468 8.68816C46.0572 8.46394 45.9905 8.21638 46.2267 8.05571C46.362 7.96348 46.5928 8.11881 46.6988 8.01072C46.9262 7.77922 46.8422 7.4721 46.9986 7.16704C47.1949 6.78451 47.6431 6.49233 47.9519 6.20519C49.6884 4.59122 51.5744 3.35772 53.8841 2.72707C56.2143 2.09081 58.9309 1.86286 61.2532 2.59676C62.1814 2.89005 63.0055 2.86 63.8409 3.40776C64.1118 3.58549 64.141 3.53788 64.2785 3.83417C64.3103 3.90325 64.0219 4.08714 64.1985 4.20009C64.3904 4.32275 64.6023 4.07333 64.7001 3.86628C65.9088 4.74113 67.0413 5.90741 67.7296 7.24471C68.4137 8.57353 68.4764 10.1347 68.7376 11.5788C69.9423 10.2024 71.5718 9.54266 73.3433 10.2043C74.8875 10.7808 76.084 12.0481 76.3861 13.6899C76.5703 14.6908 76.3691 15.7043 75.9145 16.6074C75.7179 16.9976 75.4799 17.4296 75.1184 17.6923C74.8326 17.8999 74.3431 17.8707 74.2085 18.2452C74.0022 18.819 75.1937 20.0581 75.503 20.5603C76.0625 21.4691 76.5825 22.4076 76.9783 23.4003C78.3973 21.3957 79.7557 19.2064 81.3693 17.3581C82.8922 15.6136 84.7076 14.0491 86.4881 12.5746C90.1836 9.51428 94.0261 6.63926 98.1599 4.20121C102.009 1.931 106.658 0.670627 111.144 1.11627C115.527 1.55183 118.883 4.32387 121.707 7.52102C127.136 13.6682 130.462 22.43 130.787 30.613C130.884 33.0712 130.697 35.4973 130.09 37.8816C129.801 39.0169 129.843 40.1335 129.675 41.2834C129.485 42.5805 129.157 43.873 128.84 45.1437C127.631 49.9841 126.092 54.8208 124.364 59.5009C123.466 61.9346 122.379 64.3139 120.909 66.4599C120.23 67.4513 119.351 68.2268 118.62 69.1681C117.911 70.081 117.724 71.2016 117.568 72.3217C117.194 75.0077 116.946 77.7051 116.721 80.4067C116.626 81.5517 116.514 82.6867 116.363 83.8236C116.231 84.815 116.563 84.7663 117.397 85.1029C117.228 84.2121 121.212 84.8182 121.589 84.879C121.998 84.9451 122.432 84.946 122.754 84.9987C123.114 85.0573 123.467 85.1423 123.883 85.1303C124.493 85.1128 125.636 84.9569 125.869 85.7359C126.029 84.8327 127.088 85.8203 126.305 85.6527C127.109 85.7427 127.93 85.5929 128.744 85.6687C129.677 85.7554 130.618 85.8379 131.545 85.9783C132.19 86.0759 132.805 86.3244 133.452 86.3965C134.278 86.4889 135.141 86.4803 135.976 86.5539C139.056 86.8255 142.248 87.4972 145.241 88.2664C145.919 88.4406 146.698 88.5644 147.346 88.844C147.52 88.9187 147.676 89.086 147.842 89.1502C148.12 89.2578 148.082 89.1835 148.33 89.2327C149.812 89.529 151.341 90.0129 152.823 90.3927C153.645 90.6035 154.982 90.7935 155.652 91.3672C155.953 91.6241 156.216 92.0798 155.734 92.3718C155.349 92.605 154.8 92.2327 154.489 92.0315C154.766 92.7545 155.289 93.1149 155.007 93.9375C154.784 94.5875 154.28 95.3886 153.505 94.9693C153.401 95.2107 153.359 95.6909 153.054 95.7796C152.779 95.8593 152.58 95.5113 152.311 95.5932C152.215 95.6226 152.251 95.8046 152.165 95.8522C152.016 95.934 151.866 95.9687 151.696 96.0264C151.549 96.076 151.314 96.178 151.161 96.1888C151.064 96.1957 150.836 96.0299 150.836 96.0299C150.614 96.0637 150.494 96.4896 150.334 96.6126C150.126 96.7724 149.954 96.8088 149.694 96.8667C149.152 96.9869 148.455 97.193 148.097 96.6387C148.179 97.0345 147.641 96.9957 147.403 97.0459C147.43 96.8374 147.545 96.6464 147.723 96.5319C147.192 96.567 147.407 97.0948 147.014 97.2343C146.735 97.3334 146.766 97.0814 146.552 97.0534C146.271 97.0166 146.057 97.2212 145.616 97.0325C145.521 97.4565 145.486 97.884 144.965 97.9473C144.66 97.9844 143.947 97.4326 143.987 97.8918C143.305 97.6917 143.046 97.827 142.689 98.4288C142.629 98.0593 142.337 98.1665 142.069 98.1437C141.645 98.1075 141.634 98.1416 141.305 97.9014C141.275 97.8795 141.016 97.2867 140.901 97.6551C140.849 97.8201 141.191 98.2085 141.318 98.3072C141.161 98.3868 140.645 98.6651 140.447 98.614C140.276 98.5697 140.275 98.2768 140.07 98.2617C140.12 98.4301 140.17 98.5986 140.221 98.767C139.82 98.8253 139.485 98.5572 139.169 98.3608C138.867 99.1236 138.005 98.6939 137.536 99.268C137.288 99.5717 137.276 99.8025 136.803 99.8818C136.32 99.963 135.897 99.7507 135.486 100.15C135.616 99.9022 135.941 99.6968 135.619 99.4307C135.399 99.7423 135.286 100.118 135.032 100.407C134.998 100.26 134.963 100.113 134.928 99.9653C134.268 100.671 133.437 100.677 132.592 101.069V100.552C131.986 101.476 131.954 100.891 131.231 100.514C131.28 100.786 131.329 101.057 131.379 101.329C130.858 101.289 130.372 101.906 129.945 101.382C129.687 101.815 129.374 101.602 128.951 101.739C128.711 101.818 128.532 102.054 128.298 102.14C127.947 102.269 127.842 102.263 127.512 102.374C127.218 102.474 127.051 102.667 126.684 102.729C126.445 102.769 126.229 102.766 126 102.755C125.912 102.751 125.941 102.552 125.745 102.599C125.441 102.671 125.215 103.051 124.997 103.246C124.668 102.42 123.748 103.527 123.304 103.674C123.261 103.462 123.269 103.207 123.115 103.033C122.935 103.427 122.867 103.759 122.493 104.013C122.278 104.159 121.961 104.264 121.712 104.318C121.554 104.351 121.268 104.311 121.169 104.359C121.001 104.442 120.939 104.663 120.768 104.684C120.668 104.696 120.519 104.432 120.444 104.453C120.101 104.546 119.91 104.964 119.563 105.189C118.531 105.861 117.232 105.926 116.082 106.073C115.793 106.11 115.751 106.031 115.517 106.201C115.392 106.291 115.448 106.566 115.295 106.644C114.715 106.934 114.715 106.314 114.593 105.929C114.401 106.182 114.368 106.516 114.106 106.717C113.963 106.713 113.819 106.716 113.676 106.727C113.596 106.819 113.543 106.925 113.518 107.046C113.171 107.28 112.777 107.199 112.419 107.375C112.301 107.432 112.093 107.781 111.948 107.881C111.689 108.061 111.288 108.157 110.991 108.235C110.37 108.399 109.479 108.181 109.109 108.83C108.619 108.304 108.808 108.932 108.475 109.064C108.278 109.142 107.982 108.832 107.764 108.863C107.371 108.918 107.23 109.344 107.104 109.653C106.865 109.6 107.029 108.923 107.036 108.774C106.738 108.739 106.672 109.522 106.621 109.694C106.151 109.468 106.922 108.765 106.417 108.539C106.463 109.139 105.986 109.632 106.839 109.718C106.721 110.079 103.969 110.48 103.778 110.161C103.736 110.751 103.34 110.2 103.194 109.999C103.177 110.342 103.294 110.83 102.909 110.99C102.647 111.098 102.055 110.818 101.953 110.561C101.835 110.953 101.638 110.941 101.394 111.19C101.226 111.361 101.115 111.658 100.939 111.801C100.615 112.065 100.011 112.025 99.6335 111.966C98.8942 111.85 98.9816 111.709 98.7181 112.477C98.6586 112.186 98.4719 111.576 98.1463 112.029C97.9391 112.317 98.3802 112.952 98.5077 113.205C98.2228 113.049 97.94 112.863 97.6159 112.796C97.5978 112.896 97.5812 113.107 97.629 113.2C97.6192 113.181 97.2735 113.413 97.1452 113.477C97.176 113.462 97.0438 112.885 97.0476 112.903C96.5915 113.185 96.9079 113.723 96.5039 114.001C96.3996 114.073 96.1546 113.989 96.0284 114.033C95.8087 114.109 95.6186 114.315 95.4233 114.435C95.5792 114.226 95.5568 113.875 95.5462 113.634C95.4469 113.688 95.3759 113.894 95.2757 113.91C95.2378 113.916 94.8448 113.968 94.8474 113.966C94.4383 114.253 94.5225 114.289 94.8737 114.633C94.7483 114.83 94.2238 114.488 94.0819 114.431C94.0523 114.508 94.0446 114.788 93.9888 114.838C93.955 114.921 93.921 115.004 93.887 115.087C93.7823 115.009 93.6699 114.983 93.55 115.009C93.4743 115.035 92.8826 115.276 92.8425 115.193C92.9719 115.151 93.0893 115.087 93.1942 115.001C92.8527 114.694 92.6281 114.531 92.3136 114.974C92.274 115.03 92.4101 115.23 92.3698 115.303C92.2195 115.574 91.9107 115.79 91.701 116.011C91.6142 115.706 91.8162 114.942 91.3342 114.97C90.949 114.992 90.6561 115.925 90.7894 116.215C90.6363 116.048 89.7222 115.882 89.5497 115.934C89.0619 116.082 89.1988 116.533 88.5985 115.872C88.1893 116.154 88.55 116.261 88.4762 116.606C88.3681 116.628 88.2658 116.601 88.1689 116.525C88.2414 117.989 87.1617 116.871 86.4607 117.094C86.1855 117.182 86.1151 117.494 85.8198 117.586C85.6635 117.634 85.4897 117.52 85.3377 117.547C85.216 117.53 85.095 117.509 84.9748 117.483C84.8224 117.407 84.7509 117.492 84.7603 117.739C84.5153 117.866 84.6079 117.916 84.3215 117.94C84.1371 117.956 83.9674 117.765 83.7577 117.797C83.3961 117.854 83.4439 118.132 83.2128 118.277C83.0048 118.407 82.7703 118.403 82.5142 118.378C82.3837 118.365 82.0172 118.197 81.9731 118.196C81.6994 118.192 81.8478 118.134 81.5193 118.369C81.2635 118.553 81.1561 118.671 80.8421 118.756C80.482 118.852 79.8431 119.063 79.6008 118.803C79.2735 119.294 79.0172 118.934 78.5852 118.966C78.3641 118.983 78.329 119.069 78.1322 119.103C77.8134 119.159 77.4155 119.111 77.0763 119.22C76.5418 119.391 76.4815 119.478 75.9352 119.501C75.8366 119.462 75.7381 119.424 75.6397 119.385C75.6102 119.55 75.5327 119.684 75.4071 119.788C75.1014 119.852 74.9007 119.698 74.6487 119.529C74.4609 120.114 73.8515 120.165 73.3303 120.242C72.4892 120.366 71.6849 120.434 70.8739 120.71C70.1889 120.944 69.5026 121.206 68.8438 121.505C68.2639 121.768 67.7167 122.161 67.0607 121.976C65.5742 121.558 64.1337 120.032 62.8901 119.156C61.4171 118.118 59.8285 117.263 58.2894 116.33C52.1621 112.616 45.6888 109.474 39.6474 105.622C36.349 103.519 33.2885 101.02 29.7464 99.3184C30.2506 101.402 31.1091 103.517 30.9539 105.699C30.8916 106.578 30.6326 107.617 29.9508 108.23C29.1079 108.989 28.169 108.506 27.3629 107.964C25.6354 106.802 24.4835 105.108 23.1906 103.516C21.6614 101.634 20.4753 99.6109 19.3523 97.4652C19.0833 97.8429 19.2879 98.4756 19.284 98.8944C19.2788 99.4287 19.1347 99.9436 18.8869 100.421C18.2473 101.652 17.03 101.95 15.9302 101.107C13.8135 99.4834 12.585 96.5924 11.4509 94.2644C10.804 95.4678 9.8858 96.9826 8.33231 96.1231C7.05046 95.4138 6.29733 93.829 5.90527 92.4866C4.76047 88.5683 5.12321 84.577 4.94736 80.5604Z" fill="#222B28"/>
<path fill-rule="evenodd" clip-rule="evenodd" d="M6.89139 57.0243C7.03757 56.6692 7.1018 56.7272 6.83296 56.383C6.62349 56.5893 6.79114 56.7597 6.89139 57.0243ZM0.413094 78.5153C0.824194 77.3466 0.570282 76.0774 0.819893 74.8786C0.934523 74.3286 1.11543 73.7951 1.18059 73.2352C1.20953 72.9867 1.43076 71.8682 1.2801 71.6921C1.74385 71.4114 1.74534 71.2036 1.8525 70.653C1.68728 70.4777 1.70801 70.3281 1.91487 70.204C2.05003 70.0404 2.18538 69.8767 2.32073 69.7132C1.7291 70.0024 2.07915 69.2621 2.13945 68.8355C2.18724 68.4984 2.21936 68.1466 2.33175 67.8234C2.47009 67.4262 2.77776 67.2253 2.13777 67.2253C2.34837 66.9858 2.66332 66.7386 2.76825 66.4453C2.91909 66.0232 2.67023 65.4653 2.9779 65.0925C3.14947 64.8845 4.03385 64.8031 3.8787 64.3539C3.79973 64.125 3.44128 64.2959 3.33038 64.1355C2.89445 63.5052 4.18152 63.244 4.24462 62.9759C4.32639 62.6283 3.86153 62.5506 3.83297 62.2256C3.80515 61.9075 4.29971 61.3847 4.43039 61.1002C4.6085 61.1435 4.80378 61.4252 5.00765 61.2906C5.04629 61.2652 4.98823 60.1639 5.03453 60.0177C5.08008 59.874 5.17325 59.4928 5.20648 59.4222C5.33847 59.142 5.71615 59.0055 5.77608 58.6745C5.81192 58.4769 5.03789 58.1779 5.92562 58.1685C5.60675 57.6066 6.19092 57.2651 6.40356 56.7849C6.67688 56.1675 6.838 55.5007 7.11879 54.8801C7.39174 54.2769 7.69699 53.7045 8.09054 53.1711C8.44675 52.6881 8.60077 52.2236 8.88548 51.7136C8.94242 51.6688 8.99936 51.624 9.0563 51.5791C9.29378 51.6135 9.36995 51.5054 9.28482 51.2547C9.46647 50.9856 9.60146 50.6985 9.76164 50.4175C9.94777 50.091 10.1989 49.8248 10.3912 49.5072C10.6464 49.0862 10.7218 48.6114 11.0103 48.1891C11.3648 47.6696 11.7636 47.2114 12.0923 46.6724C12.5042 45.9972 12.9603 45.5775 13.4785 45.0545C13.7252 44.8055 13.7549 44.1834 14.0571 43.8298C14.3863 43.4447 14.7113 43.3403 14.9394 42.8347C15.2363 42.177 15.6718 41.863 16.0958 41.2945C16.4457 40.8255 16.6165 40.2865 17.0018 39.8329C17.3332 39.4432 17.7094 39.0872 18.0632 38.7177C18.5098 38.2512 18.8395 37.6842 19.3044 37.2406C19.2373 37.3046 19.7089 36.9309 19.6852 36.9428C19.7896 36.8896 20.1264 36.8469 20.0773 36.8758C20.7789 36.4634 21.658 34.954 22.7138 35.7538C23.2692 36.1744 23.0028 36.9458 22.615 37.3648C22.4485 37.5447 21.5832 38.4319 21.3963 38.0578C21.1945 38.3438 20.5729 39.7265 20.056 39.3303C20.1086 39.8028 19.8349 39.646 19.6542 39.9654C19.5353 40.1762 19.5932 40.2796 19.5065 40.6086C19.2681 41.5129 18.3586 42.3962 17.8741 43.1848C16.6682 45.1475 15.338 47.009 14.131 48.974C12.9808 50.8467 11.6926 52.6237 10.5891 54.5216C9.33392 56.6798 7.77017 58.717 6.82456 61.0436C6.79263 61.1219 6.52995 61.2456 6.4648 61.3631C6.3511 61.5671 6.37556 61.92 6.30237 62.1511C6.04866 62.9524 5.63736 63.7412 5.16876 64.4049C4.75766 64.9872 4.72779 65.7786 4.44494 66.4617C4.04597 67.4245 3.62461 68.3772 3.23703 69.3448C2.63382 70.8509 2.22515 72.2944 1.80826 73.8668C1.53811 74.8857 1.32323 75.9042 1.23716 76.9564C1.158 77.924 1.13858 78.932 0.7805 79.8481C0.536303 79.471 0.248615 78.9824 0.413094 78.5153Z" fill="#222B28"/>
<path fill-rule="evenodd" clip-rule="evenodd" d="M138.406 99.2498C138.84 99.1622 139.248 99.0453 139.339 98.5476C139.402 98.7823 139.465 99.017 139.528 99.2516C139 99.3711 138.472 99.4908 137.944 99.6103C138.068 99.3932 138.158 99.3 138.406 99.2498Z" fill="#222B28"/>
<path fill-rule="evenodd" clip-rule="evenodd" d="M137.243 17.5632C137.21 17.4228 137.167 17.2852 137.115 17.1509C137.079 17.2818 136.905 17.5648 137.006 17.6882C137.136 17.8449 137.267 17.7562 137.243 17.5632ZM135.118 13.5197C134.975 13.5825 134.668 13.5946 134.491 13.6476C134.949 14.0417 135.03 13.9258 135.622 13.88C135.648 13.4813 135.486 13.3575 135.118 13.5197ZM139.089 23.3918C139.027 23.3934 138.966 23.3949 138.904 23.3964C138.9 23.2228 138.905 23.0494 138.918 22.8761C138.293 23.0126 138.647 21.921 138.843 21.6947C138.234 21.7151 137.937 19.7858 137.744 19.4141C137.572 19.084 137.378 18.9563 137.253 18.5538C137.143 18.2015 137.025 17.8845 136.867 17.5512C136.503 16.785 136.027 16.0892 136.115 15.1962C135.807 15.8663 135.536 15.1974 135.341 14.877C135.026 14.3608 134.259 13.7021 134.177 13.089C134.105 12.5493 134.506 12.5207 134.269 12.0202C134.03 11.5135 133.833 11.5643 133.414 11.4022C133.135 11.2943 133.08 11.4254 132.883 11.0733C132.755 10.8453 132.8 10.6754 132.637 10.4886C132.569 10.5472 132.493 10.5714 132.407 10.5614C132.274 10.3864 132.187 10.1915 132.146 9.97663C132.038 9.68651 131.986 9.4201 131.823 9.14379C131.668 8.88204 131.394 8.18175 131.249 8.05553C131.095 7.92148 130.22 7.98962 130.224 7.99448C129.863 7.54006 130.526 7.08733 129.608 7.1831C129.789 6.84556 129.152 6.42661 128.967 6.2388C128.506 5.77001 128.469 5.55307 128.371 4.96349C128.322 4.66291 128.645 4.69763 128.212 4.62912C128.033 4.60093 127.861 4.82981 127.732 4.79621C127.162 4.64835 127.758 4.67654 127.601 4.4441C127.551 4.37036 127.298 4.07277 127.3 4.07594C127.312 4.09088 127.243 3.81699 127.185 3.74661C127.076 3.73728 126.969 3.71823 126.864 3.68948C126.81 3.5812 126.763 3.4703 126.721 3.35679C126.309 3.01253 125.691 2.8585 125.406 2.48026C125.221 2.23569 125.276 1.99616 125.038 1.75234C124.81 1.52009 124.51 1.6883 124.465 1.16369C124.408 0.496256 125.124 0.199225 125.418 0.872819C126.213 -0.106768 129.537 3.48729 129.921 3.95683C131.59 5.99516 133.229 8.0839 134.597 10.3379C135.931 12.5342 137.025 14.8451 137.88 17.2674C138.292 18.4354 138.544 19.5981 138.795 20.8062C138.88 21.2108 139.512 23.0137 139.249 23.4172C139.196 23.4088 139.142 23.4002 139.089 23.3918Z" fill="#222B28"/>
<path fill-rule="evenodd" clip-rule="evenodd" d="M7.78561 73.3773C7.50464 73.1899 7.50464 73.1899 7.45535 72.8357C7.8321 72.9044 7.8321 72.9044 7.78561 73.3773Z" fill="#222B28"/>
<path fill-rule="evenodd" clip-rule="evenodd" d="M146.282 97.2047C146.279 97.2043 146.276 97.2053 146.274 97.2074C146.28 97.1995 146.302 97.1761 146.282 97.2047Z" fill="#222B28"/>
<path fill-rule="evenodd" clip-rule="evenodd" d="M146.471 97.3941C146.384 97.5817 146.245 97.6284 146.053 97.5338C145.977 97.642 146.71 96.8581 146.471 97.3941Z" fill="#222B28"/>
<path fill-rule="evenodd" clip-rule="evenodd" d="M133.79 11.7583C134.23 12.621 133.679 11.9935 133.707 12.2738C133.688 12.0897 133.612 11.8274 133.79 11.7583Z" fill="#222B28"/>
<path fill-rule="evenodd" clip-rule="evenodd" d="M62.2498 25.1111C62.0592 26.6581 59.9428 25.9264 59.4668 24.9907C59.1201 24.3095 58.2447 21.6175 59.1866 21.0488C59.8848 20.6273 60.034 22.4442 60.2061 22.8501C60.4945 23.5298 60.7199 23.0482 61.3612 23.2225C62.0689 23.415 62.3286 24.4697 62.2498 25.1111Z" fill="#222B28"/>
<path fill-rule="evenodd" clip-rule="evenodd" d="M64.5623 22.2794C63.8058 22.4474 63.0643 22.3608 62.527 21.7633C62.2294 21.4325 61.8334 20.7763 62.3692 20.4561C62.8548 20.1662 63.4054 20.8452 63.9167 20.7048C64.6122 20.5138 64.2541 19.7681 64.4927 19.2756C65.3694 19.7805 65.8585 21.9915 64.5623 22.2794Z" fill="#222B28"/>
<path fill-rule="evenodd" clip-rule="evenodd" d="M63.7778 26.1855C64.507 26.1841 64.513 27.0809 64.1323 27.4653C63.7681 27.8331 62.8469 28.2054 62.3531 27.9194C61.379 27.3548 63.1877 26.2438 63.7778 26.1855Z" fill="#222B28"/>
<path fill-rule="evenodd" clip-rule="evenodd" d="M106.208 61.8512C106.052 61.9268 105.593 62.3159 105.4 62.1402C105.673 61.8652 105.946 61.5902 106.219 61.3152C106.37 61.4806 106.473 61.7224 106.208 61.8512Z" fill="#222B28"/>
<path fill-rule="evenodd" clip-rule="evenodd" d="M109.654 22.5032C109.731 22.561 109.809 22.6187 109.887 22.6764C109.625 22.8943 109.632 22.9591 109.368 22.7528C109.446 22.6497 109.541 22.5667 109.654 22.5032Z" fill="#222B28"/>
<path fill-rule="evenodd" clip-rule="evenodd" d="M60.2303 73.8284C60.3769 73.5652 60.6538 74.0506 60.841 74.1296C61.1457 74.2578 61.3957 73.5782 61.3083 74.3928C61.997 74.0775 62.415 74.8009 62.8592 75.1777C63.4867 75.7101 64.2542 75.9989 64.6727 76.755C62.7025 77.216 60.5378 75.5174 59.0687 74.4018C58.829 74.2195 57.6308 73.3004 58.4429 73.2116C58.775 73.1754 59.9839 74.2709 60.2303 73.8284Z" fill="#222B28"/>
<path fill-rule="evenodd" clip-rule="evenodd" d="M60.8147 72.2336C60.4286 71.9296 61.2611 71.9018 61.3927 71.8699C61.3813 72.1116 61.3703 72.3532 61.3589 72.595C61.1726 72.482 60.9911 72.3614 60.8147 72.2336Z" fill="#222B28"/>
<path fill-rule="evenodd" clip-rule="evenodd" d="M62.2644 73.2474C62.149 73.1753 61.8273 72.9504 62.0461 72.7827C62.2438 72.9085 62.3851 73.1139 62.4161 73.3482C62.3655 73.3146 62.315 73.281 62.2644 73.2474Z" fill="#222B28"/>
<path fill-rule="evenodd" clip-rule="evenodd" d="M94.1729 53.6431C94.4195 53.7398 94.5301 53.8927 94.5041 54.1021C94.1251 54.0247 94.1974 53.6668 94.1729 53.6431Z" fill="#222B28"/>
</svg>
