<svg width="156" height="123" viewBox="0 0 156 123" fill="none" xmlns="http://www.w3.org/2000/svg">
<path fill-rule="evenodd" clip-rule="evenodd" d="M39.2443 68.0892C40.1304 74.734 41.0162 81.3789 41.9023 88.0237L42.6177 93.3897C42.7081 94.0668 42.6228 95.4024 42.9668 96.0086C43.0884 96.2224 43.4078 96.324 43.6427 96.45C44.4511 96.8841 45.2596 97.3181 46.068 97.7522C52.9066 101.424 59.7453 105.095 66.5835 108.767C73.1466 112.29 79.7097 115.814 86.2725 119.337C86.9517 119.702 88.0503 120.654 88.7834 120.403C89.4803 120.165 90.1926 119.577 90.8253 119.206C92.0399 118.495 93.2544 117.783 94.469 117.071C101.818 112.764 109.168 108.457 116.517 104.15C119.549 102.373 122.581 100.596 125.614 98.8186C126.443 98.3324 127.273 97.8463 128.103 97.3599C128.537 97.1057 128.593 97.1146 128.764 96.683C129.402 95.0694 129.698 93.2209 130.15 91.5466C130.648 89.7015 131.146 87.8564 131.644 86.0113C131.866 85.188 131.761 85.0818 131.399 84.287C130.683 82.7139 129.966 81.141 129.25 79.5681C127.659 76.0769 126.069 72.5857 124.478 69.0946C123.835 67.6828 122.286 66.6894 121.171 65.651L103.853 49.5282C103.414 49.1186 102.974 48.7092 102.534 48.2996C102.461 50.7609 101.975 53.407 102.688 55.7847C103.859 59.6868 105.03 63.5889 106.2 67.491C106.766 69.3772 107.332 71.2632 107.898 73.1492C108.003 73.4996 108.643 74.8892 108.472 75.1974C108.377 75.3682 107.569 75.5411 107.394 75.6076C106.641 75.8938 105.889 76.18 105.137 76.4662C103.041 77.2636 100.945 78.0609 98.8492 78.8581C96.9642 79.5754 95.0791 80.2925 93.1941 81.0096C92.5548 81.2529 91.8041 81.7032 91.129 81.6656C90.5251 81.632 89.8384 81.3331 89.2541 81.1827C88.2267 80.9181 87.1991 80.6534 86.1717 80.3886C84.1536 79.8689 82.1352 79.3491 80.117 78.8292C77.8465 78.2443 75.9289 76.5265 73.9871 75.2551C70.6494 73.0697 67.3116 70.8842 63.9741 68.6989C63.21 68.1986 63.2072 67.9131 62.9027 66.9996C62.2184 64.9468 61.534 62.8939 60.8498 60.841C60.4844 59.7449 60.035 58.6441 59.7591 57.5219C59.3039 55.6699 59.034 53.7527 58.6735 51.8802C58.5648 51.3152 58.456 50.7501 58.3473 50.1852C56.9495 50.7524 55.5517 51.3197 54.1538 51.8871C53.9512 51.9692 52.964 52.2144 52.8762 52.4158C52.8206 52.5431 53.1142 53.1209 53.1563 53.2451C54.3153 56.6779 55.4743 60.1104 56.6334 63.543C56.9981 64.6228 57.3625 65.7025 57.7271 66.7823C56.856 65.4133 55.9847 64.0441 55.1134 62.6751C54.429 64.9776 53.7443 67.2803 53.0597 69.5828C51.4418 67.7158 49.8238 65.8489 48.2057 63.9819C47.6456 65.8489 47.0855 67.7158 46.5254 69.5828C44.783 67.2803 43.0406 64.9776 41.298 62.6751C41.0909 63.8766 40.8837 65.0782 40.6765 66.2798C40.6139 66.6425 40.6264 67.683 40.385 67.9701C40.1862 68.2064 39.6138 68.0892 39.2443 68.0892Z" fill="#189A46"/>
<path fill-rule="evenodd" clip-rule="evenodd" d="M149.569 82.4527C149.471 85.5806 149.539 89.641 147.827 92.3912C147.55 92.835 146.615 94.2177 146.51 93.0014C146.408 91.8073 146.701 90.6247 146.41 89.4168C146.255 88.7705 145.731 87.3587 144.836 87.9425C144.38 88.2401 144.259 88.9747 144.081 89.4385C143.817 90.1246 143.521 90.7999 143.243 91.4807C142.272 93.8576 141.266 96.694 139.108 98.2669C139.391 96.2174 140.161 94.0289 139.643 91.9572C139.467 91.2511 138.933 89.9618 138.013 90.3755C137.116 90.7786 136.535 92.5772 136.112 93.3781C134.829 95.8064 133.518 98.189 132.073 100.527C131.347 101.702 130.563 102.777 129.612 103.783C129.018 104.412 128.277 105.475 127.34 105.569C127.34 103.776 127.93 102.044 128.469 100.356C129.048 98.5402 129.576 96.7093 130.145 94.8905C130.638 93.3128 131.043 91.7471 131.371 90.1293C131.508 89.4601 131.615 88.7673 132.185 88.3351C132.698 87.9468 133.508 87.762 134.08 87.4765C135.581 86.7266 137.124 85.9174 138.519 84.9853C139.091 84.6025 139.584 84.1082 140.184 83.7648C140.867 83.3737 141.505 83.0446 142.137 82.5679C144.864 80.5111 147.322 77.981 148.978 74.9693C149.247 76.1792 149.603 77.3616 149.643 78.6089C149.683 79.8877 149.609 81.1746 149.569 82.4527ZM127.126 96.8299C126.69 96.0934 126.026 96.3951 125.44 96.7502C124.532 97.3011 123.621 97.8481 122.708 98.3922C120.85 99.4993 119.026 100.664 117.21 101.84C113.515 104.232 109.69 106.19 105.794 108.215C102.028 110.171 98.4117 112.5 94.8835 114.854C94.0355 115.419 93.1935 115.998 92.3794 116.612C91.6567 117.156 91.0787 117.921 90.3179 118.406C89.5256 118.911 88.981 118.501 88.2232 118.129C87.2755 117.663 86.2879 117.273 85.3191 116.853C81.4099 115.158 77.4895 113.399 73.6867 111.476C69.9069 109.564 66.3256 107.361 62.7039 105.173C60.979 104.131 59.2836 103.023 57.5823 101.943C55.7717 100.793 53.8971 99.9322 51.9979 98.9549C51.1575 98.5223 50.4132 97.9351 49.5501 97.542C48.6428 97.1288 47.6843 96.8323 46.8718 96.2362C46.5075 95.9689 46.2002 95.6494 45.7839 95.4603C45.4421 95.3052 45.0541 95.279 44.7166 95.1142C44.0299 94.7789 43.8333 94.0984 43.7004 93.3906C42.8451 88.847 42.3905 84.1776 41.8949 79.5834C41.6163 76.9999 41.3055 74.4265 40.9205 71.8567C40.7469 70.6981 41.096 69.8004 41.2793 68.6734C41.4933 67.357 41.5779 66.013 41.7212 64.6876C42.3978 65.9411 42.9829 67.2565 43.8438 68.4004C44.4784 69.2433 45.5623 70.4387 46.7308 70.4106C48.547 70.3667 48.4639 67.2517 48.5371 66.0152C49.3643 66.7536 49.6153 67.9565 50.3019 68.8141C50.9288 69.5971 51.782 70.5687 52.7448 70.9193C54.772 71.6577 54.5769 67.8948 54.4654 66.8277C54.4094 66.2924 54.1071 65.4456 54.8242 65.6896C55.4846 65.9144 56.1272 66.8462 56.6822 67.2735C57.6416 68.0125 58.694 68.6265 59.6783 69.3318C60.8995 70.2071 62.2172 70.8396 63.4622 71.6547C64.2409 72.1646 65.0904 72.279 65.9393 72.6539C67.183 73.2033 68.2817 74.0222 69.4656 74.6808C71.8099 75.9845 74.4106 77.1536 76.9748 77.9396C77.8045 78.1939 78.9101 78.9108 79.5394 78.1741C79.927 77.7208 80.1817 77.0283 80.5106 76.5201C80.9268 75.8768 81.3687 75.2504 81.8276 74.6368C83.4589 72.456 85.2693 70.3967 87.2798 68.5574C89.6189 66.4177 92.1766 64.4921 94.9124 62.8884C96.0879 62.1993 100.996 59.1109 102.075 61.2845C101.188 61.2293 100.42 61.5536 99.6618 61.9596C99.4768 62.0588 98.5226 62.7402 98.7458 62.1396C98.4686 62.1915 98.2255 62.5529 98.0157 62.7137C97.6529 62.9915 97.1027 63.3122 96.6827 63.5422C96.2675 63.7694 95.7544 63.8251 95.376 64.1006C95.2379 64.2013 95.154 64.3644 95.0222 64.4733L94.6443 64.4763C94.5878 64.6856 94.5312 64.8947 94.4746 65.1039C94.2611 64.4193 93.9564 65.3097 93.5996 65.5989C93.3851 65.7727 93.0455 65.9517 92.7929 66.0639C92.6041 66.1478 92.575 65.9528 92.3917 66.1011C92.2289 66.2327 92.1251 66.5226 91.95 66.6877C91.7351 66.8897 91.4601 67.0467 91.2206 67.2192C90.7617 67.5496 90.2762 67.8092 89.8114 68.1224C89.186 68.544 88.8579 69.2689 88.2508 69.7097C87.9631 69.9184 87.5163 69.9429 87.3606 70.0766C86.9703 70.4122 87.0989 70.9208 86.3708 70.9432C86.4371 71.0492 86.4768 71.1642 86.4904 71.2884C86.317 71.2585 86.1628 71.1866 86.0278 71.0726C86.0581 71.7988 85.344 72.0581 84.9159 72.5053C84.6691 72.7629 84.3616 73.1253 84.1876 73.4354C84.1586 73.4873 84.1034 73.9012 84.0914 73.9068C84.0253 73.9385 83.623 73.5851 83.6611 73.6146C83.5489 74.2856 82.8996 74.92 82.6152 75.5411C82.4655 75.8684 82.3133 76.3945 82.0182 76.6247C81.9379 76.6872 81.6909 76.6219 81.4868 76.8394C81.3371 76.9988 81.1644 77.2936 81.1036 77.5051C81.0631 77.6465 81.1118 78.012 81.0535 78.0968C80.9467 78.2517 80.7806 78.096 80.6133 78.2107C80.3041 78.4224 80.2963 78.7532 79.8439 78.7967C80.1557 79.5543 82.0384 79.7879 82.7226 80.0033C84.6577 80.6123 86.6878 81.2206 88.4967 82.1533C88.9645 82.3945 89.4072 82.5933 89.4901 83.1491C89.6056 83.9224 89.2115 84.9507 89.1363 85.7318C88.9326 87.8413 88.891 90.0129 88.9335 92.1314C88.9739 94.138 89.0388 96.1634 89.1324 98.1676C89.219 100.026 89.5937 101.847 89.7959 103.692C89.8513 104.199 89.8144 106.482 90.6851 106.367C91.4121 106.271 90.953 104.712 90.9394 104.264C90.909 103.275 91.1173 102.264 91.1085 101.266C91.1044 100.786 91.3143 100.372 91.3344 99.9132C91.3544 99.4593 91.1289 99.1007 91.1965 98.6302C91.2614 98.1788 92.5959 95.5822 91.3143 95.8864C91.3893 95.5152 91.455 95.1409 91.5542 94.7752C91.6912 94.8984 91.8017 95.0423 91.885 95.2066C91.9991 94.409 91.961 93.613 92.0317 92.815C92.0635 92.4534 92.21 92.0574 92.16 91.693C92.1695 91.542 92.1503 91.3937 92.1025 91.2485C92.0237 91.165 91.9261 91.1212 91.8101 91.1169C91.7491 90.9173 91.7334 90.8624 91.8417 90.6666C91.8882 90.5338 91.9804 90.4509 92.1184 90.4181C92.3812 90.3869 92.4113 90.2359 92.2084 89.965C92.3142 89.4303 92.3278 89.0927 92.2515 88.5591C92.1873 88.1109 92.4234 87.243 92.1828 86.8438C91.9018 86.3772 91.7622 86.8298 91.7099 86.1831C91.6987 86.0462 91.6897 85.761 91.7448 85.6245C91.8051 85.4759 91.9864 85.5367 92.0095 85.4839C92.1669 85.1245 92.1774 84.417 91.6205 84.4784C91.6423 84.2217 91.6641 83.965 91.6858 83.7083C92.0881 84.1714 91.9475 83.7794 92.1757 83.5219C92.483 83.1751 92.7836 83.1153 93.2229 82.9781C94.3936 82.6129 95.5216 82.0635 96.6657 81.6177C99.0882 80.6735 101.556 79.8306 103.907 78.7149C108.853 76.368 113.701 73.8209 118.678 71.5359C118.322 70.8762 118.543 70.8441 118.803 70.2246C119.15 70.4654 119.077 70.2974 119.324 70.2827C119.301 70.076 119.366 70.0136 119.517 70.0956C119.637 70.1324 119.76 70.1454 119.886 70.1346C120.194 70.1875 120.446 70.357 120.726 70.4214C120.817 70.4892 120.918 70.5399 121.029 70.5741C121.128 70.5515 121.212 70.5026 121.282 70.4272C121.735 70.5112 121.888 70.8526 121.908 71.347C121.911 71.4331 121.648 71.5212 121.723 71.6368C121.855 71.8388 122.209 71.7906 122.412 71.8164C122.368 72.0262 122.323 72.2359 122.279 72.4455C123.168 72.035 122.936 73.32 123.206 73.7421C123.281 73.8599 123.449 73.7658 123.536 73.9023C123.65 74.0804 123.615 74.3326 123.712 74.51C123.931 74.9112 124.151 74.8625 124.369 75.3219C125.509 77.7208 127.027 79.9557 128.121 82.4061C128.643 83.5723 129.113 84.7586 129.657 85.9146C130.158 86.9786 130.444 87.8831 130.087 89.0449C129.259 91.7402 128.374 94.4846 127.289 97.0881C127.235 97.002 127.181 96.916 127.126 96.8299ZM69.3829 116.949C69.3052 117.081 69.2275 117.213 69.1499 117.345C68.9774 116.353 69.437 116.813 69.3829 116.949ZM65.7315 115.091C65.4826 115.016 65.5902 114.61 65.5982 114.436C65.7556 114.632 65.91 114.832 66.041 115.047C65.9378 115.062 65.8345 115.076 65.7315 115.091ZM55.7241 111.276C55.9855 111.129 56.1735 111.024 56.4698 110.858C56.1686 111.445 56.1686 111.445 55.7241 111.276ZM39.9803 59.5733C39.581 60.5534 40.7986 66.6053 39.665 66.8029C39.5024 66.2717 39.482 64.8092 38.809 64.6346C37.9739 64.4178 38.0562 65.9235 37.9422 66.3892C36.2278 65.1964 35.4662 62.8929 34.6472 61.0674C33.6032 58.7406 32.7817 56.3205 31.9972 53.8961C31.3265 51.8232 30.7718 49.7138 30.0939 47.6442C29.668 46.3445 29.209 45.0415 28.9226 43.7018C28.8604 43.4108 28.6156 42.6728 28.8236 42.3961C29.1259 41.9937 30.2139 42.4545 30.5646 42.5602C32.8391 43.2446 35.1985 43.5392 37.5354 43.9369C40.1317 44.3784 42.7223 44.8349 45.3343 45.1773C45.987 45.2628 46.6401 45.3438 47.2935 45.4226C47.7173 45.4737 48.3588 45.4226 48.7613 45.6126C49.5761 45.997 49.7495 47.4682 50.0521 48.2314C51.1811 51.0789 52.5098 53.8364 53.6985 56.6581C54.7693 59.1999 55.5811 61.9042 57.1204 64.2186C55.9724 63.7097 54.5175 61.0191 53.2347 62.5699C52.6832 63.2368 52.8223 64.1154 52.8664 64.9135C52.9302 66.0673 52.9502 67.2296 52.9502 68.3853C51.6948 68.0591 50.8514 66.6341 50.1923 65.6246C49.2921 64.2459 48.7251 62.9467 48.3265 61.3661C48.1538 60.6817 47.696 60.6647 47.2892 60.2551C47.0279 59.9919 46.8964 59.6371 46.5215 60.0201C46.0503 60.5014 46.3638 61.8342 46.4452 62.4025C46.6384 63.7547 47.2722 65.8358 46.6561 67.1064C45.8246 68.8212 43.5964 64.5065 43.3354 63.8833C43.2027 63.5661 40.832 57.4827 39.9803 59.5733ZM38.4237 30.1857C38.564 30.2072 38.7043 30.2286 38.8447 30.2501C38.7315 30.35 38.4961 30.7002 38.3038 30.6076C38.3437 30.467 38.3837 30.3264 38.4237 30.1857ZM45.8597 28.59C45.8158 28.6384 45.7716 28.6865 45.7275 28.7349C45.5263 28.4832 45.5976 28.1164 45.5976 27.8253C45.8636 27.986 45.9286 28.3075 45.8597 28.59ZM46.4607 31.3822V32.2048C45.9032 31.9632 45.8922 31.8385 46.4607 31.3822ZM47.1376 32.4281C46.7471 32.3209 46.7004 32.2345 46.7553 31.6342C46.9171 31.9705 47.0238 32.1921 47.1376 32.4281ZM49.3858 38.5199C49.2221 38.9411 48.2653 37.9374 48.3004 37.637C48.3338 37.3505 48.4807 37.265 48.6835 37.4492C48.7505 37.5103 48.651 37.7308 48.6937 37.8073C48.8481 38.0844 49.1594 38.311 49.3858 38.5199ZM49.3965 41.0575C49.1567 41.656 48.7294 40.7134 49.3558 40.6876C49.3968 40.8081 49.4105 40.9313 49.3965 41.0575ZM48.9314 40.1137C48.8386 39.99 48.7484 39.8645 48.6609 39.7368C48.9835 39.802 49.2396 40.272 49.58 39.9584C49.5396 40.4367 49.1999 40.45 48.9314 40.1137ZM28.0692 32.339C27.5504 31.7728 30.9335 31.3753 31.3416 31.278C34.3033 30.5718 37.0996 29.5498 39.8689 28.2958C41.1899 27.6976 42.5042 27.0921 43.7943 26.429C44.3514 26.1428 45.115 25.9001 45.5802 25.4703C45.9124 25.1636 45.8991 24.9315 46.3307 24.7488C46.6972 24.594 46.7155 24.7402 46.8834 24.4601C46.9842 24.2921 47.0982 23.6764 47.0392 23.4942C46.8785 22.997 46.6408 23.4001 46.3072 23.0575C46.0669 22.8105 46.1252 22.1081 46.1907 21.8173C46.2758 21.9558 46.3248 22.1063 46.3378 22.2683C46.6998 22.0899 46.5538 21.4769 46.9498 21.3765C47.3671 21.2708 47.324 21.5959 47.4328 21.9282C47.7481 21.4652 47.4953 21.0703 47.3247 20.6181C48.1923 20.4557 49.1244 20.2983 49.9844 20.587C50.6062 20.7955 51.1385 21.3083 51.7951 21.4075C52.4381 21.5044 52.5617 21.1995 53.0357 20.8902C53.4205 20.639 53.7509 20.9348 53.949 20.7451C53.8269 21.3855 52.7771 21.2979 52.9063 22.0981C52.9646 22.4582 53.4059 22.7817 53.6068 23.062C53.859 23.4137 54.0601 23.8026 54.2318 24.1989C54.9 25.7407 55.1857 27.5298 55.4661 29.1785C56.158 33.248 56.2455 37.3979 56.8964 41.4805C57.2065 43.4251 57.5173 45.3709 57.6784 47.3345C57.7187 47.8255 58.0186 48.9392 57.7733 49.4115C57.5658 49.8103 57.1043 49.8114 56.6992 49.9079C55.9065 50.0963 55.1621 50.3523 54.4017 50.6358C53.7201 50.8899 53.522 51.0458 53.0844 50.4045C52.6612 49.784 52.4519 49.0443 52.1491 48.364C51.7634 47.4971 51.2974 46.6607 50.8501 45.8245C51.7288 45.8245 52.2346 45.3501 52.2113 44.4572C52.1859 43.4681 51.3724 43.2334 51.0371 42.4205C50.711 42.8441 50.6835 42.8561 50.4511 42.454C50.1852 41.9941 50.0058 41.1527 49.8432 40.6311C49.9595 40.7552 50.0758 40.8794 50.1921 41.0033C50.4854 40.5997 50.026 39.9634 49.8723 39.5833C49.6352 38.9964 49.5934 38.3618 49.3684 37.7765C49.2458 37.4571 48.9616 37.2056 48.892 36.8723C48.8455 36.6492 49.0318 36.437 48.9876 36.2105C48.9107 35.8162 48.4647 35.3932 48.3259 34.9921C48.1126 34.3753 47.8809 33.8322 47.6161 33.2312C47.2579 32.4178 47.3411 31.5642 47.2756 30.6985C47.2076 29.8009 46.9201 28.9421 46.8186 28.0484C46.7484 27.431 46.9681 26.6536 46.501 26.159C46.4463 26.9811 46.6819 26.9684 45.9096 27.1162C45.0302 27.2844 44.3925 27.9396 43.5611 28.135C43.3897 28.1754 43.2648 27.4267 43.3317 28.4479C42.9329 28.1535 42.0818 28.5191 42.3993 28.6938C42.1587 28.9513 41.6847 28.7731 41.6055 29.1589C40.7876 28.3637 39.4761 31.0702 38.5021 29.6585C38.3413 30.6153 37.6485 31.181 36.7184 31.3075C36.2507 31.371 35.9625 31.5269 35.5474 31.6671C35.4632 31.6953 35.4322 31.8165 35.3325 31.8491C35.1802 31.8988 34.9565 31.7489 34.8468 31.778C34.6233 31.8374 34.3748 32.1314 34.0628 32.1898C33.7051 32.2569 33.3149 32.2261 32.9569 32.1846C32.5092 32.1327 32.3122 32.0797 31.8738 32.2272C31.4795 32.3599 31.0572 32.7316 30.6913 32.3269C30.1165 33.3214 28.746 33.0783 28.0692 32.339ZM54.6441 20.3377C54.2091 20.2856 54.5111 19.9115 54.7126 19.7991C55.26 19.494 55.1138 20.3941 54.6441 20.3377ZM30.5567 23.9066C33.1099 20.2231 37.4771 17.6923 41.3197 15.5628C43.4185 14.3997 45.5608 13.2723 47.7646 12.3203C48.8603 11.8472 49.9687 11.3924 51.0875 10.9768C51.685 10.7549 52.2897 10.5531 52.8947 10.3522C53.062 10.2967 53.3663 10.1265 53.5415 10.1431C53.5112 10.1401 53.9766 10.2667 53.8852 10.3064C54.185 10.1759 54.3276 9.83558 54.6801 9.69948C55.0763 9.54639 55.5809 9.4831 56.0053 9.46929C56.3807 9.45697 56.7057 9.61211 57.0634 9.62424C57.2985 9.63209 57.4983 9.52044 57.7285 9.50401C57.8463 9.4958 57.8358 9.67204 57.9067 9.68231C57.9375 9.68679 58.2512 9.56898 58.2542 9.57104C58.3684 9.64441 58.4696 9.9308 58.5729 10.0426C58.869 10.3634 59.3036 10.5868 59.6985 10.7556C60.179 10.961 61.3513 11.1675 60.808 11.9273C61.1939 11.8719 61.3735 12.2206 60.8903 12.3089C60.6286 12.3569 60.5167 12.1172 60.3224 11.9536C59.8734 11.5765 58.7835 11.0396 58.1367 11.0638C57.7729 11.0775 57.4917 11.3536 57.1562 11.4539C56.826 11.5524 56.6624 11.3995 56.3727 11.4238C56.034 11.452 55.8159 11.7386 55.4932 11.7895C55.1909 11.8373 55.0225 11.6312 54.7523 11.6456C54.4312 11.6626 54.1202 11.9415 53.8136 12.0352C53.326 12.1842 52.9679 12.2858 52.4919 12.5328C51.5692 13.0116 50.5388 13.1935 49.588 13.6057C48.8278 13.9352 47.9658 14.1087 47.2623 14.4731C46.4801 14.878 45.6943 15.2815 44.9283 15.7215C44.3749 16.0394 43.2499 16.1489 42.6398 16.068C42.631 17.1915 42.078 16.4039 41.5207 16.896C41.6525 17.0123 41.8023 17.0978 41.9694 17.1525C41.3654 17.3937 40.8072 17.6939 40.2221 17.9712C39.6174 18.2579 38.9722 18.321 38.5749 18.8634C38.209 19.3632 38.3329 19.1054 37.7868 19.3021C37.5363 19.3925 37.3184 19.668 37.1379 19.8531C36.8276 20.1712 36.7589 20.6529 36.5817 19.9991C36.53 20.0788 36.3265 20.5864 36.2869 20.5993C36.0649 20.3637 36.033 20.643 35.9089 20.7428C35.9742 20.96 35.8809 21.1022 35.6288 21.1696C35.5013 21.2645 35.3721 21.3574 35.2416 21.4484C34.7682 21.7768 34.1655 22.0585 33.8321 22.5478C33.5862 22.4028 33.4951 22.1524 33.6448 21.8968C33.1749 22.3299 32.6143 22.7748 32.4871 23.4415C32.4287 23.3851 32.3606 23.3444 32.2833 23.3194C32.0925 23.4482 32.341 23.8321 32.4619 23.9185C32.9895 23.7135 32.3301 23.7878 32.6847 23.8209C32.7857 23.8302 32.8895 23.9058 33.0009 23.9071C33.3278 23.9114 33.6349 23.8958 33.959 23.8459C34.6737 23.7358 35.3761 23.5306 36.0679 23.3248C36.8214 23.1008 37.5751 22.8771 38.312 22.6023C38.9188 22.3761 39.5154 22.1238 40.1119 21.8725C40.3502 21.7721 40.5882 21.6703 40.8268 21.5707C41.2799 21.3813 41.5189 21.0703 41.4556 21.6031C41.8165 21.5432 42.1292 21.0332 42.4062 20.825C42.796 20.5324 43.2344 20.3142 43.6963 20.1648C43.8834 20.1044 44.0208 20.0274 44.2142 20.0269C44.309 20.0267 44.3658 20.294 44.4255 20.2795C44.84 20.179 44.651 19.9494 44.8374 19.6186C45.2449 18.8955 46.3427 18.4956 47.0168 18.0849C47.4447 17.8241 47.7485 17.4733 48.1435 17.1844C48.3284 17.0495 48.4626 16.9897 48.6562 16.9326C48.8044 16.8887 48.9863 17.2293 49.0824 16.887C48.7376 16.7461 48.4533 16.5723 48.1215 16.4694C47.8868 16.3964 48.1684 16.1468 47.7965 16.2954C47.6471 16.3551 47.5958 16.6442 47.5409 16.7651C47.1255 16.3942 45.9575 16.7786 45.4647 16.9339C45.4307 16.9445 45.2785 16.8643 45.2068 16.8691C44.9223 16.8882 44.7242 17.2711 44.537 17.4361C44.0391 17.8747 43.4989 18.058 42.8858 18.3083C43.049 17.4169 44.2482 17.0517 44.9481 16.7102C45.9712 16.211 46.9237 15.5738 48.0438 15.3054C48.7899 15.1263 49.7784 14.9824 50.1007 15.8498C50.2935 16.3697 50.3178 17.6615 49.6653 17.9014C49.5964 17.6587 49.8171 17.4512 49.8835 17.2406C49.234 17.4886 49.127 18.2688 48.6338 18.676C48.3566 18.9047 48.2574 18.978 48.1234 19.1991C47.9903 19.4186 47.9264 19.6234 47.6144 19.857C47.1046 18.774 47.1908 20.2574 46.9323 20.4436C47.0363 20.3687 46.5109 20.5873 46.5736 20.5642C46.5494 20.5731 46.3205 20.2024 46.172 20.2102C45.9019 20.2244 45.9538 20.5218 45.8237 20.6715C45.3825 21.1782 44.8125 21.5105 44.1025 21.4308C44.0859 21.7913 44.1972 22.222 43.7049 22.2549L43.6403 21.4556C43.3724 21.7267 43.0197 21.9842 42.8016 22.298C42.5535 22.6552 42.58 22.8751 42.1684 23.1131C41.7382 23.362 40.8231 23.8523 40.3111 23.8946C40.4377 23.715 40.4153 23.5528 40.2443 23.4083C39.9869 23.6738 39.6067 23.6999 39.3327 23.9396C40.2841 24.3371 38.6018 24.3166 38.3884 24.3616C38.2455 24.3918 38.1208 24.5219 37.9761 24.5512C37.784 24.5903 37.7592 24.3883 37.5938 24.4523C37.3518 24.546 37.45 24.8106 37.1969 24.9435C37.015 25.0391 36.7066 25.0378 36.5014 25.1285C36.0125 25.3451 34.9709 25.8247 34.6405 25.2429C34.473 26.241 32.7627 25.6335 32.1296 25.5663C31.2626 25.4743 29.7524 25.0673 30.5567 23.9066ZM34.1984 13.6947C34.321 13.59 34.4439 13.5977 34.5667 13.7179C34.3957 12.8147 35.7184 12.3761 36.2955 11.9921C37.061 11.4828 37.962 10.4946 38.9636 10.5728C38.7927 10.6994 38.6223 10.826 38.4517 10.9526C38.6953 10.9841 38.9387 11.0157 39.182 11.0472C39.0448 11.2489 38.9074 11.4503 38.7698 11.6517C38.545 10.4128 37.3722 11.977 37.0328 12.2049C36.6909 12.4344 36.35 12.6054 36.0463 12.8852C35.7453 13.1625 35.4737 13.6617 34.9761 13.4123C34.9308 14.1199 34.3619 13.9279 33.9686 14.3198C33.9521 14.0739 34.0929 13.9001 34.1984 13.6947ZM39.3948 10.1627C40.6056 9.70919 41.6596 8.87074 42.8005 8.27183C43.8903 7.69968 45.002 7.1859 46.1099 6.65214C46.6718 6.38125 47.7013 5.68077 48.3437 6.03773C49.2105 6.51977 48.0172 6.67529 47.7072 6.84219C47.5926 6.0999 47.191 6.77237 47.4309 7.18534C46.7695 6.8997 45.3269 8.01725 44.6959 8.32541C44.553 8.39523 44.6171 8.43556 44.4546 8.5177C44.4147 8.53787 44.0006 8.63215 43.882 8.67192C43.288 8.87075 42.8965 8.7128 42.6405 9.4299C42.5869 9.26112 42.5334 9.09216 42.4798 8.92321C42.1079 9.75829 40.9775 10.1238 40.2546 10.6176C40.0682 10.745 39.5362 11.2388 39.2998 11.1367C38.9709 10.9944 39.1028 10.2719 39.3948 10.1627ZM61.2357 12.6804C61.7469 12.7142 61.254 12.9526 61.3944 13.1102C61.3785 13.0925 61.7022 13.3686 61.6599 13.2928C61.717 13.3947 61.8542 13.391 61.9244 13.5982C62.1662 14.3108 61.1104 15.0472 60.7544 15.4515C60.0621 16.2381 59.662 17.2341 58.9407 17.9954C58.6149 18.3393 58.2908 18.5768 57.8392 18.7051C57.5231 18.7949 57.1887 18.6987 56.8982 19.0027C56.6643 19.2474 56.7173 19.3865 56.4587 19.5166C56.0032 19.7461 55.8025 19.5448 55.3593 20.0407C54.9779 19.0038 56.0738 19.0055 56.6456 18.426C57.435 17.626 58.2999 16.8189 59.0402 15.9631C59.6977 15.2027 59.9611 14.536 60.2733 13.6122C60.3717 13.321 60.4788 12.6965 60.7501 12.5137C61.1726 12.2292 60.9191 12.6593 61.2357 12.6804ZM63.7494 39.6168C65.09 38.1172 66.7531 36.7708 68.5558 35.8675C69.2001 35.5446 70.1173 35.1208 70.7851 35.6179C71.4401 36.1052 71.2991 37.0773 71.0351 37.7386C70.7822 37.6393 71.0209 36.7099 70.8897 36.4803C70.6033 35.9792 69.9853 36.2452 69.5649 36.4133C69.0724 36.61 68.6329 36.8273 68.2429 37.1845C68.0846 37.3292 67.7816 37.4589 67.6802 37.5584C67.5279 37.4952 67.4381 37.5413 67.4112 37.6966C67.4426 37.7918 67.4388 37.8855 67.3998 37.9778C67.3776 38.0071 67.1795 37.8868 67.1513 37.9109C67.0229 38.0209 66.9026 38.1503 66.7762 38.2524C66.5225 38.4576 66.3067 38.5546 66.0731 38.8407C65.6221 39.3935 65.0254 39.7174 64.5723 40.244C64.47 40.3632 64.3473 40.6684 64.3244 40.6951C64.0953 40.9624 63.7557 41.174 63.4973 41.457C63.0506 41.946 62.5736 42.2742 62.0581 42.6935C61.8361 42.8738 61.5772 43.0682 61.4295 43.3191C61.3623 43.4335 61.3244 44.0608 61.3219 44.0634C60.8164 44.6176 60.9148 43.5037 60.9529 43.3641C61.3634 41.8614 62.7515 40.7332 63.7494 39.6168ZM60.9898 49.778C61.0527 50.014 61.1045 50.2091 61.1683 50.4486C60.7675 50.1198 60.7675 50.1198 60.9898 49.778ZM60.5569 50.5509C60.4096 50.6993 60.2615 50.8468 60.1124 50.9934C59.7843 50.6467 60.617 50.4915 60.5569 50.5509ZM60.3487 44.5838C60.1919 45.2182 59.6178 45.9871 59.2231 46.4879C59.2666 46.4326 58.8863 46.5437 58.843 46.5689C58.7024 46.6503 59.039 47.1779 58.552 46.9421C58.3791 47.0399 58.7194 47.4383 58.4846 47.6166C57.8057 46.0699 59.6593 44.7298 60.3769 43.5816C60.7279 43.9038 60.4368 44.2281 60.3487 44.5838ZM55.9395 52.9466C56.4345 53.0739 56.6919 52.9938 57.0261 52.5077C57.227 52.2157 57.3004 51.6985 57.7598 52.1354L57.8408 51.5736C58.4967 51.8426 58.4416 52.8149 58.7282 53.3537C58.8677 52.7442 59.1979 51.0413 60.2093 51.3145C61.3445 51.6212 59.455 53.5737 59.2795 54.052C58.8936 53.4531 59.0454 54.0102 58.751 54.0946C58.4984 54.1672 58.1037 53.9812 57.7968 53.998C56.8629 54.0488 56.0426 54.4689 55.1896 54.8245C54.9736 54.2422 54.7578 53.6599 54.5418 53.0776C55.044 53.1163 56.0824 51.7795 56.2299 52.7511C55.8574 52.6863 55.7525 52.7027 55.571 53.0418C55.6869 52.983 55.8098 52.9512 55.9395 52.9466ZM58.0358 60.5471C58.0343 60.5424 59.0017 60.6022 59.088 60.5706C59.75 60.3288 59.5052 59.578 59.6406 59.0472C59.9135 59.2981 59.7688 59.7561 59.853 60.0807C59.9518 60.4623 60.2378 60.7876 60.2643 61.1957C60.3246 62.1178 59.568 61.9131 58.9944 62.2115C58.5044 62.4665 58.45 62.7873 58.0361 62.1C57.9241 61.9141 57.6833 61.4296 57.7079 61.1918C57.7322 60.9561 58.1054 60.7603 58.0358 60.5471ZM58.8154 64.5371L58.5479 64.2375C59.345 64.4815 58.8749 64.1146 59.0583 63.613C59.6701 64.0204 60.1691 64.4391 60.6532 63.6235L61.4896 66.997C60.9278 67.1292 60.2031 66.2613 59.8177 65.9631C59.5952 65.7908 58.3602 65.1271 59.1018 64.9337C59.0062 64.8015 58.9108 64.6693 58.8154 64.5371ZM64.2751 53.9437C63.8108 54.3852 63.3431 54.6324 62.8375 54.9795C62.3941 55.2842 62.5469 55.6339 62.1625 55.9736C61.9072 56.1995 61.3089 56.4295 60.9936 56.6019C60.4318 56.9088 59.9286 56.9672 59.3508 56.6237C59.508 57.8897 58.641 57.9888 57.5617 58.2396C57.047 58.3592 56.7423 58.542 56.3714 58.0706C56.1173 57.748 56.0178 57.1638 56.3338 56.8686C56.8359 56.3997 58.1733 56.5615 58.8174 56.2666C59.3062 56.0429 59.8041 54.7825 60.4071 55.2412C60.0959 54.7456 60.4583 54.6121 60.7288 54.2587C61.0251 53.8713 61.2071 53.4184 61.5137 53.0341C62.0962 52.3038 62.9904 51.5691 63.8177 51.1287C64.5456 50.7413 64.9278 51.0156 65.0368 51.8292C65.0917 52.2383 65.0896 52.8476 64.8606 53.2106C64.7876 53.3263 64.5465 53.3276 64.4735 53.4363C64.3464 53.6261 64.4631 53.7649 64.2751 53.9437ZM72.8169 44.1249C73.3977 44.5744 73.3412 45.5191 73.4327 46.1625C73.5617 47.0692 73.4681 47.9467 73.4543 48.8703C73.4398 49.8379 72.965 50.4682 72.7415 51.3752C72.4932 52.3841 72.1727 52.9184 71.6156 53.765C72.2197 53.8601 71.3206 55.6643 71.1723 55.8978C71.0114 56.1514 69.7137 57.3197 70.27 57.3197C69.9631 57.7245 69.6289 58.1399 69.3231 58.5334C69.2027 58.6884 68.9916 58.7492 68.8967 58.8586C68.7035 59.081 68.6917 59.2793 68.5534 59.5388C68.3434 59.9325 68.2743 59.8274 67.9982 60.113C67.8075 60.3104 67.6825 60.5708 67.4952 60.7599C66.8918 61.3691 66.8149 60.8701 66.4775 60.4009C66.4258 60.5266 66.334 60.6053 66.202 60.6373C66.0963 60.1063 66.8237 59.5699 67.1295 59.2473C67.6304 58.7186 68.0881 58.1361 68.531 57.5579C69.4794 56.319 70.3316 55.0028 71.0041 53.5929C71.7195 52.0924 72.291 50.4686 72.5879 48.8316C72.8141 47.584 73.0292 45.4437 71.362 45.1263C70.1494 44.8955 68.8127 45.6322 67.8131 46.2287C67.204 46.592 66.5914 46.9533 66.0112 47.362C65.3813 47.8052 64.8369 48.4325 64.1532 48.7881C64.5271 48.5936 63.2933 49.1791 63.4822 49.0144C63.3937 49.0913 63.4701 49.3264 63.4116 49.4324C63.3355 49.5704 63.0707 49.7067 62.952 49.7959C62.6383 50.0315 62.1372 50.2725 61.9946 50.6616C60.0052 49.2424 63.9614 46.7227 64.9756 46.0811C66.9872 44.8084 70.4875 42.3216 72.8169 44.1249ZM78.1833 30.322C78.1642 29.3 78.9965 27.9048 79.5587 27.0714C79.8337 26.6635 80.273 26.6797 80.4341 26.1986C80.5271 25.9216 80.4051 25.6311 80.4328 25.3529C80.4701 24.9767 80.6333 24.675 80.8215 24.3517C82.5228 21.4286 84.5899 18.8414 86.7916 16.2911C87.8772 15.0339 88.9065 13.7284 90.0772 12.5473C90.5664 12.0541 91.8809 10.2809 92.6329 10.4582C93.0311 10.5521 93.2628 11.1598 93.4426 11.4699C93.7398 11.9828 94.0667 12.4631 94.428 12.9347C95.3814 14.1798 96.4812 15.2727 97.7801 16.1552C98.5911 16.7067 99.4105 17.2427 100.204 17.8205C100.856 18.296 101.843 18.8397 102.31 19.5073C102.776 20.1751 102.091 20.7406 101.717 21.2951C101.135 22.1574 100.6 23.051 100.016 23.9124C99.7839 23.7455 99.8438 23.4064 99.6847 23.1927C99.5436 23.0032 99.344 22.9261 99.1491 22.809C98.7755 22.5852 98.4089 22.3115 98.0715 22.6865C97.481 23.3429 98.2929 24.8946 99.1681 24.7243C99.2712 25.3721 97.5235 26.4391 97.0856 26.7957C95.7414 27.8893 94.3548 28.8402 92.5791 28.9391C91.8605 28.9791 91.1128 28.9246 90.4301 28.6841C90.103 28.5689 89.7414 28.4108 89.4906 28.1597C89.1904 27.8591 89.1139 27.4118 88.8226 27.1142C88.57 26.856 88.2232 26.8162 87.9708 26.5571C87.718 26.2978 87.5931 25.8882 87.4906 25.5523C87.2901 24.8961 87.2522 24.204 87.0595 23.5463C86.9436 23.1507 86.8484 22.6217 86.4703 23.0019C85.9212 23.5541 86.197 25.2905 86.3376 25.9522C86.5386 26.8961 87.01 27.6571 87.5038 28.4692C88.0393 29.3502 88.237 30.1674 88.3329 31.1867C88.5125 33.0949 89.0601 34.926 89.9122 36.6429C90.2708 37.3658 90.7004 38.0455 91.0876 38.7518C91.2685 39.0813 91.6739 40.2056 92.1658 40.1996C92.9518 40.1899 91.8322 37.8979 91.6768 37.5131C90.8158 35.382 89.9934 33.142 89.809 30.8344C91.0432 31.1524 92.3885 31.4541 93.6666 31.2526C92.8416 33.0976 93.7034 34.9344 93.5979 36.8335C93.5453 37.7858 93.5072 38.6644 93.5268 39.6139C93.5442 40.4466 93.1682 41.2789 92.8431 42.0318C92.1975 43.5271 91.3848 45.3716 90.1859 46.517C89.1835 47.4745 87.8427 47.5494 86.533 47.3289C83.5537 46.8271 81.5963 44.5369 80.346 41.9359C79.5426 40.265 78.9286 38.4813 78.5473 36.6666C78.106 34.5665 78.2225 32.4522 78.1833 30.322ZM82.0523 16.1685C79.2721 14.1568 83.3122 11.8724 85.3686 12.1835C85.851 12.2563 86.7386 12.4557 86.6934 13.0852C86.6564 13.5997 85.7982 14.1732 85.4687 14.4908C84.529 15.397 83.5728 17.2683 82.0523 16.1685ZM102.278 60.8663C102.182 60.7808 101.404 60.9907 101.712 60.5303C101.969 60.1478 102.679 60.6272 102.937 60.7256C102.724 60.8725 102.539 61.1001 102.278 60.8663ZM90.701 85.1962C90.462 85.2257 90.2122 84.5812 91.0736 85.0627C90.9495 85.1072 90.8251 85.1518 90.701 85.1962ZM90.6763 95.6999C90.706 95.9887 90.7943 96.1791 90.5891 96.3891C90.4157 96.1754 90.3933 95.8739 90.6763 95.6999ZM91.026 100.04C91.0006 100.197 90.9752 100.354 90.9502 100.511C90.7512 100.411 90.5526 100.31 90.3535 100.209C90.5776 100.153 90.802 100.096 91.026 100.04ZM91.2695 96.3802C91.5659 96.4911 91.428 96.1365 91.6432 96.0867C91.7203 96.4558 91.6253 96.7718 91.4134 97.0763C91.3932 97.0043 91.2846 96.3856 91.2695 96.3802ZM98.8463 70.1916C98.4303 70.1385 98.3674 70.578 98.0573 70.7485C97.8572 70.8586 97.2478 70.7759 97.1341 70.9867C97.2842 71.03 97.4345 71.0735 97.5846 71.1168C97.2409 71.302 96.8972 71.4874 96.5535 71.6726C97.3802 71.6726 98.2416 71.2778 99.0627 71.3937C99.4097 71.4428 99.6642 71.56 99.8819 71.8423C100.014 72.0137 100.13 72.2895 100.151 72.4993C100.174 72.7263 99.9974 72.8831 100.029 72.9914C100.399 73.0015 100.355 73.6084 100.272 73.8558C100.092 74.3922 99.3763 75.2321 98.735 74.892C99.0033 75.2726 98.935 75.49 98.5382 75.7108C98.5743 75.585 98.6008 75.3649 98.398 75.3867C98.3459 75.5977 98.3659 75.9322 98.1936 76.0913C98.0007 76.2692 97.8286 76.0612 97.6442 76.177C97.4255 76.3144 97.4912 76.53 97.3193 76.679C97.0919 76.8758 97.0594 76.736 96.7876 76.7742C96.3759 76.8325 96.6386 76.5767 96.3089 76.9101C96.1948 77.0252 96.2141 77.3244 96.0292 77.4928C95.6741 77.816 94.7267 78.1528 94.3865 77.7383C93.5686 79.0345 91.1171 79.3456 89.976 78.3223C88.1562 76.6904 91.5495 73.3715 92.6699 72.3197C93.7943 71.2641 95.0433 70.3523 96.307 69.4722C97.0251 68.9723 97.762 68.5184 98.5143 68.0729C98.9785 67.7979 99.5613 67.2959 100.132 67.3441C100.643 67.3874 101.08 67.7843 101.619 67.8629C102.008 67.9197 102.765 68.0134 102.274 68.5417C102.044 68.7886 101.141 69.1877 100.834 69.2478C100.653 69.2831 100.463 69.2155 100.284 69.2521C99.9816 69.3143 99.7736 69.5699 99.4441 69.5374C99.5484 70.0263 99.358 70.2565 98.8463 70.1916ZM104.232 52.0392C104.232 52.4218 103.534 52.3264 103.388 52.1964C103.148 51.9827 103.14 51.3434 103.051 51.0527C103.457 51.1549 104.232 51.5286 104.232 52.0392ZM98.6075 39.419C100.074 38.2136 101.616 37.1083 103.246 36.1349C103.83 35.7863 104.655 35.0832 105.38 35.171C105.684 35.208 106.313 35.5573 106.083 35.9424C106.041 36.0145 105.702 36.0434 105.598 36.0957C105.479 36.1549 105.386 36.318 105.276 36.3987C104.515 36.9575 103.599 37.3008 102.835 37.873C102.207 38.3429 101.621 38.8687 100.945 39.2719C100.297 39.6586 99.6192 39.9033 99.0035 40.3316C99.0156 40.323 98.2026 40.6154 98.362 40.6686C97.6483 40.4298 98.4021 39.588 98.6075 39.419ZM108.386 38.97C109.257 38.6228 110.11 38.2014 111.022 37.9681C111.477 37.8516 111.945 37.764 112.416 37.8165C112.496 37.6762 112.603 37.6453 112.736 37.7235C112.84 37.8833 112.977 38.006 113.147 38.0916C113.407 38.2914 114.364 38.5526 114.173 38.9938C114.046 39.2856 113.087 39.3098 112.824 39.3754C112.03 39.5731 111.29 40.0178 110.472 40.127C110.396 40.1373 110.145 40.0443 110.142 40.0448C109.823 40.1145 109.558 40.4455 109.284 40.6042C108.694 40.9456 107.846 41.003 107.422 41.5924C108.794 42.5223 109.984 41.6 111.191 40.8979C111.913 40.4774 112.689 40.174 113.478 39.9044C113.891 39.7637 114.307 39.6173 114.725 39.4937C114.898 39.4306 115.076 39.3853 115.259 39.3574C115.429 39.3236 115.55 39.3854 115.624 39.543C116.129 39.5262 116.172 39.209 116.477 39.8006C116.906 40.6348 116.249 40.5924 115.633 40.6949C114.777 40.8368 113.907 41.1564 113.064 41.3683C112.87 41.4172 111.165 41.8125 111.163 41.8265C111.086 42.3645 115.978 41.8662 116.398 41.7856C117.14 41.643 117.935 41.238 118.702 41.3357C119.291 41.4105 120.633 42.2749 119.693 42.8492C119.508 41.9635 118.873 42.695 118.542 42.9939C118.1 43.3917 117.467 43.3535 116.861 43.5093C116.033 43.7222 113.912 44.5208 113.323 43.5026C113.509 44.395 110.128 43.9415 109.663 43.912C109.21 43.8831 108.625 43.9794 108.187 43.8502C107.902 43.766 107.743 43.5803 107.474 43.5385C107.408 43.6094 107.329 43.6578 107.237 43.6833C107.101 43.6144 106.978 43.5267 106.868 43.4205C105.963 43.0043 104.562 42.7743 105.065 41.4486C105.539 40.1983 107.235 39.4289 108.386 38.97ZM116.873 39.7428C116.896 39.6649 116.918 39.5871 116.941 39.509C116.944 39.7478 117.513 39.8497 117.447 40.1591C117.301 40.8441 116.644 39.8148 116.588 39.7026C116.683 39.7161 116.778 39.7293 116.873 39.7428ZM120.35 40.8809C120.416 41.1615 121.173 41.7589 120.985 41.8967C120.687 41.4908 119.862 41.6751 120.35 40.8809ZM107.577 66.4842C107.854 65.9344 108.692 66.8706 108.604 65.9319C109.059 65.9732 108.775 66.3199 109.321 66.1675C109.525 66.1104 109.664 65.8836 109.913 65.8313C109.98 65.8173 110.267 65.8401 110.366 65.8371C110.694 65.827 111.982 65.7904 111.096 65.3597C111.592 65.0319 111.653 65.1982 112.1 65.4986C111.985 64.8777 112.644 65.2301 112.95 65.3076C112.732 64.9535 113.274 64.5767 113.45 64.3374C113.387 64.7061 113.42 65.1189 113.954 64.8831C114.087 64.8245 114.057 64.5638 114.163 64.5213C114.356 64.4434 114.463 64.5851 114.533 64.5771C114.601 64.5694 114.744 64.6077 114.888 64.5538C115.074 64.4837 114.984 64.2339 115.22 64.1968C115.374 64.1727 115.486 64.3986 115.673 64.4005C115.77 64.4014 115.931 64.3036 116.004 64.3088C116.017 64.3097 116.108 64.0887 116.221 64.0833C116.386 64.0753 116.453 64.5164 116.513 64.6021C116.801 65.011 117.184 65.2776 117.626 65.4956C116.826 66.229 115.213 66.1513 114.207 66.3985C113.663 66.5325 113.198 66.7258 112.699 66.9748C112.579 67.053 112.476 67.149 112.389 67.2627C112.318 67.2158 112.248 67.169 112.177 67.1221C111.904 67.1389 111.646 67.0037 111.338 67.0556C110.388 67.2158 109.645 67.9273 108.679 68.0858C108.246 68.1572 107.889 68.2567 107.607 67.8807C107.359 67.5509 107.4 66.8348 107.577 66.4842ZM106.274 62.1019C106.49 62.2839 106.231 62.8765 106.647 62.8121C106.943 62.7663 106.884 62.3076 107.116 62.2104C107.422 62.0829 107.606 62.3855 107.892 62.3575C108.427 62.3048 108.396 61.8381 107.945 61.6331C108.414 61.5091 108.565 62.0644 108.98 62.0593C109.527 62.0528 109.396 61.4085 109.861 61.3017C110.062 61.2554 109.995 61.551 110.125 61.5877C110.387 61.6611 110.569 61.5351 110.8 61.4242C111.007 61.3251 111.154 61.1335 111.38 61.0685C111.483 61.0388 111.744 61.0932 111.82 61.0381C111.972 60.9272 112.108 60.4952 112.258 60.4381C112.227 60.4496 112.718 60.6957 112.789 60.7189C112.746 60.9013 112.646 60.9229 112.489 60.784C112.489 61.1957 113.633 61.3239 113.398 60.8152C114.017 61.0713 113.556 61.2031 113.495 61.5607C113.47 61.7044 113.386 61.7005 113.411 61.8525C113.422 61.9225 113.747 61.8622 113.743 61.9576C113.715 62.572 111.757 62.7609 111.386 62.8151C110.618 62.9273 109.891 63.116 109.151 63.3484C108.6 63.5215 107.649 64.0172 107.063 63.9864C106.219 63.9421 106.109 62.8414 106.274 62.1019ZM104.389 55.8323C104.184 55.1488 104.844 53.737 105.703 53.9135C105.915 53.9568 105.967 54.1319 106.131 54.2096C106.359 54.3182 106.732 54.2611 106.93 54.3733C107.375 54.6251 107.151 55.2668 107.597 55.4987C106.893 55.6693 104.716 56.9187 104.389 55.8323ZM105.204 58.4879C105.507 58.3249 105.999 58.304 106.205 57.9905C106.308 58.0618 106.503 58.4948 106.688 58.4285C106.774 58.3977 106.863 58.163 106.857 58.1632C107.021 58.1585 107.054 57.9358 107.306 57.9608C107.536 57.984 107.795 58.2614 108 58.3648C107.965 57.677 108.141 57.6113 108.699 57.2432C108.821 57.1625 108.923 56.8597 109.036 56.7372C108.928 57.459 109.2 57.4629 109.777 57.5714C110.499 57.7073 110.949 58.0952 111.239 58.7933C110.623 58.6732 109.829 58.8177 109.586 59.4796C109.095 58.5818 107.309 59.8207 106.731 60.0744C106.302 60.2628 105.803 60.5159 105.444 60.077C105.191 59.7678 105.336 59.3959 105.341 59.1213C105.343 59.0351 105.432 59.03 105.423 58.9016C105.413 58.7377 105.2 58.6721 105.204 58.4879ZM111.778 72.6059C111.615 72.6675 110.778 72.702 110.773 72.4248C110.768 72.1799 112.25 72.4267 111.778 72.6059ZM110.418 71.709C109.785 72.0994 109.076 70.7238 108.843 70.3277C109.508 70.4126 109.832 69.857 110.223 69.4347C110.596 70.2504 111.161 69.8193 111.755 69.5469C112.457 69.2256 113.225 69.2232 113.944 68.9653C114.168 68.8849 114.374 68.7652 114.593 68.6732C114.769 68.6073 114.945 68.5397 115.12 68.4704C115.244 68.3584 115.288 68.2204 115.252 68.0569C115.193 67.9195 115.234 67.8327 115.373 67.7968C115.538 67.8461 115.707 67.8749 115.879 67.8825C116.156 67.8276 116.554 67.5665 116.22 67.2849C116.578 66.9597 116.937 67.283 117.281 67.4255C117.199 67.1919 117.118 66.9584 117.036 66.7248C117.207 66.7975 117.715 67.5069 117.766 67.503C118.095 67.4783 118.061 67.0379 118.249 66.8602C118.358 66.9944 118.389 67.9953 118.817 67.6581C119 67.514 118.606 67.023 118.509 66.9111C118.998 67.0217 119.426 67.606 119.558 68.0597C119.326 68.0933 119.111 68.0466 118.914 67.9193C118.787 68.5511 119.957 68.2951 120.146 68.6252C120.517 69.2713 118.105 69.7202 117.791 69.7801C117.162 69.8999 116.42 69.9446 115.844 70.2233C115.291 70.4901 115.161 70.5664 114.516 70.6165C113.779 70.6736 113.06 70.9163 112.348 71.1052C111.73 71.2692 110.966 71.3711 110.418 71.709ZM123.879 48.5792C124.46 48.3699 126.419 47.2839 126.918 47.7669C126.865 47.7158 127.277 48.5675 127.273 48.5139C127.308 48.9569 127.298 49.1352 126.752 49.3475C126.362 49.4994 126.022 49.1765 125.67 49.3047C125.284 49.4457 125.554 49.6951 125.356 49.8693C125.138 50.0603 124.718 50.1428 124.447 50.2264C123.784 50.4312 123.116 50.6024 122.456 50.8231C121.113 51.2721 119.691 51.6899 118.311 52.0075C117.28 52.2448 115.529 52.8346 114.579 52.138C114.486 52.534 114.259 52.4798 113.945 52.5375C113.698 52.5827 113.251 52.705 113.032 52.7113C112.666 52.722 111.65 52.6262 111.79 52.1137C111.752 52.2549 112.58 51.7717 112.437 51.7416C112.789 51.8158 112.675 51.6386 112.963 51.54C113.34 51.4114 113.733 51.4183 114.118 51.282C115.087 50.9385 115.9 50.4927 116.922 50.2774C119.259 49.7858 121.625 49.3904 123.879 48.5792ZM30.2145 101.524C30.0252 101.529 29.8779 100.992 30.4538 101.376C30.3741 101.425 30.2944 101.475 30.2145 101.524ZM25.6648 100.828C25.4073 100.894 25.3046 100.75 25.3571 100.397C25.7161 100.256 25.8186 100.399 25.6648 100.828ZM22.1523 100.108C22.0864 99.7931 22.3197 99.7222 22.5313 99.5808C22.51 99.9979 22.51 99.9979 22.1523 100.108ZM13.3145 97.5177C12.9585 97.4395 12.4841 97.0913 12.4025 97.6758C12.343 97.5405 12.039 96.9038 12.1695 96.7565C12.2377 96.6794 12.4957 97.036 12.4682 97.0007C12.7798 96.3704 13.3169 97.131 13.6172 97.356C13.5163 97.41 13.4153 97.4639 13.3145 97.5177ZM105.881 27.8626C106.004 27.6028 106.149 27.5202 106.315 27.6153C106.053 28.2231 105.167 28.5527 105.881 27.8626ZM112.04 22.1565C112.259 22.5682 111.929 22.7422 111.693 23.0844C111.831 22.7153 111.927 22.4595 112.04 22.1565ZM138.808 62.3414C139.6 62.3412 141.287 61.9232 141.764 62.8285C142.08 62.2133 142.44 63.3669 142.714 63.5519C142.745 63.5729 142.942 63.4218 143.034 63.4775C143.173 63.5613 143.292 63.7896 143.371 63.9253C143.611 64.3346 143.714 64.8211 143.846 65.2714C142.463 65.2714 141.045 64.9494 139.662 64.8323C138.755 64.7554 137.866 64.7531 136.957 64.8021C136.777 64.8118 136.418 64.7522 136.264 64.7862C136.107 64.8207 135.823 65.1402 135.65 65.0888C135.919 65.5931 139.359 66.8139 139.622 66.2555C139.311 66.0673 138.62 65.9228 138.62 65.468C138.621 64.9585 139.268 64.9594 139.612 64.9744C140.362 65.0072 141.619 65.257 141.927 66.0374C142.058 66.372 142.099 67.2143 141.954 67.5373C141.861 67.7459 141.702 67.9966 141.451 68.039C141.348 68.0563 141.2 67.9195 141.185 67.9229C140.67 68.0321 139.717 68.4456 139.155 67.8625C138.75 68.3866 136.799 67.8142 136.202 67.6165C135.158 67.2707 133.72 66.796 133.085 65.8214C132.312 64.6337 133.884 63.6298 134.787 63.147C136.021 62.4872 137.43 62.342 138.808 62.3414ZM144.078 65.0877C144.321 65.1562 144.564 65.2249 144.807 65.2934C144.742 65.7191 143.784 65.3823 144.078 65.0877ZM151.417 80.5604C151.492 78.8549 150.999 77.353 150.714 75.7035C150.644 75.2947 150.716 74.5798 150.405 74.2436C150.108 73.9221 149.446 74.1835 149.42 73.6152C149.128 73.9574 149.157 74.0289 148.797 73.6353C148.863 73.8041 148.872 73.9757 148.826 74.1504C148.602 74.0224 147.792 73.5971 147.86 74.1786C147.194 74.0313 147.387 73.6148 147.007 73.2969C146.953 73.2517 146.737 73.412 146.652 73.3437C146.499 73.2199 146.424 73.1075 146.295 72.9481C146.131 73.146 145.908 73.289 145.708 73.4455C145.592 73.1921 145.365 73.0062 145.093 72.9446C145.348 73.477 145.977 74.1667 145.114 74.4697C144.599 74.6504 143.755 74.4288 143.21 74.471C141.188 74.6278 138.973 74.187 137.018 73.7053C135.01 73.2106 132.979 72.5122 131.173 71.4913C130.788 71.2736 130.546 71.016 130.214 70.746C129.892 70.4836 129.657 70.4421 129.27 70.2743C128.573 69.9722 127.935 69.4877 127.405 68.9478C126.264 67.7867 125.204 66.2684 125.522 64.5685C125.839 62.8742 127.003 61.5502 128.249 60.4345C129.721 59.1168 131.383 58.0166 133.146 57.1297C133.935 56.7333 135.952 55.2439 136.731 56.1153C137.229 56.6721 136.949 57.3824 136.269 57.5062C136.101 57.5368 135.926 57.4243 135.756 57.5014C135.511 57.6126 135.597 57.7441 135.496 57.8368C135.321 57.998 135.135 58.2493 134.873 58.3889C133.959 58.8764 133.075 59.2626 132.201 59.8563C131.798 60.1298 131.41 60.2475 131.055 60.4862C130.702 60.7235 130.622 61.1163 130.147 60.874C130.316 61.5648 129.3 62.3045 128.902 62.7277C128.285 63.383 127.546 64.2194 127.834 65.1889C128.397 67.0868 130.942 68.5283 132.57 69.3626C134.603 70.4036 136.844 71.2324 139.107 71.5753C140.232 71.7458 141.395 71.8511 142.528 71.9592C143.411 72.0434 144.765 71.7352 145.4 72.5299C145.42 71.6032 148.314 71.6849 148.93 71.5664C147.695 67.3443 145.27 63.5904 142.677 60.0832C141.404 58.3615 140.155 56.5909 138.704 55.0125C137.116 53.2847 135.302 51.7405 133.578 50.1506C130.197 47.0323 126.373 44.2492 122.482 41.7975C118.6 39.3516 114.579 36.9444 110.326 35.2005C105.469 33.2088 100.355 31.8988 95.2349 30.7831C95.9294 29.8982 97.059 29.4665 97.9483 28.8191C98.2597 28.5924 98.6805 28.0484 99.0849 27.9741C99.5229 27.8934 99.8677 28.3647 100.179 28.6012C101.074 29.28 101.693 28.9918 102.718 28.9509C103.331 28.9264 104.784 29.2679 105.042 28.4384C105.386 28.8962 104.888 29.2632 104.632 29.5989C104.818 29.858 104.968 29.5892 105.151 29.5487C105.208 29.5018 105.264 29.4548 105.321 29.4079C105.412 29.2761 105.494 29.2754 105.567 29.4053C105.677 29.57 105.787 29.5336 105.898 29.2959C105.928 29.2769 105.958 29.2576 105.989 29.2386C106.121 29.168 106.249 29.0564 106.372 28.9684C107.304 28.3029 108.134 27.7359 109.162 27.2456C110.025 26.8341 109.561 26.0468 110.13 25.4909C110.259 25.365 110.476 25.4281 110.614 25.3215C110.748 25.2168 110.769 25.0981 110.867 24.9859C111.104 24.7161 110.822 24.403 111.426 24.7333L111.208 23.5084C112.391 24.6562 112.386 21.3532 112.548 20.8644C112.527 20.929 112.654 20.4288 112.654 20.4331C112.689 19.442 112.824 18.7236 111.663 18.6661C112.103 18.3896 112.237 18.9295 112.44 18.3705C112.542 18.0905 112.224 17.6092 112.73 17.7897C112.837 17.1945 112.731 16.7129 112.599 16.1345C112.463 15.5425 112.543 15.1474 112.549 14.5554C112.556 13.8839 112.241 13.209 112.141 12.5477C112.062 12.0298 112.143 11.213 111.474 11.4033C111.38 11.256 111.71 10.8028 111.697 10.5788C111.676 10.2308 111.298 9.87722 111.191 9.54303C111.034 9.70546 110.812 9.7596 110.598 9.68623C110.799 9.23219 110.61 9.07966 110.418 8.68816C110.307 8.46394 110.374 8.21638 110.138 8.05571C110.003 7.96348 109.772 8.11881 109.666 8.01072C109.438 7.77922 109.522 7.4721 109.366 7.16704C109.17 6.78451 108.721 6.49233 108.413 6.20519C106.676 4.59122 104.79 3.35772 102.48 2.72707C100.15 2.09081 97.4337 1.86286 95.1115 2.59676C94.1832 2.89005 93.3591 2.86 92.5237 3.40776C92.2528 3.58549 92.2237 3.53788 92.0861 3.83417C92.0543 3.90325 92.3428 4.08714 92.1662 4.20009C91.9742 4.32275 91.7623 4.07333 91.6645 3.86628C90.4559 4.74113 89.3234 5.90741 88.635 7.24471C87.951 8.57353 87.8882 10.1347 87.627 11.5788C86.4223 10.2024 84.7928 9.54266 83.0213 10.2043C81.4771 10.7808 80.2806 12.0481 79.9785 13.6899C79.7943 14.6908 79.9955 15.7043 80.4501 16.6074C80.6467 16.9976 80.8848 17.4296 81.2462 17.6923C81.532 17.8999 82.0215 17.8707 82.1562 18.2452C82.3624 18.819 81.171 20.0581 80.8616 20.5603C80.3021 21.4691 79.7821 22.4076 79.3864 23.4003C77.9673 21.3957 76.6089 19.2064 74.9953 17.3581C73.4724 15.6136 71.657 14.0491 69.8765 12.5746C66.1811 9.51428 62.3385 6.63926 58.2047 4.20121C54.3556 1.931 49.7062 0.670627 45.2203 1.11627C40.8372 1.55183 37.4816 4.32387 34.6578 7.52102C29.2284 13.6682 25.903 22.43 25.5781 30.613C25.4805 33.0712 25.6677 35.4973 26.2749 37.8816C26.5641 39.0169 26.5221 40.1335 26.6901 41.2834C26.8798 42.5805 27.2078 43.873 27.525 45.1437C28.7333 49.9841 30.2727 54.8208 32.0002 59.5009C32.8984 61.9346 33.9852 64.3139 35.4554 66.4599C36.1344 67.4513 37.0141 68.2268 37.7448 69.1681C38.4537 70.081 38.641 71.2016 38.7969 72.3217C39.1706 75.0077 39.4186 77.7051 39.6433 80.4067C39.7387 81.5517 39.8502 82.6867 40.0018 83.8236C40.134 84.815 39.8015 84.7663 38.9675 85.1029C39.1366 84.2121 35.1522 84.8182 34.776 84.879C34.3666 84.9451 33.9331 84.946 33.6107 84.9987C33.2502 85.0573 32.8973 85.1423 32.4821 85.1303C31.8718 85.1128 30.729 84.9569 30.496 85.7359C30.3357 84.8327 29.2764 85.8203 30.0601 85.6527C29.2556 85.7427 28.4347 85.5929 27.6206 85.6687C26.6875 85.7554 25.7463 85.8379 24.8198 85.9783C24.1747 86.0759 23.5592 86.3244 22.9131 86.3965C22.0862 86.4889 21.2233 86.4803 20.3884 86.5539C17.3089 86.8255 14.1169 87.4972 11.1235 88.2664C10.4454 88.4406 9.66632 88.5644 9.01849 88.844C8.84505 88.9187 8.68897 89.086 8.52281 89.1502C8.24427 89.2578 8.28235 89.1835 8.03498 89.2327C6.55281 89.529 5.02378 90.0129 3.5418 90.3927C2.71978 90.6035 1.38267 90.7935 0.712141 91.3672C0.411563 91.6241 0.148884 92.0798 0.630556 92.3718C1.01533 92.605 1.56452 92.2327 1.87592 92.0315C1.59849 92.7545 1.07526 93.1149 1.35784 93.9375C1.58094 94.5875 2.08465 95.3886 2.85962 94.9693C2.96342 95.2107 3.00542 95.6909 3.31104 95.7796C3.58567 95.8593 3.7845 95.5113 4.05353 95.5932C4.14986 95.6226 4.11327 95.8046 4.19952 95.8522C4.34813 95.934 4.4988 95.9687 4.66906 96.0264C4.81543 96.076 5.05104 96.178 5.20376 96.1888C5.30065 96.1957 5.52898 96.0299 5.52823 96.0299C5.75077 96.0637 5.87044 96.4896 6.03063 96.6126C6.2386 96.7724 6.41036 96.8088 6.6708 96.8667C7.21222 96.9869 7.91008 97.193 8.26742 96.6387C8.18564 97.0345 8.72388 96.9957 8.96136 97.0459C8.93504 96.8374 8.81985 96.6464 8.64211 96.5319C9.17307 96.567 8.95781 97.0948 9.35025 97.2343C9.62992 97.3334 9.59818 97.0814 9.81213 97.0534C10.094 97.0166 10.308 97.2212 10.7482 97.0325C10.8436 97.4565 10.8785 97.884 11.3992 97.9473C11.7048 97.9844 12.4175 97.4326 12.3771 97.8918C13.0599 97.6917 13.319 97.827 13.6758 98.4288C13.7361 98.0593 14.0279 98.1665 14.2956 98.1437C14.72 98.1075 14.7308 98.1416 15.0597 97.9014C15.0898 97.8795 15.3486 97.2867 15.4636 97.6551C15.5153 97.8201 15.1734 98.2085 15.0469 98.3072C15.2041 98.3868 15.7191 98.6651 15.9172 98.614C16.0886 98.5697 16.0892 98.2768 16.2951 98.2617C16.2447 98.4301 16.1945 98.5986 16.1439 98.767C16.5445 98.8253 16.8793 98.5572 17.1957 98.3608C17.4974 99.1236 18.3598 98.6939 18.8287 99.268C19.0769 99.5717 19.0884 99.8025 19.5611 99.8818C20.0449 99.963 20.4674 99.7507 20.8785 100.15C20.7481 99.9022 20.4235 99.6968 20.7461 99.4307C20.9656 99.7423 21.079 100.118 21.3321 100.407C21.367 100.26 21.4019 100.113 21.4369 99.9653C22.0968 100.671 22.9276 100.677 23.773 101.069V100.552C24.3782 101.476 24.4105 100.891 25.1336 100.514C25.0845 100.786 25.0352 101.057 24.9861 101.329C25.5064 101.289 25.9926 101.906 26.4197 101.382C26.6778 101.815 26.9905 101.602 27.4133 101.739C27.6538 101.818 27.8328 102.054 28.0668 102.14C28.4176 102.269 28.5223 102.263 28.8526 102.374C29.1462 102.474 29.3131 102.667 29.6807 102.729C29.9195 102.769 30.1361 102.766 30.3646 102.755C30.4529 102.751 30.4238 102.552 30.62 102.599C30.9234 102.671 31.1493 103.051 31.3677 103.246C31.6963 102.42 32.6163 103.527 33.061 103.674C33.1036 103.462 33.0959 103.207 33.2492 103.033C33.4292 103.427 33.4979 103.759 33.8715 104.013C34.0871 104.159 34.4037 104.264 34.6528 104.318C34.8102 104.351 35.0962 104.311 35.1951 104.359C35.3639 104.442 35.4261 104.663 35.5965 104.684C35.6968 104.696 35.8454 104.432 35.9205 104.453C36.264 104.546 36.4548 104.964 36.8017 105.189C37.8339 105.861 39.1329 105.926 40.2829 106.073C40.5716 106.11 40.6134 106.031 40.8479 106.201C40.973 106.291 40.9162 106.566 41.0701 106.644C41.6497 106.934 41.6501 106.314 41.7717 105.929C41.9634 106.182 41.9964 106.516 42.2587 106.717C42.4019 106.713 42.5453 106.716 42.6883 106.727C42.769 106.819 42.822 106.925 42.8466 107.046C43.1939 107.28 43.5873 107.199 43.9459 107.375C44.0635 107.432 44.2719 107.781 44.4167 107.881C44.6761 108.061 45.0771 108.157 45.3734 108.235C45.9947 108.399 46.8856 108.181 47.2552 108.83C47.7461 108.304 47.5562 108.932 47.8894 109.064C48.0862 109.142 48.3821 108.832 48.6004 108.863C48.9934 108.918 49.1349 109.344 49.2607 109.653C49.5001 109.6 49.3358 108.923 49.3291 108.774C49.6265 108.739 49.6926 109.522 49.7439 109.694C50.2134 109.468 49.4428 108.765 49.9476 108.539C49.9013 109.139 50.379 109.632 49.5258 109.718C49.6436 110.079 52.3955 110.48 52.5867 110.161C52.6291 110.751 53.0249 110.2 53.1709 109.999C53.1873 110.342 53.0702 110.83 53.4559 110.99C53.7181 111.098 54.3091 110.818 54.412 110.561C54.5294 110.953 54.7262 110.941 54.9708 111.19C55.1388 111.361 55.2495 111.658 55.4258 111.801C55.75 112.065 56.3533 112.025 56.7311 111.966C57.4704 111.85 57.3831 111.709 57.6465 112.477C57.7061 112.186 57.8927 111.576 58.2183 112.029C58.4256 112.317 57.9844 112.952 57.8569 113.205C58.1418 113.049 58.4246 112.863 58.7487 112.796C58.7668 112.896 58.7835 113.107 58.7357 113.2C58.7454 113.181 59.0911 113.413 59.2194 113.477C59.1886 113.462 59.3208 112.885 59.317 112.903C59.7731 113.185 59.4567 113.723 59.8607 114.001C59.9651 114.073 60.21 113.989 60.3362 114.033C60.5559 114.109 60.746 114.315 60.9413 114.435C60.7854 114.226 60.8078 113.875 60.8184 113.634C60.9178 113.688 60.9887 113.894 61.089 113.91C61.1269 113.916 61.5198 113.968 61.5172 113.966C61.9263 114.253 61.8421 114.289 61.4909 114.633C61.6164 114.83 62.1408 114.488 62.2827 114.431C62.3124 114.508 62.32 114.788 62.3758 114.838C62.4096 114.921 62.4436 115.004 62.4776 115.087C62.5823 115.009 62.6947 114.983 62.8146 115.009C62.8904 115.035 63.482 115.276 63.5221 115.193C63.3928 115.151 63.2753 115.087 63.1704 115.001C63.5119 114.694 63.7365 114.531 64.0511 114.974C64.0906 115.03 63.9545 115.23 63.9949 115.303C64.1452 115.574 64.4539 115.79 64.6636 116.011C64.7504 115.706 64.5484 114.942 65.0305 114.97C65.4156 114.992 65.7085 115.925 65.5752 116.215C65.7283 116.048 66.6424 115.882 66.8149 115.934C67.3027 116.082 67.1659 116.533 67.7661 115.872C68.1753 116.154 67.8146 116.261 67.8884 116.606C67.9965 116.628 68.0988 116.601 68.1957 116.525C68.1232 117.989 69.2029 116.871 69.9039 117.094C70.1791 117.182 70.2495 117.494 70.5449 117.586C70.7011 117.634 70.8749 117.52 71.0269 117.547C71.1486 117.53 71.2696 117.509 71.3898 117.483C71.5422 117.407 71.6137 117.492 71.6044 117.739C71.8493 117.866 71.7567 117.916 72.0431 117.94C72.2275 117.956 72.3972 117.765 72.6069 117.797C72.9685 117.854 72.9207 118.132 73.1519 118.277C73.3598 118.407 73.5943 118.403 73.8505 118.378C73.981 118.365 74.3475 118.197 74.3915 118.196C74.6652 118.192 74.5168 118.134 74.8454 118.369C75.1011 118.553 75.2085 118.671 75.5225 118.756C75.8827 118.852 76.5215 119.063 76.7638 118.803C77.0911 119.294 77.3475 118.934 77.7795 118.966C78.0005 118.983 78.0356 119.069 78.2324 119.103C78.5513 119.159 78.9491 119.111 79.2883 119.22C79.8228 119.391 79.8831 119.478 80.4294 119.501C80.528 119.462 80.6266 119.424 80.725 119.385C80.7544 119.55 80.8319 119.684 80.9576 119.788C81.2632 119.852 81.4639 119.698 81.7159 119.529C81.9037 120.114 82.5131 120.165 83.0344 120.242C83.8754 120.366 84.6797 120.434 85.4907 120.71C86.1757 120.944 86.862 121.206 87.5208 121.505C88.1007 121.768 88.6479 122.161 89.3039 121.976C90.7904 121.558 92.2309 120.032 93.4745 119.156C94.9475 118.118 96.5361 117.263 98.0752 116.33C104.203 112.616 110.676 109.474 116.717 105.622C120.016 103.519 123.076 101.02 126.618 99.3184C126.114 101.402 125.256 103.517 125.411 105.699C125.473 106.578 125.732 107.617 126.414 108.23C127.257 108.989 128.196 108.506 129.002 107.964C130.729 106.802 131.881 105.108 133.174 103.516C134.703 101.634 135.889 99.6109 137.012 97.4652C137.281 97.8429 137.077 98.4756 137.081 98.8944C137.086 99.4287 137.23 99.9436 137.478 100.421C138.117 101.652 139.335 101.95 140.434 101.107C142.551 99.4834 143.78 96.5924 144.914 94.2644C145.561 95.4678 146.479 96.9826 148.032 96.1231C149.314 95.4138 150.067 93.829 150.459 92.4866C151.604 88.5683 151.241 84.577 151.417 80.5604Z" fill="#222B28"/>
<path fill-rule="evenodd" clip-rule="evenodd" d="M149.473 57.0243C149.327 56.6692 149.263 56.7272 149.532 56.383C149.741 56.5893 149.573 56.7597 149.473 57.0243ZM155.952 78.5153C155.54 77.3466 155.794 76.0774 155.545 74.8786C155.43 74.3286 155.249 73.7951 155.184 73.2352C155.155 72.9867 154.934 71.8682 155.085 71.6921C154.621 71.4114 154.619 71.2036 154.512 70.653C154.677 70.4777 154.657 70.3281 154.45 70.204C154.315 70.0404 154.179 69.8767 154.044 69.7132C154.636 70.0024 154.285 69.2621 154.225 68.8355C154.177 68.4984 154.145 68.1466 154.033 67.8234C153.895 67.4262 153.587 67.2253 154.227 67.2253C154.016 66.9858 153.701 66.7386 153.596 66.4453C153.446 66.0232 153.694 65.4653 153.387 65.0925C153.215 64.8845 152.331 64.8031 152.486 64.3539C152.565 64.125 152.923 64.2959 153.034 64.1355C153.47 63.5052 152.183 63.244 152.12 62.9759C152.038 62.6283 152.503 62.5506 152.532 62.2256C152.559 61.9075 152.065 61.3847 151.934 61.1002C151.756 61.1435 151.561 61.4252 151.357 61.2906C151.318 61.2652 151.376 60.1639 151.33 60.0177C151.285 59.874 151.191 59.4928 151.158 59.4222C151.026 59.142 150.648 59.0055 150.589 58.6745C150.553 58.4769 151.327 58.1779 150.439 58.1685C150.758 57.6066 150.174 57.2651 149.961 56.7849C149.688 56.1675 149.527 55.5007 149.246 54.8801C148.973 54.2769 148.668 53.7045 148.274 53.1711C147.918 52.6881 147.764 52.2236 147.479 51.7136C147.422 51.6688 147.365 51.624 147.308 51.5791C147.071 51.6135 146.995 51.5054 147.08 51.2547C146.898 50.9856 146.763 50.6985 146.603 50.4175C146.417 50.091 146.166 49.8248 145.973 49.5072C145.718 49.0862 145.643 48.6114 145.354 48.1891C145 47.6696 144.601 47.2114 144.272 46.6724C143.86 45.9972 143.404 45.5775 142.886 45.0545C142.639 44.8055 142.61 44.1834 142.308 43.8298C141.978 43.4447 141.653 43.3403 141.425 42.8347C141.128 42.177 140.693 41.863 140.269 41.2945C139.919 40.8255 139.748 40.2865 139.363 39.8329C139.031 39.4432 138.655 39.0872 138.301 38.7177C137.855 38.2512 137.525 37.6842 137.06 37.2406C137.127 37.3046 136.656 36.9309 136.679 36.9428C136.575 36.8896 136.238 36.8469 136.287 36.8758C135.586 36.4634 134.707 34.954 133.651 35.7538C133.095 36.1744 133.362 36.9458 133.75 37.3648C133.916 37.5447 134.781 38.4319 134.968 38.0578C135.17 38.3438 135.792 39.7265 136.309 39.3303C136.256 39.8028 136.53 39.646 136.71 39.9654C136.829 40.1762 136.771 40.2796 136.858 40.6086C137.096 41.5129 138.006 42.3962 138.491 43.1848C139.696 45.1475 141.027 47.009 142.234 48.974C143.384 50.8467 144.672 52.6237 145.776 54.5216C147.031 56.6798 148.594 58.717 149.54 61.0436C149.572 61.1219 149.835 61.2456 149.9 61.3631C150.014 61.5671 149.989 61.92 150.062 62.1511C150.316 62.9524 150.727 63.7412 151.196 64.4049C151.607 64.9872 151.637 65.7786 151.92 66.4617C152.319 67.4245 152.74 68.3772 153.128 69.3448C153.731 70.8509 154.139 72.2944 154.556 73.8668C154.827 74.8857 155.041 75.9042 155.127 76.9564C155.207 77.924 155.226 78.932 155.584 79.8481C155.828 79.471 156.116 78.9824 155.952 78.5153Z" fill="#222B28"/>
<path fill-rule="evenodd" clip-rule="evenodd" d="M17.9586 99.2498C17.5251 99.1622 17.1172 99.0453 17.0254 98.5476C16.9624 98.7823 16.8997 99.017 16.8368 99.2516C17.3646 99.3711 17.8926 99.4908 18.4203 99.6103C18.2971 99.3932 18.2071 99.3 17.9586 99.2498Z" fill="#222B28"/>
<path fill-rule="evenodd" clip-rule="evenodd" d="M19.1219 17.5632C19.1547 17.4228 19.1973 17.2852 19.2498 17.1509C19.2854 17.2818 19.4602 17.5648 19.3584 17.6882C19.2288 17.8449 19.0978 17.7562 19.1219 17.5632ZM21.247 13.5197C21.3893 13.5825 21.6971 13.5946 21.8737 13.6476C21.4156 14.0417 21.3349 13.9258 20.7426 13.88C20.7162 13.4813 20.8783 13.3575 21.247 13.5197ZM17.2758 23.3918C17.3372 23.3934 17.3989 23.3949 17.4607 23.3964C17.4644 23.2228 17.4599 23.0494 17.4468 22.8761C18.0715 23.0126 17.7179 21.921 17.5217 21.6947C18.1311 21.7151 18.4279 19.7858 18.621 19.4141C18.7923 19.084 18.9865 18.9563 19.1118 18.5538C19.2214 18.2015 19.3399 17.8845 19.4981 17.5512C19.8614 16.785 20.338 16.0892 20.2501 15.1962C20.5579 15.8663 20.8286 15.1974 21.0239 14.877C21.3385 14.3608 22.106 13.7021 22.1876 13.089C22.2596 12.5493 21.8586 12.5207 22.0954 12.0202C22.3347 11.5135 22.5315 11.5643 22.9508 11.4022C23.2297 11.2943 23.2852 11.4254 23.4819 11.0733C23.6094 10.8453 23.5645 10.6754 23.7278 10.4886C23.7952 10.5472 23.8719 10.5714 23.9578 10.5614C24.0904 10.3864 24.1774 10.1915 24.2186 9.97663C24.3267 9.68651 24.379 9.4201 24.5418 9.14379C24.6962 8.88204 24.9703 8.18175 25.1155 8.05553C25.2697 7.92148 26.1444 7.98962 26.1407 7.99448C26.5019 7.54006 25.839 7.08733 26.7569 7.1831C26.5757 6.84556 27.2125 6.42661 27.3973 6.2388C27.859 5.77001 27.8958 5.55307 27.9932 4.96349C28.0427 4.66291 27.7197 4.69763 28.1527 4.62912C28.3317 4.60093 28.5035 4.82981 28.6327 4.79621C29.203 4.64835 28.6063 4.67654 28.7637 4.4441C28.8134 4.37036 29.0671 4.07277 29.0647 4.07594C29.0523 4.09088 29.1218 3.81699 29.1793 3.74661C29.2883 3.73728 29.3957 3.71823 29.5012 3.68948C29.5547 3.5812 29.6022 3.4703 29.6432 3.35679C30.056 3.01253 30.6736 2.8585 30.9591 2.48026C31.1437 2.23569 31.0884 1.99616 31.327 1.75234C31.5542 1.52009 31.8548 1.6883 31.8998 1.16369C31.9571 0.496256 31.2402 0.199225 30.9469 0.872819C30.1516 -0.106768 26.8273 3.48729 26.4433 3.95683C24.7752 5.99516 23.1356 8.0839 21.7673 10.3379C20.4341 12.5342 19.3399 14.8451 18.4847 17.2674C18.0723 18.4354 17.8212 19.5981 17.5693 20.8062C17.4847 21.2108 16.8528 23.0137 17.1158 23.4172C17.169 23.4088 17.2224 23.4002 17.2758 23.3918Z" fill="#222B28"/>
<path fill-rule="evenodd" clip-rule="evenodd" d="M148.579 73.3773C148.86 73.1899 148.86 73.1899 148.909 72.8357C148.533 72.9044 148.533 72.9044 148.579 73.3773Z" fill="#222B28"/>
<path fill-rule="evenodd" clip-rule="evenodd" d="M10.0824 97.2047C10.0861 97.2043 10.0888 97.2053 10.0909 97.2074C10.0847 97.1995 10.0623 97.1761 10.0824 97.2047Z" fill="#222B28"/>
<path fill-rule="evenodd" clip-rule="evenodd" d="M9.89361 97.3941C9.98042 97.5817 10.1199 97.6284 10.3122 97.5338C10.388 97.642 9.65464 96.8581 9.89361 97.3941Z" fill="#222B28"/>
<path fill-rule="evenodd" clip-rule="evenodd" d="M22.575 11.7583C22.135 12.621 22.6861 11.9935 22.6579 12.2738C22.6764 12.0897 22.7527 11.8274 22.575 11.7583Z" fill="#222B28"/>
<path fill-rule="evenodd" clip-rule="evenodd" d="M94.1149 25.1111C94.3055 26.6581 96.4219 25.9264 96.898 24.9907C97.2447 24.3095 98.1201 21.6175 97.1782 21.0488C96.48 20.6273 96.3308 22.4442 96.1587 22.8501C95.8702 23.5298 95.6449 23.0482 95.0036 23.2225C94.2958 23.415 94.0361 24.4697 94.1149 25.1111Z" fill="#222B28"/>
<path fill-rule="evenodd" clip-rule="evenodd" d="M91.8024 22.2794C92.5589 22.4474 93.3004 22.3608 93.8377 21.7633C94.1353 21.4325 94.5313 20.7763 93.9955 20.4561C93.5099 20.1662 92.9593 20.8452 92.448 20.7048C91.7525 20.5138 92.1106 19.7681 91.872 19.2756C90.9953 19.7805 90.5062 21.9915 91.8024 22.2794Z" fill="#222B28"/>
<path fill-rule="evenodd" clip-rule="evenodd" d="M92.5869 26.1855C91.8577 26.1841 91.8517 27.0809 92.2323 27.4653C92.5966 27.8331 93.5177 28.2054 94.0116 27.9194C94.9857 27.3548 93.177 26.2438 92.5869 26.1855Z" fill="#222B28"/>
<path fill-rule="evenodd" clip-rule="evenodd" d="M50.1568 61.8512C50.3125 61.9268 50.7714 62.3159 50.9649 62.1402C50.6919 61.8652 50.4188 61.5902 50.1458 61.3152C49.995 61.4806 49.8915 61.7224 50.1568 61.8512Z" fill="#222B28"/>
<path fill-rule="evenodd" clip-rule="evenodd" d="M46.7108 22.5032C46.6333 22.561 46.5556 22.6187 46.4781 22.6764C46.7397 22.8943 46.7332 22.9591 46.9968 22.7528C46.9186 22.6497 46.8233 22.5667 46.7108 22.5032Z" fill="#222B28"/>
<path fill-rule="evenodd" clip-rule="evenodd" d="M96.1344 73.8284C95.9879 73.5652 95.711 74.0506 95.5237 74.1296C95.2191 74.2578 94.9691 73.5782 95.0564 74.3928C94.3677 74.0775 93.9497 74.8009 93.5056 75.1777C92.8781 75.7101 92.1106 75.9989 91.692 76.755C93.6622 77.216 95.8269 75.5174 97.296 74.4018C97.5358 74.2195 98.734 73.3004 97.9218 73.2116C97.5897 73.1754 96.3809 74.2709 96.1344 73.8284Z" fill="#222B28"/>
<path fill-rule="evenodd" clip-rule="evenodd" d="M95.55 72.2336C95.9361 71.9296 95.1037 71.9018 94.972 71.8699C94.9834 72.1116 94.9944 72.3532 95.0058 72.595C95.1922 72.482 95.3736 72.3614 95.55 72.2336Z" fill="#222B28"/>
<path fill-rule="evenodd" clip-rule="evenodd" d="M94.1003 73.2474C94.2157 73.1753 94.5374 72.9504 94.3186 72.7827C94.1209 72.9085 93.9795 73.1139 93.9485 73.3482C93.9991 73.3146 94.0497 73.281 94.1003 73.2474Z" fill="#222B28"/>
<path fill-rule="evenodd" clip-rule="evenodd" d="M62.1917 53.6431C61.9451 53.7398 61.8346 53.8927 61.8605 54.1021C62.2395 54.0247 62.1672 53.6668 62.1917 53.6431Z" fill="#222B28"/>
</svg>
