<svg width="27" height="27" viewBox="0 0 27 27" stroke="#708F85" fill="none" xmlns="http://www.w3.org/2000/svg">
<path d="M13.8139 1.75711C13.6124 1.67599 13.3876 1.67599 13.1861 1.75711L3.11513 5.80462L13.5 9.97761L23.8849 5.80462L13.8139 1.75711ZM25.3125 7.0577L14.3438 11.4664V24.8993L25.3125 20.4906V7.0577ZM12.6562 24.901V11.4647L1.6875 7.0577V20.4923L12.6562 24.901ZM12.5601 0.181859C13.1635 -0.0606197 13.8365 -0.0606197 14.4399 0.181859L26.4701 5.01784C26.6265 5.08083 26.7606 5.18943 26.855 5.32965C26.9495 5.46988 27 5.63531 27 5.80462V20.4923C26.9998 20.8311 26.8986 21.1621 26.7094 21.4426C26.5202 21.7231 26.2517 21.9402 25.9386 22.0659L13.8139 26.9392C13.6124 27.0203 13.3876 27.0203 13.1861 26.9392L1.06313 22.0659C0.749674 21.9404 0.48084 21.7235 0.291333 21.443C0.101827 21.1625 0.000348181 20.8313 0 20.4923V5.80462C3.92174e-05 5.63531 0.0505301 5.46988 0.144968 5.32965C0.239406 5.18943 0.373465 5.08083 0.529875 5.01784L12.5601 0.181859Z" fill="black"/>
</svg>
