<svg width="23" height="23" viewBox="0 0 23 23" fill="none" xmlns="http://www.w3.org/2000/svg">
<path d="M11.5 1.76379e-05C9.60407 -0.00330408 7.73679 0.462602 6.06465 1.35619C4.39252 2.24978 2.9675 3.54328 1.91667 5.12135V2.71668C1.91667 2.27485 1.55849 1.91668 1.11667 1.91668H0.799999C0.358172 1.91668 0 2.27486 0 2.71668V7.82501C0 8.26684 0.358172 8.62501 0.8 8.62501H5.90833C6.35016 8.62501 6.70833 8.26684 6.70833 7.82501V7.50835C6.70833 7.06652 6.35016 6.70835 5.90833 6.70835H3.23437C4.88942 3.85251 7.95129 1.91668 11.5 1.91668C16.8044 1.91668 21.0833 6.19564 21.0833 11.5C21.0833 16.8044 16.8044 21.0833 11.5 21.0833C6.46501 21.0833 2.35392 17.228 1.94935 12.2998C1.9132 11.8594 1.55849 11.5 1.11667 11.5H0.799999C0.358172 11.5 -0.00290091 11.8594 0.0275325 12.3001C0.439691 18.2696 5.42764 23 11.5 23C17.8413 23 23 17.8413 23 11.5C23 5.15872 17.8413 1.76379e-05 11.5 1.76379e-05ZM11.3417 3.83335C10.8998 3.83335 10.5417 4.19152 10.5417 4.63335V11.6583C10.5417 12.1002 10.8998 12.4583 11.3417 12.4583H16.45C16.8918 12.4583 17.25 12.1002 17.25 11.6583V11.3417C17.25 10.8998 16.8918 10.5417 16.45 10.5417H13.2583C12.8165 10.5417 12.4583 10.1835 12.4583 9.74168V4.63335C12.4583 4.19152 12.1002 3.83335 11.6583 3.83335H11.3417Z" fill="#708F85"/>
</svg>
