<svg width="18" height="18" viewBox="0 0 18 18" fill="none" xmlns="http://www.w3.org/2000/svg">
<path d="M3.17595 2.25C3.45672 2.25 3.726 2.13147 3.92453 1.92049C4.12307 1.70952 4.2346 1.42337 4.2346 1.125C4.2346 0.826631 4.12307 0.540484 3.92453 0.329505C3.726 0.118527 3.45672 0 3.17595 0H1.05865C0.777879 0 0.508607 0.118527 0.310072 0.329505C0.111536 0.540484 0 0.826631 0 1.125V16.875C0 17.1734 0.111536 17.4595 0.310072 17.6705C0.508607 17.8815 0.777879 18 1.05865 18H3.17595C3.45672 18 3.726 17.8815 3.92453 17.6705C4.12307 17.4595 4.2346 17.1734 4.2346 16.875C4.2346 16.5766 4.12307 16.2905 3.92453 16.0795C3.726 15.8685 3.45672 15.75 3.17595 15.75H2.1173V2.25H3.17595ZM17.8065 8.3475L14.8211 3.8475C14.6592 3.60496 14.4135 3.44041 14.1378 3.38982C13.862 3.33922 13.5787 3.4067 13.3496 3.5775C13.2351 3.66276 13.1376 3.77127 13.0628 3.89678C12.988 4.02229 12.9373 4.1623 12.9137 4.30873C12.8901 4.45517 12.894 4.60512 12.9252 4.74994C12.9564 4.89477 13.0143 5.03158 13.0955 5.1525L14.9164 7.875H6.3519C6.07113 7.875 5.80186 7.99353 5.60333 8.2045C5.40479 8.41548 5.29325 8.70163 5.29325 9C5.29325 9.29837 5.40479 9.58452 5.60333 9.7955C5.80186 10.0065 6.07113 10.125 6.3519 10.125H14.8211L12.9155 12.825C12.8321 12.9432 12.7714 13.0777 12.7369 13.2208C12.7024 13.3639 12.6948 13.5128 12.7144 13.6591C12.7341 13.8054 12.7807 13.9461 12.8515 14.0732C12.9224 14.2003 13.0161 14.3114 13.1273 14.4C13.3105 14.546 13.5334 14.625 13.7625 14.625C13.9268 14.625 14.0889 14.5843 14.2359 14.5062C14.3829 14.4281 14.5108 14.3147 14.6094 14.175L17.7853 9.675C17.9209 9.48473 17.996 9.25356 17.9998 9.01492C18.0037 8.77629 17.9359 8.54255 17.8065 8.3475Z" fill="#DA762D"/>
</svg>
