<svg width="13" height="25" viewBox="0 0 13 25" fill="none" xmlns="http://www.w3.org/2000/svg">
<path d="M2.07348 0.000121159C2.34023 -0.000784808 2.6038 0.0580874 2.84481 0.172414C3.08582 0.28674 3.29815 0.453614 3.46621 0.660775L12.0904 11.374C12.353 11.6935 12.4966 12.0943 12.4966 12.5079C12.4966 12.9214 12.353 13.3222 12.0904 13.6417L3.16266 24.355C2.85959 24.7196 2.42407 24.9489 1.95193 24.9924C1.47978 25.036 1.00968 24.8902 0.645042 24.5871C0.280404 24.284 0.051097 23.8485 0.00756659 23.3764C-0.0359648 22.9042 0.109845 22.4341 0.412921 22.0695L8.39431 12.4989L0.680756 2.92842C0.462414 2.66632 0.323718 2.34718 0.28108 2.00873C0.238442 1.67028 0.293646 1.3267 0.44016 1.01864C0.586675 0.710586 0.818367 0.450948 1.10782 0.270446C1.39728 0.0899439 1.73238 -0.00386332 2.07348 0.000121159Z" fill="#F9FBFA"/>
</svg>
