<svg width="18" height="18" viewBox="0 0 18 18" fill="none" xmlns="http://www.w3.org/2000/svg">
<path d="M14 16.5H14.5V16V7.97185C14.6628 7.98986 14.8295 8 15 8C15.1705 8 15.3372 7.98986 15.5 7.97185V16C15.5 16.8239 14.8239 17.5 14 17.5H2C1.17614 17.5 0.5 16.8239 0.5 16V4C0.5 3.17582 1.17447 2.5 2 2.5H10.0282C10.0101 2.66281 10 2.82954 10 3C10 3.17046 10.0101 3.33719 10.0282 3.5H2H1.5V4V16V16.5H2H14ZM14.0433 0.690301C14.3466 0.564664 14.6717 0.5 15 0.5C15.663 0.5 16.2989 0.763392 16.7678 1.23223C17.2366 1.70107 17.5 2.33696 17.5 3C17.5 3.66304 17.2366 4.29893 16.7678 4.76777C16.2989 5.23661 15.663 5.5 15 5.5C14.6717 5.5 14.3466 5.43534 14.0433 5.3097C13.74 5.18406 13.4644 4.99991 13.2322 4.76777C13.0001 4.53562 12.8159 4.26002 12.6903 3.95671C12.5647 3.65339 12.5 3.32831 12.5 3C12.5 2.67169 12.5647 2.34661 12.6903 2.04329C12.8159 1.73998 13.0001 1.46438 13.2322 1.23223C13.4644 1.00009 13.74 0.815938 14.0433 0.690301Z" fill="#222B28" stroke="#222B28"/>
</svg>
