<svg width="20" height="20" viewBox="0 0 20 20" fill="none" xmlns="http://www.w3.org/2000/svg">
<path d="M1 19V18C1 16.4087 1.71116 14.8826 2.97703 13.7574C4.2429 12.6321 5.95979 12 7.75 12H12.25C14.0402 12 15.7571 12.6321 17.023 13.7574C18.2888 14.8826 19 16.4087 19 18V19M10 9C8.80653 9 7.66193 8.57857 6.81802 7.82843C5.97411 7.07828 5.5 6.06087 5.5 5C5.5 3.93913 5.97411 2.92172 6.81802 2.17157C7.66193 1.42143 8.80653 1 10 1C11.1935 1 12.3381 1.42143 13.182 2.17157C14.0259 2.92172 14.5 3.93913 14.5 5C14.5 6.06087 14.0259 7.07828 13.182 7.82843C12.3381 8.57857 11.1935 9 10 9Z" stroke="#222B28" stroke-width="2" stroke-linecap="round"/>
</svg>
