<svg width="20" height="20" viewBox="0 0 20 20" fill="none" xmlns="http://www.w3.org/2000/svg">
<path d="M17 7.63158H3C1.89543 7.63158 1 8.47988 1 9.52632V17.1053C1 18.1517 1.89543 19 3 19H17C18.1046 19 19 18.1517 19 17.1053V9.52632C19 8.47988 18.1046 7.63158 17 7.63158Z" stroke="#222B28" stroke-width="2" stroke-linecap="round" stroke-linejoin="round"/>
<path d="M4 3.84211C4 3.08833 4.31607 2.36543 4.87868 1.83243C5.44129 1.29944 6.20435 1 7 1H13C13.7956 1 14.5587 1.29944 15.1213 1.83243C15.6839 2.36543 16 3.08833 16 3.84211V7.63158H4V3.84211Z" stroke="#222B28" stroke-width="2" stroke-linecap="round" stroke-linejoin="round"/>
</svg>
