<svg width="136" height="131" viewBox="0 0 136 131" fill="none" xmlns="http://www.w3.org/2000/svg">
<path fill-rule="evenodd" clip-rule="evenodd" d="M93.2037 110.53C86.7484 111.941 80.2931 113.351 73.8377 114.762C72.9289 114.961 72.0202 115.159 71.1115 115.358C71.3818 107.028 71.6523 98.6987 71.9226 90.369C71.9616 89.1659 72.0007 87.9628 72.0397 86.7599C70.544 88.0691 68.974 89.3243 67.5428 90.703C65.7107 92.4679 63.949 94.2948 62.0634 96.0073C58.8195 98.9528 55.4117 101.81 51.6555 104.084C47.574 106.555 42.8658 108.145 38.1266 108.694C36.3808 108.896 34.8004 108.847 33.071 108.667C31.5661 108.51 30.0614 108.353 28.5564 108.196C27.9504 108.133 27.3441 108.07 26.7379 108.007C26.5915 107.992 26.1149 108.026 25.9981 107.928C25.786 107.749 25.6753 106.937 25.5918 106.679C25.2435 105.605 24.8975 104.531 24.5536 103.456C23.619 100.534 22.6975 97.6076 21.8077 94.6718C21.0457 92.1586 20.2446 89.6345 19.6755 87.0686C19.6089 86.7679 19.4627 86.3741 19.4875 86.063C19.5233 85.6088 19.3081 85.7044 19.9071 85.698C21.3149 85.6826 22.8037 86.0246 24.213 86.1247C25.6642 86.2276 27.1183 86.2889 28.5732 86.3035C36.2774 86.382 45.1449 85.547 51.3861 80.5587C53.4786 78.8863 55.5806 76.9531 57.2021 74.803C59.4886 71.7712 60.7349 67.7345 61.0385 63.9936C61.38 59.7901 60.6712 55.4547 59.6386 51.3856C59.4295 50.5622 59.4766 50.254 59.6563 49.3924C59.8054 48.6772 59.9541 47.9618 60.1032 47.2466C60.1447 47.048 60.1893 46.2135 60.3533 46.091C60.6408 45.8771 62.0263 46.1121 62.3629 46.1163L66.5372 46.1685C69.2255 46.202 71.9137 46.2357 74.602 46.2694C75.9981 46.2868 77.3929 46.5049 78.7802 46.6493C81.7544 46.9582 84.7285 47.2675 87.7025 47.5764C88.2985 47.6385 88.8946 47.7006 89.4906 47.7623C89.1087 51.1471 88.7268 54.5317 88.3445 57.9164C88.0598 60.4404 89.0532 62.9428 89.5824 65.41C90.7751 70.9682 91.9369 76.6074 92.379 82.2839C92.7952 87.6284 92.7908 93.0302 92.9264 98.3874C93.0289 102.435 93.1221 106.482 93.2037 110.53Z" fill="#189A46"/>
<path fill-rule="evenodd" clip-rule="evenodd" d="M51.6998 8.37691C51.6998 8.06617 51.7925 7.84858 51.9669 7.59106C52.3697 7.941 53.0007 9.67632 53.6721 8.556C53.8055 8.3332 53.8117 7.5033 54.2695 7.76225C54.4847 7.88382 54.4259 8.46951 54.4106 8.66804C54.3562 9.37475 54.0352 10.3607 53.1236 10.3204C52.1932 10.2794 51.6747 9.14997 51.6998 8.37691Z" fill="#222B28"/>
<path fill-rule="evenodd" clip-rule="evenodd" d="M52.2613 6.82441C50.714 7.10981 51.3315 5.71783 52.4649 5.60233C52.885 5.55947 53.6097 5.58196 53.5101 6.20233C53.422 6.75099 52.6702 6.74888 52.2613 6.82441Z" fill="#222B28"/>
<path fill-rule="evenodd" clip-rule="evenodd" d="M47.974 11.4117C47.4869 11.4579 46.6841 10.771 47.4931 10.6873C47.8666 10.6488 48.6512 11.3472 47.974 11.4117Z" fill="#222B28"/>
<path fill-rule="evenodd" clip-rule="evenodd" d="M132.931 19.551C132.559 19.8363 131.441 18.9184 131.076 18.7562C129.654 18.1245 128.019 17.775 126.491 17.5027C123.465 16.9637 120.364 16.66 117.293 16.5634C115.419 16.5042 113.645 16.5698 111.792 16.7694C111.33 16.8191 108.209 17.34 108.133 16.4844C107.998 14.982 116.255 15.0532 117.042 15.0559C120.616 15.0681 123.845 15.4648 127.317 16.2437C128.257 16.4543 134.033 18.7074 132.931 19.551Z" fill="#222B28"/>
<path fill-rule="evenodd" clip-rule="evenodd" d="M34.2199 44.3745C32.3398 44.9306 30.1946 44.8547 28.4307 43.9587C28.1276 43.8049 27.3911 43.4777 27.7814 43.0933C28.2011 42.6799 29.3769 43.3813 29.8348 43.471C32.0567 43.907 34.874 43.043 36.4479 41.4227C37.2292 40.6188 37.6701 39.6027 37.8561 38.5083C37.9621 37.884 38.0165 37.2238 37.9783 36.591C37.938 35.9206 37.6639 35.1999 37.8474 34.5327C38.6671 35.0188 38.6766 36.2985 38.735 37.1249C38.8085 38.1669 38.8022 39.1689 38.5096 40.1841C37.9073 42.2745 36.2902 43.7621 34.2199 44.3745Z" fill="#222B28"/>
<path fill-rule="evenodd" clip-rule="evenodd" d="M0.627363 100.055C0.687071 100.215 0.74332 100.364 0.808854 100.54C1.06243 100.074 1.06244 100.074 0.627363 100.055ZM2.99041 112.217C3.93082 112.652 4.97863 111.485 5.47924 110.835C6.31371 109.751 6.68507 108.501 7.01401 107.196C7.37791 105.752 7.79842 104.325 8.13664 102.875C8.28701 102.228 8.431 101.579 8.60011 100.937C8.7401 100.405 9.26182 99.4584 9.04228 98.9065C8.67093 97.9731 6.84708 97.7163 6.97141 96.4646C7.08555 95.3143 9.09253 96.5427 9.57439 96.7866C10.6752 97.3444 10.1027 96.6406 9.57093 96.2329C9.16808 95.9238 7.2938 94.5858 8.27481 93.911C8.91158 93.4728 10.2965 94.8066 10.8243 95.0525C11.3784 95.3105 11.5803 95.2428 12.0295 94.7882C12.3492 94.4645 12.8243 94.0551 13.0713 93.684C13.6815 92.7665 12.864 90.9683 12.7384 89.9172C12.7104 89.6833 12.8864 88.4014 12.7231 88.2496C12.5081 88.0502 11.5883 88.1906 11.2502 88.1398C10.038 87.9576 8.84204 87.8201 7.62784 87.6685C6.82578 87.5682 4.44016 86.9644 3.96796 87.7961C3.59332 88.4556 3.71328 89.7219 3.7131 90.4271C3.71256 91.9116 3.70782 93.3645 3.56747 94.8539C3.26055 98.1062 3.03027 101.357 2.73464 104.61C2.59102 106.188 2.29393 107.749 2.14502 109.327C2.05254 110.306 1.90655 111.717 2.99041 112.217ZM21.2518 88.1979C22.1422 90.4247 22.8789 92.719 23.6491 94.9888C24.0053 96.0383 24.3339 97.0981 24.6954 98.1455C25.0417 99.1489 25.5985 100.053 25.8841 101.079C26.4233 103.017 26.877 104.942 27.5156 106.846C27.6075 107.121 27.5536 107.728 27.7186 107.922C27.9213 108.161 28.8192 108.125 29.1372 108.165C30.4377 108.329 31.7514 108.455 33.0638 108.4C31.8359 106.852 30.4586 105.431 29.0469 104.046C27.8107 102.834 26.141 101.458 25.9399 99.6102C25.6721 97.156 28.233 97.6493 29.8264 97.7979C32.0491 98.0056 34.5685 98.9065 36.793 98.4071C35.2511 96.3221 32.9141 94.7673 30.9787 93.0701C30.2238 92.408 29.4297 91.6804 29.0442 90.7282C28.8479 90.2427 28.7502 89.6829 28.8834 89.1676C29.0452 88.5419 29.4044 88.4281 29.9252 88.1325C26.8371 88.1325 23.7141 88.0224 20.7725 86.9618C20.6556 87.4548 21.0863 87.7839 21.2518 88.1979ZM35.0578 107.868C35.5972 108.601 36.5687 108.401 37.3684 108.355C38.5424 108.287 39.7133 108.144 40.8659 107.909C42.0293 107.671 43.1966 107.353 44.3066 106.927C44.54 106.837 45.2665 106.632 45.3521 106.351C45.4296 106.097 44.9815 105.576 44.8837 105.382C44.5724 104.761 44.4181 103.656 45.1213 103.214C45.7018 102.849 46.5592 103.215 47.1448 103.387C48.0122 103.643 49.0469 104.159 49.9278 103.767C51.0517 103.265 52.1647 102.545 53.2214 101.914C51.3126 100.179 49.4378 98.4104 47.4803 96.7295C45.6872 95.1894 43.5273 93.4173 42.4067 91.296C41.9846 90.497 41.7113 89.3647 42.229 88.5326C42.6931 87.7866 43.6289 87.7604 44.4177 87.8287C46.7611 88.0318 49.0697 88.6138 51.3748 89.048C52.1509 89.1943 57.1433 90.3523 57.1568 89.0926C57.1595 88.8208 56.6425 88.2019 56.5102 87.986C56.2103 87.4959 55.904 87.0113 55.5799 86.5368C54.8247 85.431 54.0038 84.3727 53.1898 83.3105C52.7791 82.7744 52.2541 81.6576 51.4679 81.7766C51.1093 81.8309 50.7501 82.2299 50.4608 82.4365C49.9622 82.7924 49.4454 83.1221 48.915 83.4281C46.7702 84.6652 44.4019 85.2932 42.0155 85.8767C41.4745 86.0088 38.8903 86.2752 38.6365 86.8087C38.5098 87.0752 38.8016 87.7049 38.8093 87.9932C38.8205 88.4274 38.7248 88.878 38.4863 89.2458C37.794 90.313 36.28 90.2569 35.165 90.2252C33.7488 90.185 32.2986 90.1153 30.8889 90.288C32.2914 91.586 33.7468 92.8245 35.2107 94.0517C36.2425 94.9162 37.3923 95.7354 38.2031 96.8238C38.8972 97.7554 39.4136 99.341 38.5271 100.345C37.5783 101.419 35.4395 100.943 34.2361 100.76C32.8331 100.547 31.4425 100.285 30.0517 100.007C29.5804 99.9126 29.0939 99.8035 28.6122 99.7782C28.0362 99.748 27.825 99.7154 28.2241 100.25C29.2156 101.578 30.7069 102.533 31.7509 103.83C32.2426 104.44 32.8158 104.927 33.3328 105.513C33.9769 106.243 34.4824 107.085 35.0578 107.868ZM54.3576 100.61C55.0353 101.299 55.8002 100.319 56.3496 99.8702C57.1733 99.1966 57.9772 98.4996 58.813 97.8408C60.3961 96.5935 62.0441 95.4363 63.5325 94.0717C64.0016 93.6415 64.7725 93.1599 64.9153 92.5009C65.0969 91.6602 64.6602 90.9086 65.1066 90.0632C65.9521 88.462 67.7008 89.7719 68.8413 88.8503C69.4271 88.377 69.8399 87.69 70.3016 87.104C70.8512 86.4064 71.5529 85.7296 71.8693 84.8893C72.1984 84.0155 72.2416 83.5972 71.629 82.8585C70.9688 82.0628 70.1682 81.3361 69.6384 80.4406C69.2736 79.8237 68.9758 78.9168 69.5492 78.3197C70.0122 77.8373 70.814 77.9673 71.4133 78.0042C72.286 78.0583 73.1543 78.1398 74.0119 78.313C74.69 78.4499 75.9847 78.8079 76.6353 78.4358C78.1704 77.5584 75.4105 75.298 74.7992 74.6274C73.4334 73.1289 72.0011 71.6928 70.5807 70.2463C69.2673 68.9089 67.9411 67.5701 66.7076 66.1575C65.7898 65.1061 64.7141 63.6219 65.2063 62.1374C65.6054 60.9341 66.9486 60.896 68.0176 60.9796C69.5831 61.1023 71.141 61.3588 72.6996 61.5448C73.8615 61.6835 76.0974 62.1197 77.0886 61.1962C78.1131 60.242 75.9259 57.4067 75.3605 56.5573C74.1656 54.7624 72.7888 53.0966 71.3625 51.4828C70.67 50.6992 69.9639 49.9273 69.2574 49.156C68.6443 48.4859 68.082 47.6418 67.3775 47.0664C66.6068 46.4373 65.4559 46.5112 64.5115 46.4163C63.5181 46.3166 62.4619 46.1695 61.4634 46.1729C60.554 46.1762 60.779 47.0518 60.7406 47.8111C60.7313 47.993 60.4862 49.6062 60.7622 49.6315C60.7924 49.2723 60.8225 48.9132 60.8527 48.5538C61.6293 48.8726 62.2054 49.5587 62.8076 50.1161C63.4083 50.6724 64.2241 51.2387 64.4778 52.0568C65.1932 54.366 62.3378 53.5468 61.1412 53.3123C61.4105 55.9353 62.0813 58.4846 62.451 61.0897C62.6059 62.1814 62.5427 63.1693 62.4219 64.255C62.3531 64.8738 62.3611 65.4984 62.2857 66.1167C62.2258 66.6072 61.9975 67.168 62.0887 67.6611C62.2557 68.5635 63.3949 69.511 63.9011 70.2745C64.5728 71.2877 65.1657 72.3854 65.4763 73.5681C66.0375 75.7029 65.0815 77.2377 62.8482 77.4432C61.8408 77.5358 60.726 77.3802 59.7281 77.2378C58.8703 77.1155 57.7748 76.4795 56.9924 77.0549C56.672 77.2903 56.4514 77.7073 56.1705 77.9951C55.7631 78.4124 55.3052 78.7846 54.8556 79.1544C54.4315 79.5031 53.2719 80.1228 53.386 80.6571C53.4721 81.0599 54.1711 81.6354 54.408 81.9335C54.7185 82.3242 55.0267 82.7169 55.3265 83.1162C56.0878 84.1304 56.8136 85.1778 57.4704 86.2628C58.2652 87.5756 59.3809 89.9214 58.0367 91.282C57.2582 92.07 55.9653 91.9311 54.9727 91.7758C53.6194 91.5645 52.2748 91.2925 50.9458 90.9647C49.6149 90.6365 48.2731 90.4078 46.9265 90.1579C45.7762 89.9447 44.4384 89.5373 43.2885 89.9591C46.6484 93.8707 50.7543 96.9446 54.3576 100.61ZM73.9584 82.5168C74.3904 82.0116 74.8327 81.4506 75.2152 80.9045C75.5673 80.4015 75.5385 80.1821 74.9449 80.0254C74.5751 79.928 74.1646 80.0232 73.7876 79.9794C73.3952 79.9335 73.0034 79.8071 72.6189 79.7205C72.1873 79.6233 71.7028 79.4755 71.2571 79.4766C70.7551 79.4778 70.7055 79.4321 70.9578 79.8838C71.3039 80.5025 71.9738 81.0435 72.4511 81.5593C72.7513 81.8838 73.4698 83.0882 73.9584 82.5168ZM73.4028 89.6099C73.6304 90.1098 75.268 89.7434 75.5316 89.3993C76.1074 88.6471 74.6339 86.8957 74.2467 86.2622C73.6622 86.6496 73.46 87.1617 73.4252 87.8376C73.401 88.3058 73.2091 89.1841 73.4028 89.6099ZM72.7864 114.453C73.7649 114.55 75.047 113.986 75.9432 113.676C77.1845 113.247 78.4751 112.94 79.7558 112.655C82.328 112.08 84.9867 112.001 87.5662 111.45C85.9271 109.317 83.945 107.479 82.279 105.368C81.675 104.603 80.7868 103.507 81.0672 102.457C81.3419 101.428 82.4048 101.655 83.1941 101.893C84.2529 102.211 85.2759 102.654 86.311 103.04C86.8005 103.222 88.9868 104.272 89.3911 103.591C89.664 103.132 88.1119 101.42 87.8856 101.124C87.0402 100.019 86.1228 98.9711 85.1982 97.9318C83.4732 95.9926 81.5152 94.0085 80.1808 91.7711C79.1807 90.0936 78.8459 87.4462 81.5465 87.5522C82.6617 87.5958 83.7978 87.9415 84.8856 88.1689C85.8907 88.379 87.3761 88.8434 88.4015 88.584C89.4816 88.3109 88.2395 86.6989 87.8996 86.1672C87.1815 85.0435 86.3379 83.9937 85.5468 82.9205C84.6956 81.7662 83.7879 80.6367 82.9922 79.4436C82.4971 78.7013 81.6941 77.4061 82.144 76.4675C82.6604 75.3903 84.4338 76.0562 85.3021 76.2195C86.947 76.5292 88.5606 77.0447 90.2503 77.0447C90.2334 76.1966 89.3645 75.451 88.8646 74.8493C88.1141 73.9459 87.3415 73.0712 86.5209 72.2305C85.9438 71.6391 85.3129 70.6761 84.6377 70.2204C83.947 69.7546 83.5389 71.2277 83.2671 71.7754C81.288 75.7695 79.1245 79.6854 76.4554 83.2682C75.9182 83.9895 75.1294 84.572 75.5804 85.4929C76.0493 86.4508 76.6677 87.2889 76.8481 88.3701C76.9813 89.1683 76.9114 90.2784 76.2967 90.8851C75.7009 91.4729 74.8258 91.3397 74.09 91.5694C73.3085 91.8137 73.5288 92.5065 73.522 93.2001C73.5098 94.413 73.4951 95.6254 73.5026 96.8385C73.5089 97.9165 73.5239 98.9944 73.5368 100.072C73.5503 101.212 73.8279 102.02 74.1392 103.094C74.301 103.653 74.3567 104.23 74.1777 104.792C74.0237 105.275 73.7707 105.367 73.474 105.709C72.896 106.374 73.0808 107.637 73.01 108.483C72.959 109.088 72.1127 114.387 72.7864 114.453ZM75.1943 127.414C75.4402 127.724 76.3234 127.625 76.668 127.647C77.3227 127.69 77.9784 127.691 78.6331 127.726C80.0299 127.802 81.4089 127.996 82.81 128.021C83.9616 128.041 85.1549 128.097 86.2615 128.176C86.807 128.215 87.4198 127.978 87.9503 128.089C88.4731 128.198 88.6728 128.351 89.2389 128.306C90.6486 128.193 92.0911 128.335 93.5033 128.37C94.8098 128.402 96.1276 128.303 97.4361 128.285C98.9083 128.266 100.384 128.32 101.856 128.335C103.431 128.351 105.039 128.257 106.594 128.557C106.45 127.895 106.46 127.115 105.925 126.62C105.378 126.114 104.47 125.998 103.765 125.916C102.739 125.795 101.722 125.768 100.698 125.724C100.059 125.697 99.4431 125.48 98.8072 125.408C97.8954 125.304 96.9138 125.364 95.9949 125.349C95.6796 125.344 95.4703 125.227 95.1812 125.183C94.8415 125.132 94.5098 125.218 94.1397 125.128C93.3723 124.941 92.5895 124.744 91.8448 124.494C91.3902 124.341 91.409 124.212 91.0364 124.566C90.8028 124.789 90.6595 125.209 90.4624 125.471C90.1369 125.902 89.5544 126.419 89.0525 125.899C88.5206 125.348 89.0905 124.731 88.9724 124.159C88.8812 123.718 88.0429 123.331 87.6242 123.497C87.0448 123.727 86.8733 124.924 86.2529 125.06C85.4729 125.23 85.6835 124.049 85.7893 123.61C86.0658 122.46 85.9669 122.422 85.0486 121.656C84.3483 121.072 84.1527 120.844 83.2841 121.281C82.4088 121.72 81.4527 121.912 80.477 122.017C79.3245 122.141 78.2494 122.011 77.1217 121.781C76.5909 121.672 75.5565 121.265 75.2097 121.822C74.8189 122.45 75.221 123.989 75.2352 124.716C75.2459 125.258 75.2789 125.815 75.2272 126.356C75.2004 126.635 74.9955 127.165 75.1943 127.414ZM89.3312 111.005C90.1415 110.935 90.9351 110.72 91.743 110.622C92.0374 110.587 92.6696 110.598 92.913 110.389C93.2108 110.134 93.0712 110.16 93.0106 109.789C92.7215 108.027 92.6112 106.321 92.6538 104.531C92.6856 103.191 92.947 101.106 92.1488 99.9408C91.208 98.5677 89.7783 97.5516 88.8242 96.1741C88.308 95.429 87.588 93.4289 89.2218 93.4826C89.8719 93.5037 90.5663 93.9159 91.1973 94.0686C92.0905 94.2847 92.145 94.0677 92.066 93.2582C91.8807 91.3582 91.9358 89.4501 91.7419 87.5492C91.5426 85.5952 91.3289 83.64 91.1095 81.6878C91.0027 80.7394 90.9541 79.7349 90.77 78.8005C90.5909 77.8921 89.7089 78.3811 88.9371 78.3441C86.8933 78.246 84.9066 76.9926 82.8526 77.1889C84.5651 80.4022 87.4855 82.843 89.147 86.0988C89.7211 87.2238 90.2558 88.9841 88.8399 89.7353C87.2618 90.5727 84.8532 89.5116 83.2296 89.242C82.6613 89.1479 80.4042 88.4882 80.2993 89.3673C80.2427 89.8406 81.1615 90.9475 81.3912 91.2894C81.9144 92.0691 82.5171 92.7921 83.0831 93.5401C84.2137 95.0341 85.5588 96.3343 86.7313 97.7966C87.754 99.0721 89.009 100.322 89.8333 101.737C90.6069 103.065 90.756 105.458 88.5805 105.196C86.3536 104.928 84.4165 103.191 82.1465 103.14C83.3068 104.669 84.631 106.061 85.9187 107.481C86.5384 108.164 87.1466 108.857 87.734 109.568C88.1101 110.024 88.6263 111.067 89.3312 111.005ZM92.3705 97.1463C92.3214 96.5103 92.4754 96.155 91.8979 95.8063C91.5257 95.5819 90.6466 95.2329 90.2388 95.3875C90.3928 95.5664 92.1555 97.6741 92.3439 97.5042C92.3909 97.3897 92.3998 97.2703 92.3705 97.1463ZM89.2975 67.8953C89.1916 66.672 88.9453 65.4625 88.8923 64.2346C88.8564 63.4047 88.9748 62.3001 88.4126 61.6078C87.7325 62.8808 87.2751 64.2576 86.5955 65.5311C86.3046 66.076 85.9804 66.6024 85.6795 67.1414C85.4742 67.5101 84.8714 68.3014 84.9189 68.7408C84.9998 69.4912 86.491 70.5665 86.974 71.1021C88.003 72.2436 89.0104 73.4052 90.0617 74.5267C89.9197 72.3042 89.4894 70.1129 89.2975 67.8953ZM89.3268 48.0192C89.0427 47.6201 87.0619 47.8087 86.6343 47.7707C85.2888 47.6518 83.8267 47.5457 82.5246 47.1843C84.592 49.7427 86.4499 52.5126 87.6646 55.5843C88.1254 54.3294 88.4288 53.0227 88.7104 51.7177C88.8535 51.0538 88.9764 50.3871 89.0831 49.7163C89.1313 49.413 89.5107 48.2777 89.3268 48.0192ZM83.0134 66.742C83.5671 67.0184 85.2466 62.8839 85.3211 62.4257C84.5247 62.6076 81.3537 62.7561 81.1675 63.7612C81.0805 64.2306 81.6224 64.7973 81.8594 65.1368C82.1494 65.5524 82.5554 66.5136 83.0134 66.742ZM77.9814 62.5335C76.8088 64.0033 74.6199 63.7062 72.9828 63.4974C71.874 63.3556 70.7756 63.1652 69.6703 63.0022C68.5795 62.8411 67.2565 62.5437 66.1984 62.993C67.914 65.405 70.1225 67.3994 72.2077 69.4794C73.2765 70.5459 74.3092 71.6478 75.337 72.7541C76.3449 73.8392 77.1488 75.2048 78.2181 76.2102C79.1256 74.5524 79.9844 72.8696 80.8593 71.1947C81.2267 70.4911 81.6996 69.8576 82.0768 69.1621C82.4924 68.3959 82.5563 68.0434 82.026 67.3491C81.2367 66.3153 80.1271 64.9153 80.2859 63.5271C80.471 61.906 82.3966 61.728 83.6574 61.3784C84.2909 61.2028 85.0183 61.0695 85.5976 60.7497C86.3334 60.3428 86.3665 59.6715 86.6099 58.943C86.9046 58.0612 87.1748 57.4885 86.8638 56.561C86.6048 55.7891 86.2174 55.0229 85.8595 54.2937C85.107 52.7606 84.1662 51.349 83.1686 49.9668C82.5129 49.0584 81.7396 47.2459 80.5669 47.0032C79.7348 46.8312 78.6848 46.9018 77.8313 46.8547C76.8362 46.7999 75.8399 46.7688 74.8444 46.7258C72.781 46.6364 70.5714 46.4413 68.5182 46.7134C70.9362 49.3282 73.3804 51.8777 75.5314 54.7253C76.9167 56.5593 79.8719 60.1641 77.9814 62.5335ZM87.2354 42.7528C86.1142 40.6728 85.0728 38.6161 83.5544 36.7999C82.2412 35.2291 81.0501 33.5902 79.6871 32.0562C76.828 28.8381 73.1174 26.46 69.6579 23.9595C68.8753 23.3937 67.8737 23.0853 67.0149 22.5918C65.9521 21.9815 64.8135 21.4719 63.6634 21.05C61.577 20.2847 59.1814 19.8942 56.9594 20.0495C54.5039 20.2211 52.6513 21.0887 51.1269 23.0043C49.6322 24.8819 49.4006 26.9546 49.3602 29.3143C49.3411 30.4357 49.3271 31.5636 49.338 32.6851C49.3489 33.795 49.4931 34.4968 50.1727 35.3518C50.7322 36.0554 51.9111 36.4107 52.7154 36.736C53.8096 37.1784 54.8338 37.6717 55.8546 38.267C56.2963 38.5244 57.345 39.4936 57.8898 39.3907C58.6924 39.2391 58.889 37.8143 58.9688 37.1822C59.2677 34.8172 59.2358 32.3986 59.0909 30.0221C59.0168 28.8052 58.4509 26.9766 58.7716 25.7451C58.9047 25.2336 59.2087 25.0521 59.5842 25.5039C60.0486 26.0626 60.163 27.3742 60.2827 28.0481C60.7056 30.4217 60.6776 32.8078 60.6914 35.208C60.6969 36.1617 61.2292 36.6563 61.5781 37.5059C62.0245 38.5925 62.3896 39.7262 62.6096 40.8805C62.7373 41.5506 62.8276 42.2333 62.818 42.9168C62.8127 43.2922 62.6278 43.8893 62.7719 44.2459C63.0517 44.9378 64.7887 44.551 65.3709 44.5381C67.9662 44.4802 70.5539 44.342 73.1532 44.3085C78.4152 44.241 83.7148 45.0226 88.8679 46.0155C88.3342 44.9229 87.8126 43.8235 87.2354 42.7528ZM84.9739 31.6488C85.3862 31.7162 86.7712 32.4734 87.0106 31.9934C87.2148 31.5831 86.204 30.1137 86.053 29.7223C85.7024 28.8135 85.6174 27.7989 85.4108 26.8503C85.2808 26.2524 85.2685 25.0708 84.945 24.5382C84.5836 23.9427 83.7408 24.2418 83.1426 24.2597C82.1223 24.2901 81.0918 24.2895 80.0709 24.2859C79.0325 24.2822 77.9949 24.2551 76.9564 24.2582C75.8951 24.2615 74.8467 24.0853 73.7935 24.0853C73.9116 24.4668 74.4055 24.653 74.7157 24.8325C75.1935 25.1092 75.5956 25.4382 76.0147 25.7993C76.9961 26.6455 77.9749 27.3217 78.7979 28.3311C79.5417 29.2437 80.5804 30.2194 81.5037 30.953C81.9981 31.3457 82.3362 31.3142 82.9353 31.3091C83.6518 31.3029 84.2747 31.5345 84.9739 31.6488ZM87.5163 29.6156C87.774 30.4057 87.7982 30.6378 88.6344 30.5817C89.7089 30.5092 90.7862 30.4419 91.8626 30.3638C94.3183 30.1861 96.7762 29.8191 99.2323 29.6953C101.326 29.5898 103.587 29.3369 105.668 29.555C106.639 29.6567 107.675 29.4609 108.665 29.4996C109.86 29.5466 111.067 29.5417 112.211 29.9098C113.165 30.2169 113.961 30.3827 114.642 31.177C115.329 31.9768 115.797 32.985 116.253 33.9259C117.138 35.7507 117.83 38.1328 119.387 39.5147C119.78 39.8638 120.451 40.4564 121.023 40.3907C121.963 40.2823 121.675 39.0361 121.592 38.4039C121.314 36.2737 120.477 34.4325 119.853 32.3979C119.667 31.7897 119.297 30.1832 120.263 29.9593C120.959 29.7982 122.051 31.328 122.45 31.7389C123.33 32.6436 124.191 33.5216 125.175 34.3182C125.987 34.9759 126.803 35.7024 127.925 35.5614C127.388 34.1127 126.796 32.7101 125.916 31.432C125.161 30.3347 123.888 29.3473 123.416 28.0852C123.061 27.1348 123.376 25.8381 124.481 26.6744C125.441 27.4004 126.272 28.2889 127.253 29.002C128.541 29.9375 130.003 30.7129 131.529 31.1755C132.034 31.3286 132.93 31.625 133.414 31.2598C134.136 30.7153 133.4 29.5792 132.995 29.0786C129.194 24.3847 122.874 22.7014 117.107 22.3475C115.604 22.2552 114.041 22.4034 112.532 22.4247C111.1 22.4446 109.771 22.62 108.356 22.8296C105.418 23.2641 102.474 23.6176 99.5494 24.0518C98.7664 24.1681 97.8375 24.3982 97.0578 24.368C96.7367 24.3556 96.5698 24.2695 96.2496 24.3552C95.9763 24.4286 95.7797 24.575 95.475 24.6243C93.7418 24.9037 91.9777 25.0128 90.2214 25.0351C89.3765 25.0459 88.5231 25.0299 87.6847 24.9192C87.191 24.854 86.6853 24.6487 86.5462 25.2354C86.4412 25.6777 86.7912 26.5159 86.9115 26.9418C87.1571 27.8129 87.2414 28.772 87.5163 29.6156ZM56.096 14.4427C56.3915 14.454 56.8782 14.4982 56.9742 14.129C57.1551 13.4334 56.2255 13.858 56.0532 13.42C55.8614 12.9325 56.5158 12.8062 56.8045 12.7275C57.393 12.5667 57.2418 12.6011 57.2576 11.9899C57.2725 11.4261 57.4546 10.9126 57.6832 10.4018C58.0011 9.69225 58.0174 9.72809 57.3044 9.6466C56.1048 9.50957 55.843 8.44967 55.3992 7.48001C55.1254 6.88165 54.8219 6.29796 54.6515 5.65875C54.548 5.27091 54.5623 4.65455 54.1835 4.43603C53.6718 4.14083 52.4804 4.44606 51.9412 4.51698C51.0403 4.63543 50.0928 4.76983 49.2308 5.07227C48.4919 5.33162 48.2107 5.93315 47.5444 6.03972C47.1137 6.1084 44.5218 5.94595 44.8622 6.74037C45.0743 7.23531 46.0752 6.95257 46.444 6.93771C46.9151 6.91896 47.4892 6.84879 47.9562 6.94086C48.4229 7.03314 48.4666 7.20784 48.6488 7.67253C48.2116 7.65081 46.5758 7.4063 46.2184 7.72803C45.9013 8.0134 46.1354 8.32621 46.4543 8.43112C47.0765 8.6359 47.9176 8.2386 48.5707 8.40939C49.0355 8.53099 49.0032 8.54752 49.1948 9.01443C49.2945 9.25802 49.4083 9.50715 49.4505 9.76913C49.6906 11.2488 48.3341 10.1001 47.7699 9.77246C46.7381 9.17299 45.6197 9.28494 45.8199 10.7252C45.8862 11.2018 46.1431 11.6188 46.4729 11.9624C46.9378 12.4468 47.0583 12.5382 47.0822 13.27C47.1028 13.8997 47.0352 14.5734 47.258 15.1781C47.5038 15.844 48.0272 16.4116 48.4358 16.9801C48.9268 17.6629 49.4347 18.3374 49.9083 19.0324C50.1124 19.3319 50.4037 20.0857 50.7967 20.1856C51.167 20.2794 51.7407 19.6852 52.0473 19.5152C52.7904 19.1031 53.6065 18.8347 54.3703 18.4659C53.7302 17.8967 53.1605 17.251 52.5337 16.6792C52.0442 16.2327 51.7908 16.1477 51.9523 15.3937C52.3145 13.7023 54.8583 14.3964 56.096 14.4427ZM46.4724 49.9837C44.4495 51.943 41.4419 53.1678 38.7059 53.6607C35.8397 54.1774 32.5713 54.56 29.7792 53.5612C26.9165 52.5368 24.2396 51.0643 21.8159 49.2319C21.5179 49.0066 18.1795 45.7462 17.9107 46.0033C18.9024 47.4887 19.9431 48.9374 20.9944 50.3808C21.5108 51.0896 23.2968 53.53 22.2699 54.4129C21.5897 54.9976 20.4328 54.0556 19.8743 53.6777C18.53 52.7682 17.0323 52.2785 15.3982 52.2785C16.1533 53.6647 17.3008 54.8922 17.9149 56.3566C18.2048 57.0485 18.0572 56.9982 17.4019 56.8102C16.5818 56.575 15.6517 56.3028 14.796 56.2643C14.398 56.2462 13.59 56.4214 13.5226 56.9411C13.4584 57.4384 14.5138 58.3766 14.8084 58.7327C15.888 60.0386 16.9885 61.2776 18.3232 62.3305C20.8854 64.3513 23.9269 65.6542 27.0226 66.6221C30.1852 67.6105 33.5653 67.9084 36.7985 67.1127C38.4002 66.7184 39.8696 66.1835 41.3045 65.3851C41.954 65.024 42.6372 64.8601 43.2619 64.4354C43.9109 63.9944 44.5686 63.5542 45.231 63.1342C46.5954 62.2694 47.441 61.3994 48.3931 60.0998C48.7759 59.5772 49.3014 59.1898 49.6662 58.6752C50.0684 58.1081 50.4819 57.5305 50.8569 56.9338C52.5858 54.1819 54.2796 51.2238 55.2874 48.1213C55.8071 46.5217 56.1601 44.8763 56.5961 43.2532C56.7461 42.6947 57.2998 41.6207 57.1842 41.0535C57.0727 40.5063 56.2071 40.2844 55.7785 40.0523C54.5274 39.3751 53.2721 38.774 52.0511 38.054C50.3647 37.0592 50.6634 39.0991 50.554 40.2769C50.2295 43.7784 49.0531 47.484 46.4724 49.9837ZM60.7375 51.3223C61.0933 51.6274 61.9937 51.8167 62.449 51.6774C62.0003 51.0088 61.3087 50.5701 60.7267 50.032C60.6634 50.4019 60.3821 51.0177 60.7375 51.3223ZM58.5659 75.1138C59.3849 75.1735 60.2398 75.4196 61.0518 75.426C61.7762 75.4318 62.6927 75.4908 63.3967 75.3354C65.3385 74.9059 64.1904 73.1485 63.5146 72.0015C63.1407 71.3673 62.6682 70.7999 62.2786 70.1766C62.1845 70.0264 61.9234 69.4131 61.715 69.3925C61.4083 69.3621 61.3129 69.8653 61.1651 70.1731C60.7649 71.0068 60.3952 71.8682 59.9412 72.6745C59.4847 73.4853 58.847 74.2127 58.5659 75.1138ZM37.5597 87.4531C37.3919 86.5204 34.6637 87.4677 34.0464 87.5789C33.8693 87.611 31.7318 87.8715 31.7511 88.0573C32.4585 88.1096 37.7685 88.614 37.5597 87.4531ZM0.45934 108.277C0.0413793 108.459 0.0561245 107.128 0.0368284 106.952C-0.00212785 106.596 -0.0510945 105.956 0.12967 105.644C0.262376 105.414 0.301332 105.531 0.37251 105.47C0.956126 104.975 0.251454 104.764 0.120204 104.369C0.079791 104.248 0.0759662 103.914 0.136403 103.813C0.308612 103.523 0.356307 103.74 0.561101 103.618C0.698358 103.536 0.976878 103.738 0.896235 103.366C0.829791 103.059 0.595324 103.248 0.477909 103.152C0.031368 102.787 0.0768782 102.308 0.148419 101.724C0.21632 101.17 0.281853 100.577 0.44496 100.053C0.528516 99.7835 0.642653 99.9049 0.633551 99.5869C0.628818 99.4209 0.376695 99.2569 0.368321 99.0483C0.358309 98.7889 0.598784 98.3727 0.612255 98.0993C0.630095 97.7403 0.633371 97.4285 0.593322 97.0892C0.568747 96.8811 0.513771 96.8056 0.502303 96.5525C0.491562 96.3142 0.543808 96.035 0.548724 95.7865C0.562923 95.0813 0.657035 94.3724 0.780822 93.698C0.853637 93.5922 0.910796 93.4784 0.952847 93.3566C0.923903 93.2303 0.875481 93.1118 0.807763 93.0011C0.789013 92.6787 0.795204 92.3638 0.799027 92.0367C0.806308 91.43 0.690532 90.8542 0.655034 90.256C0.644658 90.0783 0.574755 89.782 0.698177 89.6178C0.792291 89.4927 1.12123 89.5235 1.15728 89.4033C1.26122 89.0589 0.950117 89.2644 0.882763 89.09C0.828698 88.9502 0.856187 88.7662 0.847267 88.6256C0.822328 88.2456 1.36935 85.6622 1.8432 85.9981C1.65443 85.8643 2.02487 84.9749 2.1452 84.8243C2.59192 84.2645 2.85861 84.8986 3.22105 85.2922C3.72803 85.8432 4.16947 85.4887 4.82809 85.3644C5.64362 85.2106 6.53962 85.2648 7.36625 85.2827C8.21364 85.3011 9.07305 85.3488 9.91698 85.4234C10.8257 85.5037 11.7059 85.7784 12.6237 85.7645C13.9841 85.7442 15.3623 85.776 16.7214 85.7272C16.9936 85.7174 17.6518 85.7458 17.7658 85.3999C17.8087 85.2699 17.5633 84.9971 17.5264 84.8538C17.455 84.5786 17.4501 84.2174 17.5713 83.948C17.9378 83.1352 18.7003 83.7987 19.2375 84.0942C20.0469 84.5389 20.8855 84.9177 21.7795 85.1582C25.3448 86.1173 29.5508 86.0638 33.1914 85.6111C36.8882 85.1513 40.5428 84.0381 44.1472 83.1263C47.4383 82.2938 50.4758 80.4479 53.0019 78.1892C55.577 75.8869 57.6093 72.6936 58.8812 69.4879C60.2984 65.9167 59.2675 62.3212 59.2315 58.6684C59.2136 56.8468 58.8084 55.069 58.6974 53.2532C58.5898 51.4919 58.7405 49.8394 59.2686 48.1155C59.4033 47.6764 59.5926 47.2353 59.6907 46.786C59.7816 46.3701 59.6208 46.0362 59.6742 45.6439C59.7889 44.804 60.7171 44.8892 61.123 44.2648C61.4906 43.6996 61.1119 42.8198 60.9818 42.2136C60.7555 41.1609 60.4742 40.1211 60.2154 39.0762C59.9481 39.6984 59.6986 40.3189 59.5371 40.9783C59.4956 41.1472 59.492 41.4454 59.3764 41.5954C59.2928 41.7039 59.0818 41.6899 59.0157 41.79C58.7929 42.1275 58.8186 42.4659 58.78 42.8999C58.7048 43.7418 58.5687 44.5745 58.4303 45.4076C57.965 48.2065 57.6108 50.9649 56.5112 53.607C54.4848 58.4758 51.7477 63.0064 47.6998 66.4601C45.8654 68.0252 43.5326 68.9984 41.3123 69.823C38.664 70.8066 36.1448 71.3396 33.3017 71.0844C30.6186 70.8436 27.937 70.0104 25.4793 68.9301C23.0585 67.8659 20.7858 66.9294 18.7189 65.2147C16.5104 63.3827 14.3047 61.1715 12.7855 58.7196C12.2316 57.8254 11.2453 55.9808 11.4871 54.8609C11.7971 53.4248 14.0028 54.3718 14.7994 54.6692C14.1292 53.5721 12.3348 51.6183 13.227 50.2499C14.5291 48.2527 17.9374 50.2752 19.3331 51.0154C18.6139 49.5523 17.5145 48.323 16.7354 46.8954C16.3495 46.188 15.2824 43.3115 16.8501 43.1558C17.3247 43.1087 17.8286 43.6506 18.1639 43.9222C18.8147 44.4498 19.4604 44.9833 20.1059 45.5174C21.5167 46.6848 23.0057 47.6777 24.6306 48.5231C27.8824 50.2147 31.0278 51.1131 34.7212 50.7532C37.8679 50.447 41.338 49.4904 43.7851 47.4157C45.2545 46.17 46.4228 44.792 47.1776 43.0016C48.0111 41.0247 48.5425 38.853 49.1256 36.7905C48.2218 36.5577 47.5883 36.6925 47.7627 35.6172C47.9718 34.3284 47.9258 33.0241 47.9334 31.7158C47.9494 29.0038 47.9995 26.2619 48.8478 23.6593C48.9987 23.1962 49.1318 22.7189 49.3919 22.3018C49.7127 21.7876 50.0105 21.7111 49.5974 21.1504C48.8026 20.071 47.9769 19.1484 47.3873 17.908C47.0806 17.2628 46.7958 16.631 46.4179 16.0279C45.7981 15.039 44.9877 14.3136 44.1923 13.4569C43.2792 12.4739 42.564 11.5466 42.0947 10.2837C41.8753 9.69431 41.5764 9.10782 41.463 8.48513C41.3279 7.74271 41.4683 6.98321 41.5324 6.2404C41.7443 3.77621 42.5718 1.78767 44.9946 0.82489C46.9633 0.04236 49.2266 -0.294612 51.2907 0.31043C53.7879 1.04266 54.9716 3.23392 56.1608 5.35447C56.4963 5.95245 56.7028 6.58516 57.0069 7.19206C57.3188 7.81419 57.6423 7.81512 58.2166 8.06761C59.3551 8.56776 59.2586 10.0105 58.7643 10.9588C58.1363 12.1639 58.2634 13.56 57.7222 14.818C57.1679 16.1061 56.3076 16.4651 54.9956 16.7538C55.4958 17.1511 55.9519 17.6706 56.5893 17.8404C57.3632 18.0465 58.3007 17.8499 59.1018 17.8612C60.7649 17.8847 62.4468 18.11 64.0273 18.6418C65.5793 19.1637 66.9705 19.9992 68.4133 20.7469C69.0728 21.0885 69.6879 21.576 70.4416 21.6753C71.1728 21.7716 71.9094 21.5913 72.6448 21.6858C74.2573 21.8932 76.0251 21.6318 77.6696 21.5961C79.4407 21.5573 81.2181 21.5821 82.9857 21.4524C83.7493 21.3966 84.5035 21.3163 85.2697 21.3829C85.966 21.4432 86.3813 21.2793 86.9833 21.7559C87.3834 22.0726 87.7025 22.848 88.174 22.9535C88.6768 23.0662 89.6672 22.7509 90.1637 22.6761C91.833 22.4244 93.5154 22.0916 95.1743 21.7847C95.9516 21.6407 96.6843 21.3785 97.4683 21.2433C98.2775 21.1035 99.1178 21.058 99.9171 20.8781C101.211 20.587 102.607 20.4785 103.956 20.2925C105.536 20.0748 107.16 19.6155 108.752 19.5574C115.416 19.3142 122.885 18.9185 128.794 22.6133C130.181 23.4809 131.607 24.5888 132.676 25.8297C133.657 26.9699 134.863 28.4782 135.113 29.9973C135.337 31.3533 135.174 33.729 133.361 33.7455C131.593 33.7617 129.776 32.7061 128.254 31.9242C128.904 33.4821 130.879 36.8189 129.165 38.3316C127.396 39.8928 124.139 36.5052 122.97 35.4177C123.201 37.0823 124.85 43.1314 121.73 43.2252C118.685 43.3166 116.918 39.5629 115.833 37.3346C115.261 36.1581 114.834 34.7759 113.904 33.8185C112.969 32.8559 111.673 32.8878 110.407 32.7647C107.332 32.4656 104.273 32.4501 101.179 32.376C97.2641 32.2825 93.4189 32.9276 89.4985 32.5632C89.548 33.3192 89.2609 34.695 88.4951 34.9845C87.3666 35.411 85.9828 34.7979 84.8276 34.7979C84.9051 35.2601 85.5632 35.747 85.8404 36.096C86.3372 36.7213 86.7648 37.3921 87.1646 38.0828C87.9455 39.4317 88.7762 40.783 89.3305 42.2451C89.6094 42.9807 89.8476 43.7393 90.0484 44.4996C90.1638 44.9369 90.1618 45.5904 90.3959 45.9769C90.6867 46.4575 91.1334 46.18 91.5018 46.5569C92.0328 47.1002 91.4785 47.386 91.3112 47.865C91.1297 48.3833 91.3577 49.261 91.2885 49.8306C91.1849 50.6859 91.0751 51.5471 90.9331 52.3968C90.6737 53.95 90.1233 55.3866 89.755 56.9028C89.4055 58.3411 90.3515 59.8621 90.6635 61.2532C91.0262 62.8683 91.2364 64.5021 91.6087 66.1138C92.0017 67.8155 92.1839 69.5682 92.455 71.2919C92.7197 72.9761 93.1007 74.6398 93.3594 76.3253C93.8521 79.537 94.1652 82.8077 94.5537 86.0325C94.7574 87.7229 94.914 89.4353 94.9291 91.1389C94.9431 92.7341 95.1681 94.2918 95.201 95.8841C95.2358 97.5716 95.2556 99.2605 95.3286 100.947C95.4006 102.615 95.1938 104.276 95.118 105.941C95.082 106.735 95.0554 107.53 95.0672 108.325C95.0769 108.995 95.2609 109.78 95.0945 110.437C94.766 111.735 92.9396 112.514 91.7931 112.892C90.3916 113.353 88.9121 113.672 87.4771 114.013C86.7783 114.18 86.0703 114.321 85.3595 114.425C85.0831 114.466 84.7628 114.45 84.5048 114.567C84.116 114.744 84.1926 114.655 84.172 115.097C84.1387 115.812 84.3479 116.594 84.4569 117.295C84.5571 117.939 84.4294 119 84.6787 119.578C84.9623 120.235 86.9609 120.773 87.4498 120.327C87.7948 120.013 87.8935 119.418 88.2998 119.154C88.885 118.772 89.1539 119.307 89.151 119.881C89.1488 120.314 88.8215 120.836 89.2151 121.152C89.556 121.426 90.2752 121.282 90.6047 121.057C91.1538 120.681 92.293 118.353 92.5717 120.333C92.6372 120.799 92.4361 121.343 92.8314 121.697C93.2021 122.028 94.0955 122.014 94.563 122.073C95.309 122.167 95.962 122.199 96.7151 122.183C97.5557 122.165 98.3499 122.362 99.1762 122.399C100.464 122.457 101.756 122.631 103.073 122.657C104.417 122.683 105.882 123.034 106.916 123.946C108.103 124.993 107.859 126.288 107.632 127.69C107.483 128.618 108.666 129.62 107.472 130.431C106.992 130.756 106.197 130.688 105.646 130.692C104.704 130.701 103.773 130.591 102.83 130.644C95.9649 131.026 89.0727 130.741 82.2086 130.515C80.605 130.462 78.9393 130.536 77.3494 130.342C76.6411 130.255 75.9381 130.132 75.2281 130.056C74.6208 129.991 73.8958 130.098 73.3158 129.901C71.8797 129.413 73.4165 127.926 73.531 127.078C73.7534 125.43 73.6591 123.684 73.6699 122.024C73.6811 120.259 73.6699 118.493 73.6699 116.728C72.9062 116.782 70.7633 117.347 70.1645 116.692C69.6697 116.15 70.5119 115.018 70.5532 114.368C70.7216 111.715 70.6648 109.06 70.8648 106.406C71.0713 103.668 71.0458 100.955 71.1317 98.2165C71.2234 95.2917 71.431 92.3776 71.431 89.4485C69.2944 91.7105 67.2537 94.1946 64.8779 96.211C63.8603 97.0746 62.7519 97.8219 61.6892 98.6272C60.4917 99.5345 59.3769 100.544 58.1864 101.46C55.9717 103.164 53.3381 104.16 50.9982 105.675C48.6332 107.207 46.1092 108.468 43.3863 109.226C40.4097 110.055 37.2534 110.33 34.1733 110.171C32.6955 110.095 31.2252 109.905 29.7698 109.64C29.163 109.529 28.5625 109.385 27.9556 109.276C27.0971 109.122 26.6787 109.266 25.875 109.423C24.819 109.63 24.556 108.087 24.2429 107.345C23.6655 105.977 23.4155 104.482 22.9045 103.084C22.0111 100.637 21.1877 98.2176 20.3971 95.7295C20.2176 95.165 20.0982 94.1858 19.425 94.1065C18.9707 94.0528 18.1881 94.5596 17.7426 94.6995C16.9681 94.9427 16.2339 95.0522 15.4271 95.0722C14.7472 95.0889 14.666 95.3438 14.2409 95.8276C13.8512 96.2711 13.1476 96.5254 13.28 97.1694C13.3582 97.5508 13.7633 97.8452 13.839 98.2761C14.1106 99.8221 12.5587 98.4854 12.0132 98.1477C11.6828 98.8764 14.1791 99.6856 13.2694 100.718C12.824 101.223 11.8952 100.455 11.4519 100.259C10.4181 99.8014 10.261 101.046 9.98561 101.852C9.48045 103.333 9.14222 104.887 8.75503 106.402C8.38203 107.861 8.07875 109.353 7.49022 110.747C6.96577 111.989 6.0523 112.799 5.40005 113.921C5.07894 114.473 4.72451 114.871 4.03058 114.897C3.5611 114.915 2.69277 114.73 2.24933 114.551C1.83064 114.382 1.37663 113.867 1.08392 113.544C0.677423 113.095 0.757703 112.662 0.428577 112.113C0.442776 112.388 0.504304 112.645 0.519049 112.914C-0.0816784 112.441 0.51723 111.697 0.408189 111.098C0.373784 110.908 0.178093 110.749 0.166988 110.549C0.162073 110.468 0.336464 110.28 0.348296 110.166C0.362131 110.032 0.373056 109.64 0.334827 109.54C0.307158 109.469 0.0759689 109.103 0.0810659 109.169C0.0776072 109.121 -0.0041291 109.044 0.0397422 108.885C0.106004 108.643 0.489923 108.6 0.45934 108.277Z" fill="#222B28"/>
</svg>
