<svg width="23" height="23" viewBox="0 0 23 23" fill="none" xmlns="http://www.w3.org/2000/svg">
<path d="M7.60269 22.989C7.04178 22.9857 6.49716 22.8002 6.05093 22.4603L3.67156 20.6901C3.12248 20.262 2.75816 19.6399 2.65341 18.9516C2.54867 18.2633 2.71145 17.561 3.10833 16.9889C3.31832 16.6788 3.45178 16.3234 3.49774 15.9517C3.54369 15.5801 3.50084 15.2028 3.37271 14.8509L3.30374 14.667C3.21452 14.3485 3.05145 14.0555 2.82776 13.8119C2.60407 13.5682 2.32608 13.3807 2.01635 13.2647H1.83244C1.16101 13.0389 0.605755 12.5574 0.287241 11.9246C-0.0312724 11.2919 -0.0873269 10.5591 0.13125 9.88529L1.0738 6.89671C1.16057 6.55046 1.32031 6.22673 1.54233 5.94722C1.76436 5.6677 2.04354 5.43885 2.36119 5.27599C2.657 5.12357 2.98066 5.03276 3.31259 5.00905C3.64451 4.98534 3.9778 5.02923 4.29227 5.13805C4.63467 5.25329 5.00004 5.28316 5.35661 5.22506C5.71318 5.16697 6.05017 5.02267 6.33829 4.80471L6.48772 4.68977C6.74853 4.48166 6.95931 4.21769 7.10453 3.91729C7.24975 3.6169 7.32572 3.28775 7.32682 2.95409V2.67822C7.32373 1.97491 7.59861 1.29885 8.09161 0.79724C8.58461 0.29563 9.25581 0.00908788 9.95907 0H12.8902C13.2323 0.000922081 13.5709 0.0694318 13.8866 0.201595C14.2022 0.333757 14.4886 0.526969 14.7293 0.770133C15.2354 1.28485 15.5165 1.97939 15.5109 2.70121V3.02306C15.5051 3.34002 15.5738 3.65392 15.7116 3.93944C15.8494 4.22495 16.0523 4.4741 16.304 4.66678L16.4305 4.75873C16.6885 4.95219 16.9894 5.0804 17.3076 5.13243C17.6259 5.18447 17.952 5.15879 18.2581 5.05759L18.6489 4.93115C18.98 4.82139 19.3299 4.77944 19.6776 4.80781C20.0252 4.83618 20.3636 4.93428 20.6726 5.09626C20.9815 5.25824 21.2547 5.48078 21.4758 5.75062C21.6968 6.02045 21.8613 6.33205 21.9594 6.66682L22.8674 9.56344C23.0775 10.2329 23.0201 10.9577 22.7072 11.5857C22.3943 12.2137 21.8502 12.696 21.1892 12.9313L20.9593 13.0118C20.6212 13.1225 20.3154 13.3146 20.0689 13.5711C19.8224 13.8277 19.6427 14.1408 19.5455 14.4831C19.454 14.8013 19.4323 15.1355 19.4819 15.4628C19.5315 15.7901 19.6512 16.1029 19.8329 16.3797L20.1317 16.8165C20.528 17.3917 20.6893 18.0968 20.5825 18.7871C20.4756 19.4774 20.1087 20.1007 19.557 20.5292L17.2466 22.3109C16.9675 22.5243 16.6476 22.6784 16.3067 22.7636C15.9658 22.8488 15.611 22.8633 15.2643 22.8062C14.9176 22.7491 14.5862 22.6217 14.2906 22.4317C13.995 22.2418 13.7413 21.9933 13.5454 21.7017L13.4074 21.5063C13.2192 21.2233 12.9623 20.9927 12.6608 20.8359C12.3593 20.6792 12.023 20.6013 11.6832 20.6097C11.3591 20.6181 11.0414 20.7026 10.7559 20.8563C10.4704 21.01 10.225 21.2287 10.0395 21.4948L9.77516 21.8741C9.57911 22.1678 9.32499 22.4182 9.02846 22.61C8.73192 22.8018 8.39926 22.9308 8.05098 22.989C7.90191 23.0037 7.75176 23.0037 7.60269 22.989ZM2.7635 11.0577C3.41258 11.2892 3.99827 11.6698 4.47342 12.1689C4.94857 12.668 5.29992 13.2717 5.49919 13.9314V14.0693C5.7474 14.7551 5.8289 15.4901 5.73696 16.2136C5.64502 16.9371 5.38228 17.6284 4.97045 18.2303C4.89775 18.3106 4.85749 18.4151 4.85749 18.5234C4.85749 18.6318 4.89775 18.7362 4.97045 18.8165L7.44177 20.6901C7.47401 20.7155 7.5113 20.7336 7.55113 20.7433C7.59096 20.753 7.63241 20.7541 7.67269 20.7465C7.71298 20.7389 7.75116 20.7227 7.78469 20.6991C7.81821 20.6755 7.8463 20.645 7.86706 20.6097L8.13144 20.2304C8.53017 19.6542 9.06266 19.1834 9.68326 18.8581C10.3039 18.5329 10.9941 18.363 11.6947 18.363C12.3954 18.363 13.0856 18.5329 13.7062 18.8581C14.3268 19.1834 14.8593 19.6542 15.258 20.2304L15.396 20.4373C15.4454 20.5074 15.5192 20.5566 15.6029 20.5752C15.6413 20.5809 15.6804 20.5787 15.718 20.5688C15.7555 20.5589 15.7906 20.5416 15.8213 20.5177L18.1891 18.7246C18.272 18.6588 18.3266 18.5637 18.3415 18.459C18.3565 18.3542 18.3308 18.2477 18.2696 18.1613L17.9708 17.7246C17.5813 17.1567 17.3244 16.5087 17.219 15.8283C17.1135 15.1479 17.1623 14.4525 17.3615 13.7934C17.5635 13.1007 17.929 12.4667 18.427 11.9446C18.9251 11.4225 19.5413 11.0277 20.2237 10.7934L20.4536 10.7129C20.5494 10.6745 20.6261 10.5998 20.667 10.505C20.7079 10.4103 20.7097 10.3032 20.672 10.2071L19.7754 7.345C19.7539 7.29492 19.7224 7.24974 19.6829 7.2122C19.6434 7.17466 19.5966 7.14553 19.5455 7.1266C19.5117 7.10944 19.4742 7.10049 19.4363 7.10049C19.3984 7.10049 19.3609 7.10944 19.3271 7.1266L18.9363 7.25304C18.2752 7.47124 17.571 7.5256 16.8842 7.41148C16.1974 7.29735 15.5487 7.01814 14.9937 6.59786L14.9477 6.49441C14.4151 6.09109 13.9833 5.5698 13.6861 4.97148C13.389 4.37316 13.2346 3.7141 13.235 3.04605V2.68972C13.2371 2.57893 13.1958 2.4717 13.1201 2.39086C13.0539 2.3311 12.9678 2.29829 12.8787 2.2989H9.95907C9.91224 2.30183 9.86645 2.31397 9.82433 2.33464C9.78221 2.3553 9.74458 2.38408 9.71361 2.41932C9.68263 2.45457 9.65893 2.49558 9.64385 2.54001C9.62877 2.58444 9.62261 2.63141 9.62573 2.67822V2.96559C9.6258 3.65185 9.46831 4.32898 9.16539 4.94477C8.86248 5.56057 8.42222 6.0986 7.87856 6.5174L7.72913 6.63234C7.1426 7.07891 6.45522 7.37435 5.72758 7.49261C4.99995 7.61088 4.25439 7.54834 3.55662 7.31052C3.50441 7.29299 3.4479 7.29299 3.39569 7.31052C3.33082 7.34993 3.28197 7.411 3.25776 7.48293L2.30372 10.483C2.27046 10.5852 2.27825 10.6963 2.32545 10.7928C2.37264 10.8894 2.45553 10.9637 2.55659 11.0003L2.7635 11.0577Z" fill="#708F85"/>
<path d="M11.4993 15.5176C10.7036 15.5176 9.92582 15.2817 9.26423 14.8396C8.60264 14.3975 8.08699 13.7692 7.78249 13.0341C7.47799 12.299 7.39832 11.4901 7.55355 10.7097C7.70878 9.92926 8.09195 9.21241 8.65458 8.64977C9.21722 8.08714 9.93407 7.70397 10.7145 7.54874C11.4949 7.39351 12.3038 7.47318 13.0389 7.77768C13.774 8.08218 14.4023 8.59783 14.8444 9.25942C15.2865 9.92101 15.5224 10.6988 15.5224 11.4945C15.5224 12.5615 15.0986 13.5848 14.3441 14.3393C13.5896 15.0937 12.5663 15.5176 11.4993 15.5176ZM11.4993 9.77034C11.1583 9.77034 10.825 9.87147 10.5414 10.0609C10.2579 10.2504 10.0369 10.5197 9.9064 10.8347C9.7759 11.1498 9.74176 11.4964 9.80829 11.8309C9.87481 12.1654 10.039 12.4726 10.2802 12.7137C10.5213 12.9548 10.8285 13.119 11.163 13.1856C11.4974 13.2521 11.8441 13.218 12.1591 13.0875C12.4742 12.957 12.7435 12.736 12.9329 12.4524C13.1224 12.1689 13.2235 11.8355 13.2235 11.4945C13.2235 11.0372 13.0419 10.5987 12.7185 10.2753C12.3952 9.952 11.9566 9.77034 11.4993 9.77034Z" fill="#708F85"/>
</svg>
