<svg width="113" height="121" viewBox="0 0 113 121" fill="none" xmlns="http://www.w3.org/2000/svg">
<path d="M68.7716 45.8969C68.4193 45.1758 67.844 44.5792 67.1257 44.1899L63.1316 42L59 49.0988L59.0646 49.1352L59.0354 49.1494C59.0354 49.1494 70.6572 56.1411 71.7073 54.8381C72.3177 54.0826 70.2988 52.5634 68.5008 51.4261C70.3426 52.4099 72.5886 53.3816 72.899 52.4665C73.1324 51.7735 72.0323 50.7756 70.7176 49.8685C72.1969 50.5857 73.6345 51.0382 73.9512 50.3312C74.4596 49.2059 70.876 47.0484 68.7716 45.8969Z" fill="#D3DEDB"/>
<path d="M63.4161 42L60 50.1187L61.6143 51L64 42.3743L63.4161 42Z" fill="#222B28"/>
<path d="M103.617 51.971L73.5132 34.5906L60.1218 57.7851L90.2257 75.1655L103.617 51.971Z" fill="#D3DEDB"/>
<path d="M64.3541 42.7278C64.3541 42.7278 68.9645 43.6289 70 42C70 42 69.5203 46.6152 64 45.9308L64.3541 42.7278Z" fill="#D3DEDB"/>
<path d="M37 8.50324C37 9.69585 36.5259 10.8396 35.682 11.6829C34.8381 12.5262 33.6935 13 32.5 13C31.3065 13 30.1619 12.5262 29.318 11.6829C28.4741 10.8396 28 9.69585 28 8.50324C28.0001 8.132 28.0456 7.76217 28.1354 7.40195C28.4029 6.33733 29.0507 5.40722 29.957 4.78691C30.8632 4.16661 31.9651 3.89894 33.0552 4.03437C34.1452 4.16979 35.1481 4.69894 35.8747 5.52211C36.6013 6.34527 37.0016 7.40559 37 8.50324Z" fill="#D3DEDB"/>
<path d="M40.1823 57L16.5424 54.6518L16 26.7756C15.9997 25.098 16.3228 23.4368 16.9508 21.8868C17.5788 20.3368 18.4995 18.9284 19.6601 17.742C20.8208 16.5557 22.1988 15.6146 23.7153 14.9725C25.2319 14.3305 26.8574 14 28.499 14C31.8144 14 34.9941 15.346 37.3385 17.7419C39.6829 20.1378 41 23.3873 41 26.7756L40.1823 57Z" fill="#189A46"/>
<path d="M28.0209 22.33C28.0209 22.33 26.0755 32.9884 59.7276 50L64 41.2568C64 41.2568 44.025 34.2508 38.9179 21L28.0209 22.33Z" fill="#189A46"/>
<path d="M8.73021 63.0472V60H0.118779V60.0751L0.0889369 60.0563C0.0889369 60.0563 0.0889373 60.2463 0.0697534 60.5802C0.0697534 60.8119 0.0527009 61.1145 0.0441747 61.4714C-0.0453501 64.9757 -0.134875 73.7958 1.24636 73.994C1.93912 74.0942 2.33345 72.9192 2.55726 71.4749C2.60203 71.0408 2.64892 70.4063 2.68942 69.8157C2.72139 69.3502 2.7491 68.9119 2.76615 68.6177C2.76615 68.8911 2.76615 69.1812 2.76615 69.4755C2.78534 69.1812 2.80026 68.8952 2.81305 68.6218C2.87486 69.609 3.0262 72.1908 2.94307 72.0384C3.1136 73.1446 3.43759 73.946 4.02377 73.8312C4.52041 73.7331 4.84867 73.059 5.06396 72.149C5.08527 71.9028 5.19825 70.5607 5.27711 69.3815C5.29417 69.1186 5.31122 68.8639 5.32401 68.6302L5.37943 69.7447L5.50732 72.2993L5.3709 71.4394C5.51371 72.7272 5.83771 73.7352 6.51128 73.6684C7.54294 73.5724 7.86694 70.8801 7.9522 68.5655C7.91383 68.8118 7.89465 69.0017 7.89465 69.0017L7.36816 65.2971C7.45149 65.8837 7.64595 66.45 7.94154 66.9668C7.9533 66.9887 7.96684 67.0096 7.98204 67.0294C8.08088 67.1952 8.20608 67.3446 8.35293 67.4718C8.34103 67.4689 8.32859 67.4689 8.31669 67.4718C10.8277 69.4567 12 67.1003 12 67.1003C10.6657 66.9062 9.38673 64.4727 8.73021 63.0472Z" fill="#D3DEDB"/>
<path d="M23.0217 16C23.0217 16 4.57553 23.5243 0 60.2036L9.98354 61C9.98354 61 14.3515 29.5605 26 27.545L23.0217 16Z" fill="#189A46"/>
<path fill-rule="evenodd" clip-rule="evenodd" d="M19.7429 34C19.743 33.9999 19.7431 33.9998 19.8715 34.1764C19.9999 34.353 19.9999 34.353 20 34.3529L19.9997 34.3532L19.9978 34.3546L19.9888 34.3615C19.9806 34.3678 19.9679 34.3777 19.951 34.3913C19.9172 34.4183 19.8666 34.4598 19.8009 34.5163C19.6695 34.6292 19.4782 34.8018 19.242 35.0381C18.7697 35.5107 18.1183 36.2377 17.4089 37.25C15.9905 39.274 14.3386 42.4409 13.4242 47L13 46.9126C13.9273 42.2893 15.6052 39.0662 17.056 36.9959C17.7812 35.9611 18.4493 35.2148 18.9379 34.7259C19.1822 34.4815 19.3816 34.3013 19.5209 34.1816C19.5906 34.1218 19.6452 34.077 19.6829 34.0469C19.7017 34.0318 19.7163 34.0204 19.7264 34.0126C19.7315 34.0087 19.7354 34.0057 19.7382 34.0035L19.7415 34.001L19.7426 34.0003L19.7429 34Z" fill="#222B28"/>
<path fill-rule="evenodd" clip-rule="evenodd" d="M36 32.0396C36 32.0393 35.9999 32.0391 36.2009 32.0199C36.4019 32.0007 36.4019 32.0005 36.4019 32.0003L36.4019 32.0001C36.4019 32 36.4019 32 36.4019 32.0001L36.4021 32.002C36.4023 32.004 36.4028 32.0077 36.4035 32.0131C36.4049 32.0237 36.4074 32.0408 36.4115 32.0642C36.4197 32.111 36.434 32.1829 36.4585 32.2787C36.5073 32.4702 36.5964 32.7572 36.7566 33.1288C37.0767 33.8719 37.6814 34.9551 38.8178 36.2908C41.091 38.9629 45.4929 42.6472 54 46.6385L53.8271 47C45.2839 42.9917 40.8295 39.2762 38.509 36.5486C37.3485 35.1844 36.722 34.0677 36.3851 33.2858C36.2167 32.895 36.1209 32.5883 36.0669 32.3767C36.0399 32.2709 36.0234 32.1889 36.0136 32.1322C36.0086 32.1038 36.0053 32.0818 36.0032 32.0662C36.0022 32.0584 36.0014 32.0522 36.0009 32.0477L36.0003 32.0422L36.0001 32.0403L36 32.0396Z" fill="#222B28"/>
<path fill-rule="evenodd" clip-rule="evenodd" d="M40 41.0171L39.3792 56L17 54.2524L17.0318 53.843L38.9878 55.5575L39.591 41L40 41.0171Z" fill="#222B28"/>
<path fill-rule="evenodd" clip-rule="evenodd" d="M27 54.9742L29.5656 15L30 15.0257L27.4344 55L27 54.9742Z" fill="#222B28"/>
<path fill-rule="evenodd" clip-rule="evenodd" d="M32 52.9822L33.5946 17L34 17.0178L32.4054 53L32 52.9822Z" fill="#222B28"/>
<path fill-rule="evenodd" clip-rule="evenodd" d="M35 53.9661L36.5333 36L37 36.0339L35.4667 54L35 53.9661Z" fill="#222B28"/>
<path fill-rule="evenodd" clip-rule="evenodd" d="M37 30.9639L37.6968 19L38 19.0361L37.3032 31L37 30.9639Z" fill="#222B28"/>
<path fill-rule="evenodd" clip-rule="evenodd" d="M44 40.9613L44.697 31L45 31.0387L44.303 41L44 40.9613Z" fill="#222B28"/>
<path fill-rule="evenodd" clip-rule="evenodd" d="M48 43.9658L49.327 34L50 34.0342L48.673 44L48 43.9658Z" fill="#222B28"/>
<path fill-rule="evenodd" clip-rule="evenodd" d="M53 46.9681L53.6211 37L54 37.0319L53.3789 47L53 46.9681Z" fill="#222B28"/>
<path fill-rule="evenodd" clip-rule="evenodd" d="M57 48.958L57.6971 39L58 39.042L57.3029 49L57 48.958Z" fill="#222B28"/>
<path fill-rule="evenodd" clip-rule="evenodd" d="M59 49.9608L60.3855 40L61 40.0392L59.6145 50L59 49.9608Z" fill="#222B28"/>
<path fill-rule="evenodd" clip-rule="evenodd" d="M24 53.9712L26.6032 15L27 15.0288L24.3968 54L24 53.9712Z" fill="#222B28"/>
<path fill-rule="evenodd" clip-rule="evenodd" d="M20 53.9773L22.5023 16L23 16.0227L20.4977 54L20 53.9773Z" fill="#222B28"/>
<path fill-rule="evenodd" clip-rule="evenodd" d="M17 33.971L18.4485 18L19 18.029L17.5515 34L17 33.971Z" fill="#222B28"/>
<path fill-rule="evenodd" clip-rule="evenodd" d="M17 52.9777L18.3261 38L19 38.0223L17.6739 53L17 52.9777Z" fill="#222B28"/>
<path fill-rule="evenodd" clip-rule="evenodd" d="M14 39.9899L14.495 23L15 23.0101L14.505 40L14 39.9899Z" fill="#222B28"/>
<path fill-rule="evenodd" clip-rule="evenodd" d="M11.3258 48L10 28.0159L10.6742 28L12 47.9841L11.3258 48Z" fill="#222B28"/>
<path fill-rule="evenodd" clip-rule="evenodd" d="M6.62059 60L6 36.0121L6.37941 36L7 59.9879L6.62059 60Z" fill="#222B28"/>
<path fill-rule="evenodd" clip-rule="evenodd" d="M3.66323 60L3 47.0293L3.33677 47L4 59.9707L3.66323 60Z" fill="#222B28"/>
<path d="M11.3846 88L5 88.6261L5.58842 93.834L7.24247 95.0819L5.54672 97.0252L6.7861 108C6.7861 108 10.261 104.839 10.4394 101.061C10.6178 97.2821 14 95.0711 14 95.0711L11.3846 88Z" fill="#222B28"/>
<path d="M26 114.457V119.674H31.1155L32.4866 118.451L34.2206 120H45C45 120 42.2577 116.902 38.6062 116.424C34.9547 115.946 33.1216 113 33.1216 113L26 114.457Z" fill="#222B28"/>
<path d="M31.72 64L7 86.7553L14.7775 98C14.4996 97.5911 32 83.4105 32 83.4105L31.72 64Z" fill="#222B28"/>
<path d="M15.2165 51C15.2165 51 13.2032 67.9364 21.456 70.6219L26.2748 114L34.391 113.73L40 55.2866L15.2165 51Z" fill="#222B28"/>
<path d="M36 11.4884C35.4195 12.1393 34.627 12.6128 33.7323 12.8432C32.8375 13.0736 31.8848 13.0496 31.006 12.7744C30.1272 12.4993 29.3658 11.9867 28.8273 11.3075C28.2887 10.6283 27.9996 9.81624 28 8.98367C28.0001 8.65208 28.0455 8.32175 28.1352 8L29.9943 8.42768C29.9943 8.42768 31.5456 12.394 36 11.4884Z" fill="#222B28"/>
<path d="M9 60.8172V63L0 61.1366C0 60.6815 0.0198775 60.2955 0.0265033 60L9 60.8172Z" fill="#222B28"/>
<path fill-rule="evenodd" clip-rule="evenodd" d="M71 64H110L105.662 120.79L75.5451 121L71 64ZM71.4446 64.4145L75.9233 120.583L105.282 120.378L109.557 64.4145H71.4446Z" fill="#222B28"/>
<path d="M113 64H68V71H113V64Z" fill="#222B28"/>
<path fill-rule="evenodd" clip-rule="evenodd" d="M87 68.3389L72.2505 80L72 79.6611L86.7495 68L87 68.3389Z" fill="#222B28"/>
<path fill-rule="evenodd" clip-rule="evenodd" d="M96 68.3215L73.2757 87L73 86.6785L95.7243 68L96 68.3215Z" fill="#222B28"/>
<path fill-rule="evenodd" clip-rule="evenodd" d="M105 68.3184L73.2724 94L73 93.6816L104.728 68L105 68.3184Z" fill="#222B28"/>
<path fill-rule="evenodd" clip-rule="evenodd" d="M110 70.3151L75.2752 102L75 101.685L109.725 70L110 70.3151Z" fill="#222B28"/>
<path fill-rule="evenodd" clip-rule="evenodd" d="M109 80.3053L75.2822 110L75 109.695L108.718 80L109 80.3053Z" fill="#222B28"/>
<path fill-rule="evenodd" clip-rule="evenodd" d="M76.3946 117.869C76.3231 117.93 76.2641 117.979 76.2322 118L76.0002 117.651C75.9993 117.652 76.0016 117.65 76.0089 117.645C76.0155 117.64 76.0243 117.633 76.0354 117.624C76.0578 117.605 76.0874 117.581 76.1246 117.549C76.1988 117.486 76.3003 117.399 76.4275 117.288C76.6819 117.066 77.037 116.752 77.4786 116.359C78.3618 115.574 79.5894 114.476 81.0451 113.169C83.9566 110.556 87.7798 107.11 91.5835 103.677C95.3873 100.245 99.1714 96.8255 102.005 94.2642C103.421 92.9835 104.6 91.9174 105.425 91.1714C105.837 90.7985 106.161 90.5055 106.382 90.3058L106.72 90C106.72 89.9998 106.72 89.9997 106.86 90.1553C107 90.3109 107 90.311 107 90.3112L106.662 90.6171C106.441 90.8168 106.117 91.1097 105.705 91.4827C104.88 92.2287 103.701 93.2948 102.285 94.5755C99.4515 97.1368 95.6673 100.556 91.8634 103.989C88.0596 107.422 84.236 110.867 81.3242 113.481C79.8683 114.788 78.6401 115.887 77.7561 116.673C77.3142 117.066 76.958 117.381 76.7022 117.604C76.5744 117.715 76.4712 117.805 76.3946 117.869Z" fill="#222B28"/>
<path fill-rule="evenodd" clip-rule="evenodd" d="M107 99.3205L80.2621 120L80 119.68L106.738 99L107 99.3205Z" fill="#222B28"/>
<path fill-rule="evenodd" clip-rule="evenodd" d="M104.71 103L74 73.2878L74.2895 73L105 102.712L104.71 103Z" fill="#222B28"/>
<path fill-rule="evenodd" clip-rule="evenodd" d="M103.717 113L81 93.2978L81.2827 93L104 112.702L103.717 113Z" fill="#222B28"/>
<path fill-rule="evenodd" clip-rule="evenodd" d="M97.751 119L79 104.339L79.249 104L98 118.661L97.751 119Z" fill="#222B28"/>
<path fill-rule="evenodd" clip-rule="evenodd" d="M86.0018 69.414C86.006 69.4153 86.0172 69.418 86.0336 69.418V69C86.0964 69 86.1512 69.0211 86.1873 69.0378C86.2272 69.0563 86.2678 69.0809 86.3074 69.1079C86.3868 69.162 86.4801 69.2381 86.5844 69.3309C86.7938 69.5174 87.065 69.7873 87.3869 70.1258C88.0317 70.8038 88.8924 71.7702 89.8928 72.9269C91.8944 75.241 94.4625 78.3254 96.9965 81.4085C99.5307 84.4918 102.032 87.5751 103.899 89.8874C104.833 91.0436 105.608 92.0071 106.15 92.6815C106.421 93.0188 106.633 93.2837 106.778 93.4644C106.851 93.5548 106.906 93.624 106.944 93.6707L107 93.7412C107 93.7414 107 93.7415 106.834 93.8709C106.667 94.0003 106.667 94.0002 106.667 94L106.666 93.9991L106.61 93.9296C106.573 93.8829 106.517 93.8137 106.445 93.7234C106.3 93.5429 106.088 93.278 105.817 92.9409C105.275 92.2666 104.5 91.3034 103.567 90.1476C101.7 87.8358 99.1997 84.7535 96.6665 81.6714C94.1331 78.589 91.5676 75.5079 89.5697 73.1979C88.5704 72.0426 87.7149 71.0822 87.0771 70.4115C86.7577 70.0757 86.496 69.8158 86.2997 69.641C86.2011 69.5532 86.1233 69.4908 86.0658 69.4516C86.037 69.4319 86.0176 69.4211 86.0064 69.4159C86.0044 69.415 86.0029 69.4144 86.0018 69.414Z" fill="#222B28"/>
<path fill-rule="evenodd" clip-rule="evenodd" d="M76 41.2058L66.3729 58L66 57.7942L75.6271 41L76 41.2058Z" fill="#222B28"/>
<path fill-rule="evenodd" clip-rule="evenodd" d="M79 43.2184L69.3493 59L69 58.7816L78.6507 43L79 43.2184Z" fill="#222B28"/>
<path fill-rule="evenodd" clip-rule="evenodd" d="M83 47.211L74.3705 61L74 60.789L82.6295 47L83 47.211Z" fill="#222B28"/>
<path fill-rule="evenodd" clip-rule="evenodd" d="M86 49.1859L78.372 62L78 61.8141L85.628 49L86 49.1859Z" fill="#222B28"/>
<path fill-rule="evenodd" clip-rule="evenodd" d="M90 51.1909L83.3645 63L83 62.8091L89.6355 51L90 51.1909Z" fill="#222B28"/>
<path fill-rule="evenodd" clip-rule="evenodd" d="M94 53.2076L88.3621 63L88 62.7924L93.6379 53L94 53.2076Z" fill="#222B28"/>
<path d="M36.268 5.36356C35.962 5.67445 35.5786 5.89616 35.1583 6.00535C34.738 6.11453 34.2963 6.10714 33.8798 5.98396C33.7164 6.77745 33.3636 7.51859 32.8522 8.14293C32.3408 8.76727 31.6861 9.2559 30.9453 9.56634C30.2044 9.87678 29.3997 9.99963 28.6011 9.9242C27.8025 9.84877 27.0343 9.57735 26.3632 9.13354C25.9403 10.0505 25.2502 10.8149 24.3853 11.3245C23.5205 11.834 22.5222 12.0643 21.5242 11.9845C20.5263 11.9048 19.5762 11.5187 18.8014 10.8781C18.0266 10.2375 17.464 9.37299 17.189 8.40027C16.914 7.42755 16.9396 6.39314 17.2626 5.43559C17.5856 4.47803 18.1904 3.64308 18.996 3.04257C19.8017 2.44205 20.7696 2.10466 21.7703 2.07558C22.771 2.0465 23.7566 2.32713 24.595 2.87987C24.9484 2.11102 25.4903 1.44615 26.1692 0.948332C26.8482 0.450511 27.6418 0.13625 28.4748 0.0353633C29.3077 -0.0655236 30.1523 0.0503093 30.9285 0.371872C31.7046 0.693435 32.3867 1.21006 32.9098 1.87275C33.3687 1.42273 33.9857 1.17536 34.6251 1.18505C35.2645 1.19475 35.8739 1.46072 36.3192 1.92445C36.7645 2.38818 37.0093 3.01169 36.9997 3.65781C36.9901 4.30393 36.7269 4.91974 36.268 5.36976V5.36356Z" fill="#222B28"/>
<path d="M9 67.3437C8.98792 67.3405 8.97528 67.3405 8.9632 67.3437C8.79004 67.3639 8.66234 68.0445 8.59307 68.529C8.55411 68.7949 8.53463 69 8.53463 69L8 65C8.08463 65.6334 8.28209 66.2448 8.58225 66.8028C8.59419 66.8265 8.60794 66.8491 8.62338 66.8704C8.72412 67.0479 8.85124 67.2076 9 67.3437Z" fill="#222B28"/>
<path d="M6 72L5.69524 71.061V71.045L5.56667 70.6416L5 71.8792C5 71.8792 5 71.8655 5 71.8427C5 71.8199 5 71.8427 5 71.8427C5.04762 71.5738 5.3 70.1083 5.47619 68.8205C5.51429 68.5333 5.55238 68.2553 5.58095 68L5.70476 69.2171L6 72Z" fill="#222B28"/>
</svg>
