<svg width="29" height="29" viewBox="0 0 29 29" fill="none" xmlns="http://www.w3.org/2000/svg">
<path d="M1 6.4H28M11.8 13.15V19.9M17.2 13.15V19.9M3.7 6.4H25.3L23.167 25.597C23.0939 26.2577 22.7796 26.8681 22.2844 27.3115C21.7892 27.7549 21.1479 28 20.4832 28H8.5168C7.85211 28 7.21076 27.7549 6.71556 27.3115C6.22036 26.8681 5.90612 26.2577 5.833 25.597L3.7 6.4ZM8.21575 2.54845C8.43412 2.08536 8.77965 1.6939 9.21206 1.41973C9.64446 1.14556 10.1459 0.999994 10.6579 1H18.3421C18.8543 0.999738 19.3561 1.14519 19.7887 1.41937C20.2214 1.69355 20.5671 2.08515 20.7856 2.54845L22.6 6.4H6.4L8.21575 2.54845Z" stroke="black" stroke-width="2" stroke-linecap="round" stroke-linejoin="round"/>
</svg>
